<?xml version="1.0" encoding="utf-8"?>
<!-- Generator: Adobe Illustrator 23.0.1, SVG Export Plug-In . SVG Version: 6.00 Build 0)  -->
<svg version="1.1" id="Layer_1" xmlns="http://www.w3.org/2000/svg" xmlns:xlink="http://www.w3.org/1999/xlink" x="0px" y="0px"
	 viewBox="0 0 140 175" style="enable-background:new 0 0 140 175;" xml:space="preserve">
<g>
	<path d="M77.2,135.3c2.3-23-5.2-43.4-11.6-64.2c-11.6-0.3-23-2.4-33-8.5c-4.7-2.8-8.6-7.1-12.4-11.2c-0.9-0.9,0.1-3.7,0.3-5.6
		c2.4,0.3,6.1-0.2,7,1.1c9.1,13.3,23.2,14.8,37.7,17.2c0.3-2.2,0.5-3.8,0.7-5.4c1.1-9.4,3.8-18.4,9.4-26c3-4.1,7.3-7.8,11.9-10.2
		c6.8-3.6,14-3,20,2.4c6.1,5.5,7.3,12.6,5.1,20.1c-3.3,11-11.7,17.1-21.8,21.1c-4.6,1.8-9.5,2.9-15.2,4.7c7,20.3,13,41,11.3,64.2
		c4.3-4.5,7.7-8.1,11.1-11.6c1.9-2,4.5-4.1,6.6-1.2c0.8,1.2-0.1,4.9-1.5,6.2c-8.1,8.3-14.7,17.6-19.8,28c-1,2-3.7,3.2-5.6,4.8
		c-1.3-1.9-3.2-3.6-3.8-5.7c-2.6-9.7-5.4-19.2-11.8-27.3c-2-2.5-1.2-5.2,1.3-6.3c1.6-0.7,4.9-0.4,5.8,0.8
		C71.9,126.3,74.1,130.5,77.2,135.3z M74.6,63.1C83,61.9,90,59.3,96,54.7c4.8-3.6,8-8.4,8.1-14.7c0-5.3-2.7-10.2-7-11.6
		c-5-1.7-9,0.4-11.9,4.1C78.4,41.2,75.3,51.4,74.6,63.1z"/>
</g>
</svg>
