<?xml version="1.0" encoding="utf-8"?>
<!-- Generator: Adobe Illustrator 23.0.1, SVG Export Plug-In . SVG Version: 6.00 Build 0)  -->
<svg version="1.1" id="Layer_1" xmlns="http://www.w3.org/2000/svg" xmlns:xlink="http://www.w3.org/1999/xlink" x="0px" y="0px"
	 viewBox="0 0 232 93" style="enable-background:new 0 0 232 93;" xml:space="preserve">
<g>
	<path d="M23.1,71.7c1.1,2.5,2.3,4.2,2.7,6.1c0.3,1.3-0.3,2.8-0.5,4.2c-1.8-0.3-4.6,0-5.3-1.1c-3.8-5.7-7.1-11.6-10.3-17.6
		c-1.2-2.2,0.8-4.9,3.4-4.4c8,1.6,15.7-0.3,23.4-2c1.3-0.3,3.1,1.6,4.7,2.5c-1,1.3-1.8,3.1-3.1,3.8c-2.5,1.1-5.4,1.6-8.3,3
		c1.1,0.4,2.2,0.8,3.4,1.1c53.7,15,102.9,5.5,147-28.4c10.8-8.3,20.2-18.7,30.2-28.1c1-0.9,1.6-2.4,2.7-2.9c1.6-0.7,4-1.6,5.2-0.9
		c2.3,1.3,1,3.4-0.4,5c-24.8,28.6-54.2,50.5-90.8,61.5c-33.2,10-66.5,9.5-99.6-0.8C26.1,72.6,25,72.2,23.1,71.7z"/>
</g>
</svg>
