<?xml version="1.0" encoding="utf-8"?>
<!-- Generator: Adobe Illustrator 23.0.1, SVG Export Plug-In . SVG Version: 6.00 Build 0)  -->
<svg version="1.1" id="Layer_1" xmlns="http://www.w3.org/2000/svg" xmlns:xlink="http://www.w3.org/1999/xlink" x="0px" y="0px"
	 viewBox="0 0 253 93" style="enable-background:new 0 0 253 93;" xml:space="preserve">
<g>
	<path d="M55.9,35.2c-0.3-14.7,5.4-22.3,19.3-25.9c6.8-1.8,13.6-2.3,20.4,0c6.2,2.1,10.4,7.2,10.4,12.5c0,5.2-3.5,10.4-10.1,12.2
		c-9,2.4-18.3,3.9-27.5,5.8c-1.3,0.3-2.7,0.3-4.4,0.6c1.6,4.8,4.8,8,8.6,10.7c8.7,6.1,18.7,8.9,28.8,11.5c32.8,8.6,66,7.3,99.3,3
		c2.7-0.4,5.5-0.8,8.2-1.2c1-0.1,2.2-0.4,2.9,0c1.3,0.8,2.2,2.1,3.3,3.2c-1.1,0.7-2.2,1.9-3.4,2c-19.1,2.9-38.3,4.7-57.6,4.4
		c-24.2-0.4-47.9-3.8-70.7-12.4c-10.2-3.8-19.1-9.4-24.6-19.3c-0.6-1-2.6-1.5-4-1.6c-11.5-1-22.9-1.8-34.4-2.7
		c-0.7-0.1-1.7-0.1-2.2-0.5c-1.2-1.1-2.2-2.4-3.3-3.6c1.4-0.4,2.8-1.2,4.1-1.1c8.9,0.7,17.7,1.8,26.5,2.5
		C48.8,35.6,52.2,35.2,55.9,35.2z M62.3,35.6c10.4-2.4,20.2-4.5,29.8-6.9c1.8-0.5,3.9-1.8,4.8-3.3c1.3-2,2.7-5,2.1-7
		c-0.6-2-3.4-4.2-5.5-4.6c-9-1.8-17.5,0.1-24.8,5.6C63.9,23,62,28.1,62.3,35.6z"/>
	<path d="M222.2,63.3c-6.2-1.1-12.8-2.3-19.4-3.5c-1-0.2-2.1-0.2-2.9-0.7c-0.9-0.6-2.3-2.1-2.1-2.5c0.4-1,1.7-2,2.8-2.4
		c0.8-0.3,1.9,0.2,2.9,0.3c8.8,1,17.7,1.9,26.5,2.8c1,0.1,2,0.1,3,0.4c2.6,0.9,2.8,2.5,0.8,4.3c-8.5,7.6-17,15.2-25.4,22.8
		c-1.8,1.7-4,2.2-5.6,0.2c-0.6-0.7,0.2-3.3,1.1-4.3C210,74.8,216.3,68.9,222.2,63.3z"/>
</g>
</svg>
