<svg width="88" height="88" viewBox="0 0 88 88" fill="none" xmlns="http://www.w3.org/2000/svg">
<path d="M44 5.5L52.6167 12.1L63.25 10.6333L67.2833 20.7167L77.3667 24.75L75.9 35.3833L82.5 44L75.9 52.6167L77.3667 63.25L67.2833 67.2833L63.25 77.3667L52.6167 75.9L44 82.5L35.3833 75.9L24.75 77.3667L20.7167 67.2833L10.6333 63.25L12.1 52.6167L5.5 44L12.1 35.3833L10.6333 24.75L20.7167 20.7167L24.75 10.6333L35.3833 12.1L44 5.5Z" fill="#90A4AE"/>
<path d="M63.4333 26.7667L38.5 51.7L28.2333 41.4333L23.1 46.5667L38.5 61.9667L68.5666 31.9L63.4333 26.7667Z" fill="white"/>
</svg>
