<svg width="92" height="92" viewBox="0 0 92 92" fill="none" xmlns="http://www.w3.org/2000/svg">
<path d="M23 76.6667V38.3333H84.3333V76.6667C84.3333 80.8833 80.8833 84.3333 76.6667 84.3333H30.6667C26.45 84.3333 23 80.8833 23 76.6667Z" fill="#CFD8DC"/>
<path d="M84.3333 30.6667V42.1667H23V30.6667C23 26.45 26.45 23 30.6667 23H76.6667C80.8833 23 84.3333 26.45 84.3333 30.6667Z" fill="#90A4AE"/>
<path d="M70.9167 36.4167C74.0924 36.4167 76.6667 33.8423 76.6667 30.6667C76.6667 27.491 74.0924 24.9167 70.9167 24.9167C67.7411 24.9167 65.1667 27.491 65.1667 30.6667C65.1667 33.8423 67.7411 36.4167 70.9167 36.4167Z" fill="#90A4AE"/>
<path d="M38.3334 36.4167C41.509 36.4167 44.0834 33.8423 44.0834 30.6667C44.0834 27.491 41.509 24.9167 38.3334 24.9167C35.1577 24.9167 32.5834 27.491 32.5834 30.6667C32.5834 33.8423 35.1577 36.4167 38.3334 36.4167Z" fill="#90A4AE"/>
<path d="M70.9167 19.1667C68.8084 19.1667 67.0834 20.8917 67.0834 23V30.6667C67.0834 32.775 68.8084 34.5 70.9167 34.5C73.025 34.5 74.75 32.775 74.75 30.6667V23C74.75 20.8917 73.025 19.1667 70.9167 19.1667Z" fill="#B0BEC5"/>
<path d="M38.3333 19.1667C36.225 19.1667 34.5 20.8917 34.5 23V30.6667C34.5 32.775 36.225 34.5 38.3333 34.5C40.4417 34.5 42.1667 32.775 42.1667 30.6667V23C42.1667 20.8917 40.4417 19.1667 38.3333 19.1667Z" fill="#B0BEC5"/>
<path d="M69 65.1667H61.3334V72.8333H69V65.1667Z" fill="#90A4AE"/>
<path d="M57.5 65.1667H49.8334V72.8333H57.5V65.1667Z" fill="#90A4AE"/>
<path d="M46 65.1667H38.3334V72.8333H46V65.1667Z" fill="#90A4AE"/>
<path d="M69 53.6667H61.3334V61.3333H69V53.6667Z" fill="#90A4AE"/>
<path d="M57.5 53.6667H49.8334V61.3333H57.5V53.6667Z" fill="#90A4AE"/>
<path d="M46 53.6667H38.3334V61.3333H46V53.6667Z" fill="#90A4AE"/>
<path d="M30.6666 51.75C43.3692 51.75 53.6666 41.4526 53.6666 28.75C53.6666 16.0475 43.3692 5.75 30.6666 5.75C17.9641 5.75 7.66663 16.0475 7.66663 28.75C7.66663 41.4526 17.9641 51.75 30.6666 51.75Z" fill="#90A4AE"/>
<path d="M30.6666 46C40.1935 46 47.9166 38.2769 47.9166 28.75C47.9166 19.2231 40.1935 11.5 30.6666 11.5C21.1397 11.5 13.4166 19.2231 13.4166 28.75C13.4166 38.2769 21.1397 46 30.6666 46Z" fill="white"/>
<path d="M32.5833 15.3333H28.75V28.75H32.5833V15.3333Z" fill="#90A4AE"/>
<path d="M36.7517 37.2684L39.3268 34.6934L32.0082 27.3748L29.4332 29.9499L36.7517 37.2684Z" fill="#90A4AE"/>
<path d="M30.6666 31.625C32.2544 31.625 33.5416 30.3378 33.5416 28.75C33.5416 27.1622 32.2544 25.875 30.6666 25.875C29.0788 25.875 27.7916 27.1622 27.7916 28.75C27.7916 30.3378 29.0788 31.625 30.6666 31.625Z" fill="#90A4AE"/>
</svg>
