<svg width="20" height="20" viewBox="0 0 20 20" fill="none" xmlns="http://www.w3.org/2000/svg">
<path d="M6.49996 1.6665H13.5C16.1666 1.6665 18.3333 3.83317 18.3333 6.49984V13.4998C18.3333 14.7817 17.8241 16.0111 16.9176 16.9175C16.0112 17.8239 14.7818 18.3332 13.5 18.3332H6.49996C3.83329 18.3332 1.66663 16.1665 1.66663 13.4998V6.49984C1.66663 5.21796 2.17585 3.98858 3.08228 3.08215C3.9887 2.17573 5.21808 1.6665 6.49996 1.6665ZM6.33329 3.33317C5.53764 3.33317 4.77458 3.64924 4.21197 4.21185C3.64936 4.77446 3.33329 5.53752 3.33329 6.33317V13.6665C3.33329 15.3248 4.67496 16.6665 6.33329 16.6665H13.6666C14.4623 16.6665 15.2253 16.3504 15.7879 15.7878C16.3506 15.2252 16.6666 14.4622 16.6666 13.6665V6.33317C16.6666 4.67484 15.325 3.33317 13.6666 3.33317H6.33329ZM14.375 4.58317C14.6512 4.58317 14.9162 4.69292 15.1115 4.88827C15.3069 5.08362 15.4166 5.34857 15.4166 5.62484C15.4166 5.9011 15.3069 6.16606 15.1115 6.36141C14.9162 6.55676 14.6512 6.6665 14.375 6.6665C14.0987 6.6665 13.8337 6.55676 13.6384 6.36141C13.443 6.16606 13.3333 5.9011 13.3333 5.62484C13.3333 5.34857 13.443 5.08362 13.6384 4.88827C13.8337 4.69292 14.0987 4.58317 14.375 4.58317ZM9.99996 5.83317C11.105 5.83317 12.1648 6.27216 12.9462 7.05356C13.7276 7.83496 14.1666 8.89477 14.1666 9.99984C14.1666 11.1049 13.7276 12.1647 12.9462 12.9461C12.1648 13.7275 11.105 14.1665 9.99996 14.1665C8.89489 14.1665 7.83508 13.7275 7.05368 12.9461C6.27228 12.1647 5.83329 11.1049 5.83329 9.99984C5.83329 8.89477 6.27228 7.83496 7.05368 7.05356C7.83508 6.27216 8.89489 5.83317 9.99996 5.83317ZM9.99996 7.49984C9.33692 7.49984 8.70103 7.76323 8.23219 8.23207C7.76335 8.70091 7.49996 9.3368 7.49996 9.99984C7.49996 10.6629 7.76335 11.2988 8.23219 11.7676C8.70103 12.2364 9.33692 12.4998 9.99996 12.4998C10.663 12.4998 11.2989 12.2364 11.7677 11.7676C12.2366 11.2988 12.5 10.6629 12.5 9.99984C12.5 9.3368 12.2366 8.70091 11.7677 8.23207C11.2989 7.76323 10.663 7.49984 9.99996 7.49984Z" fill="white"/>
</svg>
