<svg width="25" height="25" viewBox="0 0 25 25" fill="none" xmlns="http://www.w3.org/2000/svg">
<path d="M12.394 4.93921C14.594 4.93921 16.394 6.73921 16.394 8.93921C16.394 11.0392 14.294 14.4392 12.394 16.8392C10.494 14.3392 8.39404 11.0392 8.39404 8.93921C8.39404 6.73921 10.194 4.93921 12.394 4.93921ZM12.394 2.93921C9.09404 2.93921 6.39404 5.63921 6.39404 8.93921C6.39404 13.4392 12.394 19.9392 12.394 19.9392C12.394 19.9392 18.394 13.3392 18.394 8.93921C18.394 5.63921 15.694 2.93921 12.394 2.93921ZM12.394 6.93921C11.294 6.93921 10.394 7.83921 10.394 8.93921C10.394 10.0392 11.294 10.9392 12.394 10.9392C13.494 10.9392 14.394 10.0392 14.394 8.93921C14.394 7.83921 13.494 6.93921 12.394 6.93921ZM20.394 19.9392C20.394 22.1392 16.794 23.9392 12.394 23.9392C7.99404 23.9392 4.39404 22.1392 4.39404 19.9392C4.39404 18.6392 5.59404 17.5392 7.49404 16.7392L8.09404 17.6392C7.09404 18.1392 6.39404 18.7392 6.39404 19.4392C6.39404 20.8392 9.09404 21.9392 12.394 21.9392C15.694 21.9392 18.394 20.8392 18.394 19.4392C18.394 18.7392 17.694 18.1392 16.594 17.6392L17.194 16.7392C19.194 17.5392 20.394 18.6392 20.394 19.9392Z" fill="black"/>
</svg>
