<svg width="82" height="82" viewBox="0 0 82 82" fill="none" xmlns="http://www.w3.org/2000/svg">
<g clip-path="url(#clip0_18_99)">
<path d="M19.7141 24.4292L24.6 16.3317L28.1191 10.4892C29.4516 8.26834 32.6633 8.26834 33.9958 10.4892L39.0525 18.8942L34.85 25.9325L31.4333 31.4675L19.7141 24.4292ZM74.21 44.3142L68.7433 35.2258L56.9216 42.0592L64.4725 54.6667H68.3333C70.1456 54.6667 71.8837 53.9467 73.1652 52.6652C74.4467 51.3837 75.1666 49.6456 75.1666 47.8333C75.1666 46.6033 74.825 45.4075 74.21 44.3142ZM54.6666 71.75H59.7916C61.0629 71.7493 62.3088 71.394 63.3892 70.724C64.4696 70.0541 65.3417 69.096 65.9075 67.9575L70.8616 58.0833H54.6666V51.25L41 64.9167L54.6666 78.5833V71.75ZM34.1666 58.0833H19.475L16.605 62.9008C15.58 64.6092 15.5116 66.7275 16.4 68.5383C17.3566 70.4858 19.3725 71.75 21.5933 71.75H34.1666V58.0833ZM20.91 49.0292L26.8208 52.5825L22.14 33.825L3.41663 38.5058L9.22496 41.9908L7.82413 44.3483C6.62829 46.3642 6.52579 48.8242 7.58496 50.9083L13.1541 62.0467L20.91 49.0292ZM58.1516 17.5617L53.71 10.1475C52.4458 8.0975 50.225 6.83334 47.8333 6.83334H35.7725L46.4325 24.6L40.5558 28.1192L59.3133 32.8L63.9941 14.0425L58.1516 17.5617Z" fill="#90A4AE"/>
</g>
<defs>
<clipPath id="clip0_18_99">
<rect width="82" height="82" fill="white"/>
</clipPath>
</defs>
</svg>
