<svg width="92" height="92" viewBox="0 0 92 92" fill="none" xmlns="http://www.w3.org/2000/svg">
<path d="M47.058 88.136C69.7447 88.136 88.136 69.7448 88.136 47.058C88.136 24.3712 69.7447 5.98 47.058 5.98C24.3712 5.98 5.97998 24.3712 5.97998 47.058C5.97998 69.7448 24.3712 88.136 47.058 88.136Z" fill="#90A4AE"/>
<path d="M42.9641 38.87C43.3781 39.698 43.3781 40.112 44.2061 40.526C44.6201 40.94 45.4481 41.354 46.2761 42.182C47.1041 42.596 48.3461 43.01 49.5421 43.424C51.6121 44.252 53.2221 45.08 54.8781 45.908C56.5341 46.736 57.7761 47.564 58.9721 48.806C60.1681 50.048 61.0421 51.29 61.8701 52.486C62.6981 54.142 62.6981 55.752 62.6981 57.822C62.6981 59.478 62.2841 61.088 61.8701 62.744C61.4561 64.4 60.6281 65.642 59.3861 66.424C58.1441 67.666 56.9021 68.494 55.7061 68.908C54.0501 69.736 52.4401 70.15 50.7841 70.15V76.314H45.8621V70.15C44.2061 70.15 42.5961 69.736 40.9401 68.908C39.2841 68.08 38.0421 67.252 36.8461 66.424C35.6041 65.182 34.7761 63.94 33.9481 61.916C33.1201 60.26 32.7061 58.236 32.7061 55.752H41.7681C41.7681 57.408 41.7681 58.65 42.1821 59.432C42.5961 60.26 43.0101 61.088 43.8381 61.916C44.6661 62.33 45.0801 62.744 45.9081 63.158C46.7361 63.572 47.5641 63.572 48.3921 63.572C49.2201 63.572 50.0481 63.572 50.8761 63.158C51.7041 62.744 52.1181 62.33 52.5321 61.916C52.9461 61.502 53.3601 60.674 53.7741 60.26C54.1881 59.432 54.1881 59.018 54.1881 58.19C54.1881 57.362 54.1881 56.534 53.7741 55.706C53.3601 54.878 53.3601 54.464 52.5321 54.05C52.1181 53.636 51.2901 52.808 50.4621 52.394C49.6341 51.98 48.8061 51.566 47.5641 51.152C45.4941 50.324 43.8841 49.496 42.2281 48.668C40.5721 47.84 39.3301 47.012 38.1341 45.77C36.9381 44.528 36.0641 43.286 35.2361 42.09C34.4081 40.434 34.4081 38.824 34.4081 36.754C34.4081 35.098 34.8221 33.488 35.2361 31.832C35.6501 30.59 36.4781 28.934 37.7201 28.152C38.9621 26.91 40.2041 26.082 41.4001 25.668C43.0561 24.84 44.6661 24.426 46.3221 24.426V17.894H51.2441V24.472C52.9001 24.886 54.5101 25.3 56.1661 26.128C57.8221 26.956 58.6501 27.784 59.8461 29.026C60.6741 30.268 61.5021 31.51 62.3301 33.12C62.7441 34.776 63.1581 36.8 63.1581 38.87H54.0961C54.0961 36.386 53.6821 34.776 52.4401 33.534C51.6121 32.292 49.9561 31.878 48.3461 31.878C47.5181 31.878 46.6901 31.878 45.8621 32.292C45.0341 32.706 44.6201 33.12 44.2061 33.534C43.3781 33.534 42.9641 33.948 42.9641 34.776C42.9641 35.604 42.5501 36.018 42.5501 36.846C42.5501 37.628 42.5501 38.456 42.9641 38.87Z" fill="white"/>
</svg>
