<svg width="480" height="277" viewBox="0 0 480 277" fill="none" xmlns="http://www.w3.org/2000/svg">
<rect width="480" height="277" rx="29" fill="#F8F9FD"/>
<mask id="mask0_42_10" style="mask-type:alpha" maskUnits="userSpaceOnUse" x="0" y="0" width="480" height="277">
<rect width="480" height="277" rx="29" fill="#F8F9FD"/>
</mask>
<g mask="url(#mask0_42_10)">
<rect x="137" y="78" width="437" height="267" rx="24" fill="white" stroke="#D4D9EA" stroke-width="10"/>
<rect x="45" y="253" width="435" height="38" fill="url(#paint0_linear_42_10)"/>
<rect x="452" y="273" width="234" height="39" transform="rotate(-90 452 273)" fill="url(#paint1_linear_42_10)"/>
<rect x="235" y="179" width="193" height="31" rx="8" fill="#F0F2F8"/>
<rect x="235" y="220" width="193" height="31" rx="8" fill="#F0F2F8"/>
<path d="M290.177 119L287.263 108.818H289.615L291.3 115.893H291.385L293.244 108.818H295.258L297.112 115.908H297.202L298.887 108.818H301.239L298.325 119H296.227L294.288 112.343H294.209L292.275 119H290.177ZM303.708 119.144C303.221 119.144 302.787 119.06 302.406 118.891C302.025 118.718 301.723 118.465 301.501 118.13C301.282 117.792 301.173 117.371 301.173 116.867C301.173 116.443 301.251 116.087 301.406 115.798C301.562 115.51 301.774 115.278 302.043 115.102C302.311 114.927 302.616 114.794 302.958 114.705C303.302 114.615 303.664 114.552 304.041 114.516C304.485 114.469 304.843 114.426 305.115 114.386C305.387 114.343 305.584 114.28 305.707 114.197C305.829 114.115 305.891 113.992 305.891 113.83V113.8C305.891 113.485 305.791 113.241 305.593 113.069C305.397 112.897 305.119 112.81 304.757 112.81C304.376 112.81 304.073 112.895 303.847 113.064C303.622 113.23 303.473 113.438 303.4 113.69L301.441 113.531C301.541 113.067 301.736 112.666 302.028 112.328C302.32 111.987 302.696 111.725 303.156 111.543C303.62 111.357 304.157 111.264 304.767 111.264C305.191 111.264 305.597 111.314 305.985 111.413C306.376 111.513 306.723 111.667 307.024 111.876C307.329 112.085 307.57 112.353 307.745 112.681C307.921 113.006 308.009 113.395 308.009 113.849V119H306V117.941H305.941C305.818 118.18 305.654 118.39 305.448 118.572C305.243 118.751 304.996 118.892 304.708 118.995C304.419 119.094 304.086 119.144 303.708 119.144ZM304.315 117.683C304.626 117.683 304.901 117.621 305.14 117.499C305.379 117.373 305.566 117.204 305.702 116.991C305.838 116.779 305.906 116.539 305.906 116.271V115.46C305.839 115.503 305.748 115.543 305.632 115.58C305.52 115.613 305.392 115.644 305.249 115.674C305.107 115.701 304.964 115.725 304.822 115.749C304.679 115.768 304.55 115.787 304.434 115.803C304.186 115.84 303.968 115.898 303.783 115.977C303.597 116.057 303.453 116.165 303.35 116.3C303.248 116.433 303.196 116.599 303.196 116.798C303.196 117.086 303.301 117.306 303.509 117.459C303.722 117.608 303.99 117.683 304.315 117.683ZM309.652 119V111.364H311.705V112.696H311.785C311.924 112.222 312.157 111.864 312.486 111.622C312.814 111.377 313.192 111.254 313.619 111.254C313.725 111.254 313.84 111.261 313.962 111.274C314.085 111.287 314.193 111.306 314.285 111.329V113.208C314.186 113.178 314.048 113.152 313.873 113.129C313.697 113.105 313.536 113.094 313.39 113.094C313.079 113.094 312.8 113.162 312.555 113.298C312.313 113.43 312.121 113.616 311.979 113.854C311.839 114.093 311.77 114.368 311.77 114.68V119H309.652ZM315.38 119V111.364H317.434V112.696H317.513C317.652 112.222 317.886 111.864 318.214 111.622C318.542 111.377 318.92 111.254 319.348 111.254C319.454 111.254 319.568 111.261 319.691 111.274C319.813 111.287 319.921 111.306 320.014 111.329V113.208C319.914 113.178 319.777 113.152 319.601 113.129C319.426 113.105 319.265 113.094 319.119 113.094C318.807 113.094 318.529 113.162 318.284 113.298C318.042 113.43 317.85 113.616 317.707 113.854C317.568 114.093 317.498 114.368 317.498 114.68V119H315.38ZM323.068 119.144C322.58 119.144 322.146 119.06 321.765 118.891C321.384 118.718 321.082 118.465 320.86 118.13C320.642 117.792 320.532 117.371 320.532 116.867C320.532 116.443 320.61 116.087 320.766 115.798C320.922 115.51 321.134 115.278 321.402 115.102C321.671 114.927 321.976 114.794 322.317 114.705C322.662 114.615 323.023 114.552 323.401 114.516C323.845 114.469 324.203 114.426 324.475 114.386C324.746 114.343 324.944 114.28 325.066 114.197C325.189 114.115 325.25 113.992 325.25 113.83V113.8C325.25 113.485 325.151 113.241 324.952 113.069C324.756 112.897 324.478 112.81 324.117 112.81C323.735 112.81 323.432 112.895 323.207 113.064C322.981 113.23 322.832 113.438 322.759 113.69L320.801 113.531C320.9 113.067 321.096 112.666 321.387 112.328C321.679 111.987 322.055 111.725 322.516 111.543C322.98 111.357 323.517 111.264 324.127 111.264C324.551 111.264 324.957 111.314 325.345 111.413C325.736 111.513 326.082 111.667 326.384 111.876C326.689 112.085 326.929 112.353 327.105 112.681C327.28 113.006 327.368 113.395 327.368 113.849V119H325.36V117.941H325.3C325.177 118.18 325.013 118.39 324.808 118.572C324.602 118.751 324.355 118.892 324.067 118.995C323.779 119.094 323.445 119.144 323.068 119.144ZM323.674 117.683C323.986 117.683 324.261 117.621 324.499 117.499C324.738 117.373 324.925 117.204 325.061 116.991C325.197 116.779 325.265 116.539 325.265 116.271V115.46C325.199 115.503 325.108 115.543 324.992 115.58C324.879 115.613 324.751 115.644 324.609 115.674C324.466 115.701 324.324 115.725 324.181 115.749C324.039 115.768 323.91 115.787 323.794 115.803C323.545 115.84 323.328 115.898 323.142 115.977C322.957 116.057 322.812 116.165 322.71 116.3C322.607 116.433 322.556 116.599 322.556 116.798C322.556 117.086 322.66 117.306 322.869 117.459C323.081 117.608 323.349 117.683 323.674 117.683ZM331.129 114.585V119H329.011V111.364H331.03V112.711H331.119C331.288 112.267 331.572 111.915 331.969 111.657C332.367 111.395 332.849 111.264 333.416 111.264C333.946 111.264 334.409 111.38 334.803 111.612C335.198 111.844 335.504 112.176 335.723 112.607C335.942 113.034 336.051 113.545 336.051 114.138V119H333.933V114.516C333.936 114.048 333.817 113.684 333.575 113.422C333.333 113.157 333 113.024 332.576 113.024C332.291 113.024 332.039 113.085 331.82 113.208C331.605 113.331 331.436 113.51 331.313 113.745C331.194 113.977 331.132 114.257 331.129 114.585ZM341.782 111.364V112.955H337.183V111.364H341.782ZM338.227 109.534H340.345V116.653C340.345 116.849 340.375 117.001 340.435 117.111C340.494 117.217 340.577 117.291 340.683 117.335C340.793 117.378 340.919 117.399 341.061 117.399C341.161 117.399 341.26 117.391 341.359 117.374C341.459 117.354 341.535 117.339 341.588 117.33L341.921 118.906C341.815 118.939 341.666 118.977 341.474 119.02C341.281 119.066 341.048 119.094 340.773 119.104C340.262 119.124 339.815 119.056 339.43 118.901C339.049 118.745 338.753 118.503 338.54 118.175C338.328 117.847 338.224 117.432 338.227 116.932V109.534ZM344.469 121.864C344.201 121.864 343.949 121.842 343.713 121.799C343.481 121.759 343.289 121.708 343.137 121.645L343.614 120.064C343.863 120.14 344.086 120.182 344.285 120.188C344.487 120.195 344.661 120.148 344.807 120.049C344.956 119.95 345.077 119.781 345.17 119.542L345.294 119.219L342.555 111.364H344.782L346.363 116.972H346.443L348.039 111.364H350.281L347.313 119.825C347.17 120.236 346.976 120.594 346.731 120.899C346.489 121.207 346.183 121.444 345.811 121.61C345.44 121.779 344.993 121.864 344.469 121.864ZM356.484 108.818L358.945 116.554H359.04L361.506 108.818H363.892L360.382 119H357.608L354.093 108.818H356.484ZM366.407 119.144C365.92 119.144 365.486 119.06 365.105 118.891C364.724 118.718 364.422 118.465 364.2 118.13C363.981 117.792 363.872 117.371 363.872 116.867C363.872 116.443 363.95 116.087 364.106 115.798C364.261 115.51 364.474 115.278 364.742 115.102C365.01 114.927 365.315 114.794 365.657 114.705C366.001 114.615 366.363 114.552 366.741 114.516C367.185 114.469 367.543 114.426 367.814 114.386C368.086 114.343 368.283 114.28 368.406 114.197C368.529 114.115 368.59 113.992 368.59 113.83V113.8C368.59 113.485 368.491 113.241 368.292 113.069C368.096 112.897 367.818 112.81 367.456 112.81C367.075 112.81 366.772 112.895 366.547 113.064C366.321 113.23 366.172 113.438 366.099 113.69L364.14 113.531C364.24 113.067 364.435 112.666 364.727 112.328C365.019 111.987 365.395 111.725 365.856 111.543C366.32 111.357 366.857 111.264 367.466 111.264C367.891 111.264 368.297 111.314 368.684 111.413C369.076 111.513 369.422 111.667 369.724 111.876C370.028 112.085 370.269 112.353 370.444 112.681C370.62 113.006 370.708 113.395 370.708 113.849V119H368.699V117.941H368.64C368.517 118.18 368.353 118.39 368.148 118.572C367.942 118.751 367.695 118.892 367.407 118.995C367.118 119.094 366.785 119.144 366.407 119.144ZM367.014 117.683C367.326 117.683 367.601 117.621 367.839 117.499C368.078 117.373 368.265 117.204 368.401 116.991C368.537 116.779 368.605 116.539 368.605 116.271V115.46C368.539 115.503 368.448 115.543 368.331 115.58C368.219 115.613 368.091 115.644 367.949 115.674C367.806 115.701 367.664 115.725 367.521 115.749C367.379 115.768 367.249 115.787 367.133 115.803C366.885 115.84 366.668 115.898 366.482 115.977C366.296 116.057 366.152 116.165 366.05 116.3C365.947 116.433 365.895 116.599 365.895 116.798C365.895 117.086 366 117.306 366.209 117.459C366.421 117.608 366.689 117.683 367.014 117.683ZM377.248 115.749V111.364H379.366V119H377.333V117.613H377.253C377.081 118.06 376.794 118.42 376.393 118.692C375.995 118.964 375.51 119.099 374.936 119.099C374.426 119.099 373.977 118.983 373.589 118.751C373.201 118.519 372.898 118.19 372.679 117.762C372.464 117.335 372.354 116.822 372.351 116.226V111.364H374.469V115.848C374.472 116.299 374.593 116.655 374.832 116.917C375.07 117.179 375.39 117.31 375.791 117.31C376.047 117.31 376.285 117.252 376.507 117.136C376.729 117.016 376.908 116.841 377.044 116.609C377.183 116.377 377.251 116.09 377.248 115.749ZM383.178 108.818V119H381.06V108.818H383.178ZM388.936 111.364V112.955H384.338V111.364H388.936ZM385.382 109.534H387.499V116.653C387.499 116.849 387.529 117.001 387.589 117.111C387.649 117.217 387.731 117.291 387.838 117.335C387.947 117.378 388.073 117.399 388.215 117.399C388.315 117.399 388.414 117.391 388.514 117.374C388.613 117.354 388.689 117.339 388.742 117.33L389.075 118.906C388.969 118.939 388.82 118.977 388.628 119.02C388.436 119.066 388.202 119.094 387.927 119.104C387.417 119.124 386.969 119.056 386.585 118.901C386.204 118.745 385.907 118.503 385.695 118.175C385.483 117.847 385.378 117.432 385.382 116.932V109.534Z" fill="black"/>
<path d="M297.459 155.328H295.592C295.558 155.087 295.489 154.872 295.384 154.685C295.278 154.494 295.143 154.332 294.979 154.199C294.814 154.065 294.624 153.963 294.408 153.892C294.195 153.821 293.963 153.786 293.713 153.786C293.261 153.786 292.868 153.898 292.533 154.122C292.197 154.344 291.938 154.668 291.753 155.094C291.568 155.517 291.476 156.031 291.476 156.636C291.476 157.259 291.568 157.781 291.753 158.205C291.94 158.628 292.202 158.947 292.537 159.163C292.872 159.379 293.26 159.487 293.7 159.487C293.947 159.487 294.176 159.455 294.386 159.389C294.599 159.324 294.788 159.229 294.953 159.104C295.118 158.976 295.254 158.821 295.362 158.639C295.473 158.457 295.55 158.25 295.592 158.017L297.459 158.026C297.411 158.426 297.29 158.812 297.097 159.185C296.906 159.554 296.649 159.885 296.325 160.178C296.004 160.467 295.621 160.697 295.175 160.868C294.732 161.036 294.23 161.119 293.67 161.119C292.892 161.119 292.196 160.943 291.582 160.591C290.972 160.239 290.489 159.729 290.134 159.061C289.781 158.393 289.605 157.585 289.605 156.636C289.605 155.685 289.784 154.875 290.142 154.207C290.5 153.54 290.986 153.031 291.599 152.682C292.213 152.33 292.903 152.153 293.67 152.153C294.176 152.153 294.645 152.224 295.077 152.366C295.511 152.509 295.896 152.716 296.232 152.989C296.567 153.259 296.839 153.589 297.05 153.982C297.263 154.374 297.399 154.822 297.459 155.328ZM298.748 161V154.455H300.508V155.597H300.576C300.695 155.19 300.896 154.884 301.177 154.676C301.458 154.466 301.782 154.361 302.148 154.361C302.239 154.361 302.337 154.366 302.442 154.378C302.548 154.389 302.64 154.405 302.719 154.425V156.036C302.634 156.01 302.516 155.987 302.366 155.967C302.215 155.947 302.077 155.938 301.952 155.938C301.685 155.938 301.447 155.996 301.237 156.112C301.029 156.226 300.864 156.385 300.742 156.589C300.623 156.794 300.563 157.03 300.563 157.297V161H298.748ZM306.336 161.128C305.663 161.128 305.083 160.991 304.598 160.719C304.115 160.443 303.743 160.054 303.481 159.551C303.22 159.045 303.089 158.447 303.089 157.757C303.089 157.084 303.22 156.493 303.481 155.984C303.743 155.476 304.11 155.08 304.585 154.795C305.062 154.511 305.622 154.369 306.264 154.369C306.696 154.369 307.098 154.439 307.47 154.578C307.845 154.714 308.172 154.92 308.45 155.196C308.731 155.472 308.95 155.818 309.106 156.236C309.262 156.651 309.341 157.136 309.341 157.693V158.192H303.814V157.067H307.632C307.632 156.805 307.575 156.574 307.461 156.372C307.348 156.17 307.19 156.013 306.988 155.899C306.789 155.783 306.558 155.724 306.294 155.724C306.018 155.724 305.774 155.788 305.561 155.916C305.35 156.041 305.186 156.21 305.066 156.423C304.947 156.634 304.886 156.868 304.883 157.126V158.196C304.883 158.52 304.943 158.8 305.062 159.036C305.184 159.271 305.356 159.453 305.578 159.581C305.799 159.709 306.062 159.773 306.366 159.773C306.568 159.773 306.752 159.744 306.92 159.688C307.088 159.631 307.231 159.545 307.35 159.432C307.47 159.318 307.561 159.179 307.623 159.014L309.302 159.125C309.217 159.528 309.042 159.881 308.778 160.182C308.517 160.48 308.179 160.713 307.764 160.881C307.352 161.045 306.876 161.128 306.336 161.128ZM312.392 161.124C311.974 161.124 311.602 161.051 311.275 160.906C310.949 160.759 310.69 160.541 310.5 160.254C310.312 159.964 310.218 159.604 310.218 159.172C310.218 158.808 310.285 158.503 310.419 158.256C310.552 158.009 310.734 157.81 310.964 157.659C311.194 157.509 311.456 157.395 311.748 157.318C312.044 157.241 312.353 157.188 312.677 157.156C313.058 157.116 313.365 157.08 313.598 157.045C313.831 157.009 314 156.955 314.105 156.884C314.21 156.812 314.262 156.707 314.262 156.568V156.543C314.262 156.273 314.177 156.064 314.007 155.916C313.839 155.768 313.6 155.695 313.291 155.695C312.964 155.695 312.704 155.767 312.511 155.912C312.318 156.054 312.19 156.233 312.127 156.449L310.449 156.312C310.534 155.915 310.701 155.571 310.951 155.281C311.201 154.989 311.524 154.764 311.919 154.608C312.316 154.449 312.777 154.369 313.299 154.369C313.663 154.369 314.011 154.412 314.343 154.497C314.679 154.582 314.975 154.714 315.234 154.893C315.495 155.072 315.701 155.303 315.852 155.584C316.002 155.862 316.078 156.196 316.078 156.585V161H314.356V160.092H314.305C314.2 160.297 314.059 160.477 313.883 160.634C313.707 160.787 313.495 160.908 313.248 160.996C313.001 161.081 312.716 161.124 312.392 161.124ZM312.912 159.871C313.179 159.871 313.414 159.818 313.619 159.713C313.824 159.605 313.984 159.46 314.1 159.278C314.217 159.097 314.275 158.891 314.275 158.661V157.966C314.218 158.003 314.14 158.037 314.041 158.068C313.944 158.097 313.835 158.124 313.713 158.149C313.591 158.172 313.468 158.193 313.346 158.213C313.224 158.23 313.113 158.246 313.014 158.26C312.801 158.291 312.615 158.341 312.456 158.409C312.297 158.477 312.173 158.57 312.085 158.686C311.997 158.8 311.953 158.942 311.953 159.112C311.953 159.359 312.042 159.548 312.221 159.679C312.403 159.807 312.633 159.871 312.912 159.871ZM320.968 154.455V155.818H317.026V154.455H320.968ZM317.921 152.886H319.736V158.989C319.736 159.156 319.762 159.287 319.813 159.381C319.864 159.472 319.935 159.536 320.026 159.572C320.12 159.609 320.228 159.628 320.35 159.628C320.435 159.628 320.52 159.621 320.605 159.607C320.691 159.589 320.756 159.577 320.801 159.568L321.087 160.919C320.996 160.947 320.868 160.98 320.703 161.017C320.539 161.057 320.338 161.081 320.103 161.089C319.665 161.107 319.282 161.048 318.952 160.915C318.625 160.781 318.371 160.574 318.189 160.293C318.007 160.011 317.918 159.656 317.921 159.227V152.886ZM325.063 161.128C324.39 161.128 323.81 160.991 323.324 160.719C322.841 160.443 322.469 160.054 322.208 159.551C321.946 159.045 321.816 158.447 321.816 157.757C321.816 157.084 321.946 156.493 322.208 155.984C322.469 155.476 322.837 155.08 323.311 154.795C323.789 154.511 324.348 154.369 324.99 154.369C325.422 154.369 325.824 154.439 326.196 154.578C326.571 154.714 326.898 154.92 327.176 155.196C327.458 155.472 327.676 155.818 327.833 156.236C327.989 156.651 328.067 157.136 328.067 157.693V158.192H322.54V157.067H326.358C326.358 156.805 326.301 156.574 326.188 156.372C326.074 156.17 325.917 156.013 325.715 155.899C325.516 155.783 325.284 155.724 325.02 155.724C324.745 155.724 324.5 155.788 324.287 155.916C324.077 156.041 323.912 156.21 323.793 156.423C323.674 156.634 323.613 156.868 323.61 157.126V158.196C323.61 158.52 323.669 158.8 323.789 159.036C323.911 159.271 324.083 159.453 324.304 159.581C324.526 159.709 324.789 159.773 325.093 159.773C325.294 159.773 325.479 159.744 325.647 159.688C325.814 159.631 325.958 159.545 326.077 159.432C326.196 159.318 326.287 159.179 326.35 159.014L328.029 159.125C327.944 159.528 327.769 159.881 327.505 160.182C327.243 160.48 326.905 160.713 326.49 160.881C326.078 161.045 325.603 161.128 325.063 161.128ZM333.567 161H331.59L334.603 152.273H336.981L339.989 161H338.012L335.826 154.267H335.758L333.567 161ZM333.444 157.57H338.114V159.01H333.444V157.57ZM343.658 161.128C342.988 161.128 342.411 160.986 341.928 160.702C341.448 160.415 341.079 160.017 340.82 159.509C340.565 159 340.437 158.415 340.437 157.753C340.437 157.082 340.566 156.494 340.825 155.989C341.086 155.48 341.457 155.084 341.937 154.8C342.417 154.513 342.988 154.369 343.65 154.369C344.221 154.369 344.721 154.473 345.15 154.68C345.579 154.888 345.918 155.179 346.168 155.554C346.418 155.929 346.556 156.369 346.582 156.875H344.869C344.82 156.548 344.692 156.286 344.485 156.087C344.281 155.885 344.012 155.784 343.68 155.784C343.398 155.784 343.153 155.861 342.942 156.014C342.735 156.165 342.573 156.385 342.457 156.675C342.34 156.964 342.282 157.315 342.282 157.727C342.282 158.145 342.339 158.5 342.452 158.793C342.569 159.085 342.732 159.308 342.942 159.462C343.153 159.615 343.398 159.692 343.68 159.692C343.887 159.692 344.073 159.649 344.238 159.564C344.406 159.479 344.543 159.355 344.651 159.193C344.762 159.028 344.835 158.831 344.869 158.601H346.582C346.553 159.101 346.417 159.541 346.173 159.922C345.931 160.3 345.597 160.595 345.171 160.808C344.745 161.021 344.241 161.128 343.658 161.128ZM350.701 161.128C350.031 161.128 349.454 160.986 348.971 160.702C348.491 160.415 348.122 160.017 347.863 159.509C347.608 159 347.48 158.415 347.48 157.753C347.48 157.082 347.609 156.494 347.868 155.989C348.129 155.48 348.5 155.084 348.98 154.8C349.46 154.513 350.031 154.369 350.693 154.369C351.264 154.369 351.764 154.473 352.193 154.68C352.622 154.888 352.961 155.179 353.211 155.554C353.461 155.929 353.599 156.369 353.625 156.875H351.912C351.863 156.548 351.735 156.286 351.528 156.087C351.324 155.885 351.055 155.784 350.723 155.784C350.441 155.784 350.196 155.861 349.985 156.014C349.778 156.165 349.616 156.385 349.5 156.675C349.383 156.964 349.325 157.315 349.325 157.727C349.325 158.145 349.382 158.5 349.495 158.793C349.612 159.085 349.775 159.308 349.985 159.462C350.196 159.615 350.441 159.692 350.723 159.692C350.93 159.692 351.116 159.649 351.281 159.564C351.449 159.479 351.586 159.355 351.694 159.193C351.805 159.028 351.877 158.831 351.912 158.601H353.625C353.596 159.101 353.46 159.541 353.216 159.922C352.974 160.3 352.64 160.595 352.214 160.808C351.788 161.021 351.284 161.128 350.701 161.128ZM357.744 161.128C357.082 161.128 356.51 160.987 356.027 160.706C355.547 160.422 355.176 160.027 354.915 159.521C354.653 159.013 354.523 158.423 354.523 157.753C354.523 157.077 354.653 156.486 354.915 155.98C355.176 155.472 355.547 155.077 356.027 154.795C356.51 154.511 357.082 154.369 357.744 154.369C358.406 154.369 358.977 154.511 359.457 154.795C359.94 155.077 360.312 155.472 360.574 155.98C360.835 156.486 360.966 157.077 360.966 157.753C360.966 158.423 360.835 159.013 360.574 159.521C360.312 160.027 359.94 160.422 359.457 160.706C358.977 160.987 358.406 161.128 357.744 161.128ZM357.753 159.722C358.054 159.722 358.305 159.636 358.507 159.466C358.709 159.293 358.861 159.057 358.963 158.759C359.068 158.46 359.121 158.121 359.121 157.74C359.121 157.359 359.068 157.02 358.963 156.722C358.861 156.423 358.709 156.187 358.507 156.014C358.305 155.841 358.054 155.754 357.753 155.754C357.449 155.754 357.193 155.841 356.986 156.014C356.781 156.187 356.626 156.423 356.521 156.722C356.419 157.02 356.368 157.359 356.368 157.74C356.368 158.121 356.419 158.46 356.521 158.759C356.626 159.057 356.781 159.293 356.986 159.466C357.193 159.636 357.449 159.722 357.753 159.722ZM366.344 158.213V154.455H368.159V161H366.416V159.811H366.348C366.2 160.195 365.955 160.503 365.611 160.736C365.27 160.969 364.854 161.085 364.362 161.085C363.925 161.085 363.54 160.986 363.207 160.787C362.875 160.588 362.615 160.305 362.428 159.939C362.243 159.572 362.149 159.134 362.146 158.622V154.455H363.962V158.298C363.964 158.685 364.068 158.99 364.273 159.214C364.477 159.439 364.751 159.551 365.095 159.551C365.314 159.551 365.518 159.501 365.709 159.402C365.899 159.3 366.053 159.149 366.169 158.95C366.288 158.751 366.347 158.506 366.344 158.213ZM371.426 157.216V161H369.611V154.455H371.341V155.609H371.418C371.563 155.229 371.806 154.928 372.147 154.706C372.488 154.482 372.901 154.369 373.387 154.369C373.841 154.369 374.238 154.469 374.576 154.668C374.914 154.866 375.176 155.151 375.364 155.52C375.551 155.886 375.645 156.324 375.645 156.832V161H373.83V157.156C373.833 156.756 373.73 156.443 373.523 156.219C373.316 155.991 373.03 155.878 372.667 155.878C372.422 155.878 372.206 155.93 372.019 156.036C371.834 156.141 371.689 156.294 371.584 156.496C371.482 156.695 371.429 156.935 371.426 157.216ZM380.558 154.455V155.818H376.616V154.455H380.558ZM377.511 152.886H379.326V158.989C379.326 159.156 379.352 159.287 379.403 159.381C379.454 159.472 379.525 159.536 379.616 159.572C379.71 159.609 379.817 159.628 379.94 159.628C380.025 159.628 380.11 159.621 380.195 159.607C380.281 159.589 380.346 159.577 380.391 159.568L380.677 160.919C380.586 160.947 380.458 160.98 380.293 161.017C380.129 161.057 379.928 161.081 379.692 161.089C379.255 161.107 378.871 161.048 378.542 160.915C378.215 160.781 377.961 160.574 377.779 160.293C377.597 160.011 377.508 159.656 377.511 159.227V152.886Z" fill="black"/>
</g>
<path d="M267 101.305L256.011 107.642V120.358L267 126.695L274.17 122.572L272.383 120.541L267 123.648L258.652 118.814V109.186L267 104.352L272.342 107.439L274.272 105.509L267 101.305Z" fill="#3FA9F5"/>
<path d="M278.172 119.139V108.312H275.328V115.828L271.936 111.867L269.844 111.786L265.578 116.173V108.516H262.734V118.895L265.253 120.602L270.798 114.894L275.653 120.581L278.172 119.139Z" fill="#3FA9F5"/>
<defs>
<linearGradient id="paint0_linear_42_10" x1="262.5" y1="291" x2="262.5" y2="253" gradientUnits="userSpaceOnUse">
<stop stop-color="#F8F9FD"/>
<stop offset="1" stop-color="#F8F9FD" stop-opacity="0"/>
</linearGradient>
<linearGradient id="paint1_linear_42_10" x1="569" y1="312" x2="569" y2="273" gradientUnits="userSpaceOnUse">
<stop stop-color="#F8F9FD"/>
<stop offset="1" stop-color="#F8F9FD" stop-opacity="0"/>
</linearGradient>
</defs>
</svg>
