<svg width="480" height="277" viewBox="0 0 480 277" fill="none" xmlns="http://www.w3.org/2000/svg">
<rect width="480" height="277" rx="29" fill="#F8F9FD"/>
<mask id="mask0_43_46" style="mask-type:alpha" maskUnits="userSpaceOnUse" x="0" y="0" width="480" height="277">
<rect width="480" height="277" rx="29" fill="#F8F9FD"/>
</mask>
<g mask="url(#mask0_43_46)">
<path d="M300 234L194 181L88 234L194 287L300 234Z" fill="#4D4D4D"/>
<path d="M300 234L194 181V75L300 128V234Z" fill="#D4D9EA"/>
<path d="M194 181L88 234V128L194 75V181Z" fill="#D4D9EA"/>
<path d="M194 287L88 234V128L194 181V287Z" fill="#E2E5EF"/>
<path d="M194 287L300 234V128L194 181V287Z" fill="#E8EBF8"/>
<path fill-rule="evenodd" clip-rule="evenodd" d="M300 128L194 181L153.444 160.722L256.614 106.307L300 128ZM130.346 149.173L232.746 94.3732L194 75L88 128L130.346 149.173Z" fill="#F0F2F8"/>
<path d="M153.444 160.722L130.346 149.173V189.719L153.444 201.268V160.722Z" fill="#D6D9E2"/>
<path d="M232.746 94.3732L130.346 149.173L153.444 160.722L256.614 106.307L232.746 94.3732Z" fill="#E0E4F1"/>
<circle cx="22" cy="22" r="22" transform="matrix(0.896873 -0.442289 0 1 228 190)" fill="#F8F9FD"/>
<path d="M248.095 189.09L237.866 200.874V214.396L248.095 216.09L254.769 208.414L253.105 207.075L248.095 212.85L240.324 211.542V201.303L248.095 192.33L253.067 193.161L254.863 190.224L248.095 189.09Z" fill="#3FA9F5"/>
<path d="M258.494 202.927V191.414L255.847 192.72V200.712L252.689 198.057L250.742 198.931L246.771 205.554V197.411L244.124 198.716V209.754L246.469 210.412L251.63 201.797L256.149 205.617L258.494 202.927Z" fill="#3FA9F5"/>
<rect x="339" y="62" width="82.8621" height="81" fill="white"/>
<path d="M374.547 121.633C374.602 122.453 374.656 123.273 374.656 124.148C372.852 124.148 371.211 124.148 369.461 124.148C369.461 122.453 369.461 120.758 369.461 119.008C370.281 119.008 371.102 119.008 371.977 119.008C371.977 118.133 371.977 117.313 371.977 116.383C371.156 116.383 370.336 116.383 369.406 116.383C369.406 115.453 369.406 114.633 369.406 113.758C370.227 113.758 371.102 113.758 371.977 113.758C371.977 112.883 371.977 112.063 371.977 111.188C371.102 111.188 370.281 111.188 369.406 111.188C369.406 112.063 369.406 112.883 369.406 113.758C366.836 113.758 364.266 113.758 361.586 113.758C361.586 112.008 361.586 110.313 361.586 108.563C359.016 108.563 356.445 108.563 353.875 108.563C353.875 107.688 353.875 106.867 353.875 105.937C354.695 105.937 355.516 105.937 356.391 105.937C356.391 105.062 356.391 104.242 356.391 103.367C357.266 103.367 358.086 103.367 358.961 103.367C358.961 104.188 358.961 105.062 358.961 105.937C361.586 105.937 364.156 105.937 366.727 105.937C366.727 106.812 366.727 107.633 366.727 108.508C367.602 108.508 368.422 108.508 369.297 108.508C369.297 107.688 369.297 106.867 369.297 105.937C371.047 105.937 372.742 105.937 374.438 105.937C374.438 106.156 374.492 106.375 374.492 106.648C374.492 108.781 374.492 110.969 374.492 113.102C374.492 113.32 374.492 113.539 374.492 113.758C375.367 113.758 376.188 113.758 377.117 113.758C377.117 113.32 377.117 112.883 377.117 112.445C377.117 110.258 377.117 108.125 377.172 105.937C377.992 105.937 378.867 105.937 379.687 105.937C379.687 105.062 379.687 104.242 379.687 103.367C378.812 103.367 377.992 103.367 377.172 103.367C377.172 102.547 377.172 101.727 377.172 100.797C377.992 100.797 378.812 100.797 379.687 100.797C379.687 99.9219 379.687 99.1016 379.687 98.2266C380.617 98.2266 381.438 98.2266 382.312 98.2266C382.312 99.9219 382.312 101.617 382.312 103.367C383.242 103.367 384.062 103.367 384.883 103.367C384.883 104.242 384.883 105.062 384.883 105.937C384.062 105.937 383.188 105.937 382.312 105.937C382.312 106.867 382.312 107.688 382.312 108.563C381.438 108.563 380.617 108.563 379.797 108.563C379.797 110.313 379.797 112.008 379.797 113.758C381.547 113.758 383.187 113.758 384.883 113.758C384.883 114.633 384.883 115.453 384.883 116.328C383.187 116.328 381.492 116.328 379.797 116.328C379.797 119.008 379.797 121.578 379.797 124.148C381.547 124.148 383.187 124.148 384.883 124.148C384.883 124.969 384.883 125.789 384.883 126.719C385.812 126.719 386.633 126.719 387.508 126.719C387.508 127.594 387.508 128.414 387.508 129.289C385.812 129.289 384.117 129.289 382.367 129.289C382.367 130.164 382.367 131.039 382.367 131.859C381.438 131.859 380.617 131.859 379.797 131.859C379.797 130.984 379.797 130.219 379.797 129.289C379.578 129.289 379.359 129.289 379.141 129.289C376.953 129.289 374.766 129.289 372.633 129.289C372.414 129.289 372.195 129.234 371.922 129.234C371.922 128.414 371.922 127.594 371.922 126.719C373.727 126.719 375.422 126.719 377.117 126.719C377.117 124.969 377.117 123.273 377.117 121.633C376.297 121.633 375.422 121.633 374.547 121.633C374.602 120.758 374.602 119.883 374.656 119.008C373.727 119.008 372.906 119.008 372.086 119.008C372.086 119.883 372.086 120.703 372.086 121.633C372.906 121.633 373.727 121.633 374.547 121.633ZM366.836 111.188C366.836 110.313 366.836 109.492 366.836 108.672C365.961 108.672 365.141 108.672 364.32 108.672C364.32 109.547 364.32 110.367 364.32 111.188C365.141 111.188 365.961 111.188 366.836 111.188Z" fill="black"/>
<path d="M403.203 124.148C401.508 124.148 399.758 124.148 398.008 124.148C398.008 125.023 398.008 125.844 398.008 126.719C398.828 126.719 399.703 126.719 400.523 126.719C400.523 127.594 400.523 128.414 400.523 129.289C399.703 129.289 398.883 129.289 397.953 129.289C397.953 131.039 397.953 132.734 397.953 134.484C397.078 134.484 396.203 134.484 395.328 134.484C395.328 132.789 395.328 131.094 395.328 129.344C393.578 129.344 391.938 129.344 390.188 129.344C390.188 128.469 390.188 127.648 390.188 126.773C391.008 126.773 391.828 126.773 392.703 126.773C392.703 125.898 392.703 125.078 392.703 124.203C391.883 124.203 391.063 124.203 390.188 124.203C390.188 123.328 390.188 122.508 390.188 121.688C389.313 121.688 388.492 121.688 387.617 121.688C387.617 122.508 387.617 123.328 387.617 124.203C386.688 124.203 385.812 124.203 384.938 124.203C384.938 121.578 384.938 119.008 384.938 116.383C385.812 116.383 386.688 116.383 387.617 116.383C387.617 117.313 387.617 118.133 387.617 118.953C388.492 118.953 389.312 118.953 390.133 118.953C390.133 117.203 390.133 115.562 390.133 113.812C388.383 113.812 386.633 113.812 384.938 113.812C384.938 112.992 384.938 112.117 384.938 111.188C390.187 111.188 395.328 111.188 400.469 111.188C400.469 110.313 400.469 109.492 400.469 108.563C399.594 108.563 398.773 108.563 397.953 108.563C397.953 107.688 397.953 106.867 397.953 105.938C398.828 105.938 399.703 105.938 400.578 105.938C400.578 106.812 400.578 107.688 400.578 108.508C401.453 108.508 402.273 108.508 403.148 108.508C403.148 107.633 403.148 106.758 403.148 105.938C403.969 105.938 404.789 105.938 405.719 105.938C405.719 106.812 405.719 107.633 405.719 108.563C406.594 108.563 407.414 108.563 408.344 108.563C408.344 109.438 408.344 110.258 408.344 111.133C409.219 111.133 410.039 111.133 410.969 111.133C410.969 110.312 410.969 109.492 410.969 108.617C411.844 108.617 412.664 108.617 413.539 108.617C413.539 110.313 413.539 112.008 413.539 113.758C412.719 113.758 411.898 113.758 410.969 113.758C410.969 114.633 410.969 115.453 410.969 116.328C410.039 116.328 409.164 116.328 408.289 116.328C408.289 115.508 408.289 114.633 408.289 113.758C407.414 113.758 406.594 113.758 405.719 113.758C405.719 112.008 405.719 110.313 405.719 108.617C404.844 108.617 404.023 108.617 403.148 108.617C403.148 113.867 403.148 119.008 403.203 124.148ZM392.812 113.812C392.812 116.383 392.812 118.953 392.812 121.523C395.383 121.523 397.953 121.523 400.523 121.523C400.523 118.953 400.523 116.383 400.523 113.812C397.953 113.812 395.383 113.812 392.812 113.812Z" fill="black"/>
<path d="M348.734 69.7344C354.75 69.7344 360.766 69.7344 366.836 69.7344C366.836 75.75 366.836 81.7656 366.836 87.8359C360.82 87.8359 354.805 87.8359 348.734 87.8359C348.734 81.8203 348.734 75.8047 348.734 69.7344ZM351.305 85.2109C355.625 85.2109 359.891 85.2109 364.211 85.2109C364.211 80.8906 364.211 76.625 364.211 72.3594C359.891 72.3594 355.625 72.3594 351.305 72.3594C351.305 76.625 351.305 80.8906 351.305 85.2109Z" fill="black"/>
<path d="M395.383 69.7344C401.398 69.7344 407.414 69.7344 413.484 69.7344C413.484 75.75 413.484 81.7656 413.484 87.8359C407.469 87.8359 401.453 87.8359 395.383 87.8359C395.383 81.8203 395.383 75.8047 395.383 69.7344ZM398.008 72.3594C398.008 76.6797 398.008 80.9453 398.008 85.2109C402.328 85.2109 406.594 85.2109 410.859 85.2109C410.859 80.8906 410.859 76.625 410.859 72.3594C406.539 72.3594 402.273 72.3594 398.008 72.3594Z" fill="black"/>
<path d="M348.734 116.383C354.75 116.383 360.766 116.383 366.836 116.383C366.836 122.398 366.836 128.414 366.836 134.484C360.82 134.484 354.805 134.484 348.734 134.484C348.734 128.469 348.734 122.453 348.734 116.383ZM351.359 119.008C351.359 123.328 351.359 127.594 351.359 131.859C355.68 131.859 359.945 131.859 364.266 131.859C364.266 127.539 364.266 123.273 364.266 119.008C359.891 119.008 355.625 119.008 351.359 119.008Z" fill="black"/>
<path d="M384.992 93.0312C384.992 92.2109 384.992 91.3906 384.992 90.5156C386.742 90.5156 388.438 90.5156 390.188 90.5156C390.188 91.3359 390.188 92.1562 390.188 93.0312C391.062 93.0312 391.883 93.0312 392.758 93.0312C392.758 93.9062 392.758 94.7266 392.758 95.6563C393.633 95.6563 394.453 95.6563 395.328 95.6563C395.328 96.5313 395.328 97.3516 395.328 98.2266C394.453 98.2812 393.578 98.2812 392.758 98.3359C392.758 97.4609 392.758 96.5859 392.758 95.7109C391.883 95.7109 391.062 95.7109 390.242 95.7109C390.242 96.5859 390.242 97.4062 390.242 98.3359C391.117 98.3359 391.937 98.3359 392.758 98.3359C392.758 99.1562 392.812 100.031 392.812 100.852C391.937 100.852 391.117 100.852 390.242 100.852C390.242 101.727 390.242 102.547 390.242 103.367C391.117 103.367 391.937 103.367 392.758 103.367C392.758 102.492 392.758 101.672 392.758 100.852C394.453 100.852 396.203 100.852 397.898 100.852C397.898 101.672 397.898 102.547 397.898 103.422C397.078 103.422 396.203 103.422 395.328 103.422C395.328 104.297 395.328 105.117 395.328 105.992C394.453 105.992 393.633 105.992 392.758 105.992C392.758 106.867 392.758 107.688 392.758 108.508C390.133 108.508 387.617 108.508 384.992 108.508C384.992 107.633 384.992 106.758 384.992 105.937C385.867 105.937 386.742 105.937 387.617 105.937C387.617 105.062 387.617 104.242 387.617 103.367C386.742 103.367 385.867 103.367 384.992 103.367C384.992 101.672 384.992 99.9219 384.992 98.2266C385.867 98.2266 386.742 98.2266 387.617 98.2266C387.617 96.4219 387.617 94.7266 387.617 92.9766C386.633 93.0312 385.812 93.0312 384.992 93.0312Z" fill="black"/>
<path d="M405.719 129.289C404.898 129.289 404.078 129.289 403.203 129.289C403.203 127.594 403.203 125.898 403.203 124.203C404.078 124.203 404.898 124.203 405.828 124.203C405.828 121.578 405.828 119.008 405.828 116.383C406.703 116.383 407.523 116.383 408.398 116.383C408.398 117.094 408.453 117.805 408.453 118.461C408.453 118.898 408.617 119.008 409 119.008C410.312 119.008 411.625 119.008 412.938 119.008C413.156 119.008 413.375 119.008 413.594 119.008C413.594 119.883 413.594 120.703 413.594 121.578C411.898 121.578 410.203 121.578 408.453 121.578C408.453 122.453 408.453 123.273 408.453 124.148C410.148 124.148 411.844 124.148 413.594 124.148C413.594 125.023 413.594 125.844 413.594 126.719C412.773 126.719 411.953 126.719 411.078 126.719C411.078 128.469 411.078 130.164 411.078 131.914C411.898 131.914 412.719 131.914 413.594 131.914C413.594 132.789 413.594 133.609 413.594 134.484C409.328 134.484 405.062 134.484 400.742 134.484C400.742 133.664 400.742 132.844 400.742 131.914C402.438 131.914 404.078 131.914 405.828 131.914C405.664 130.984 405.664 130.109 405.719 129.289C406.594 129.289 407.414 129.289 408.344 129.289C408.344 128.469 408.344 127.648 408.344 126.828C407.469 126.828 406.648 126.828 405.719 126.828C405.719 127.648 405.719 128.469 405.719 129.289Z" fill="black"/>
<path d="M379.852 87.9453C379.852 88.7656 379.852 89.6406 379.852 90.4609C378.977 90.4609 378.156 90.4609 377.227 90.4609C377.227 91.3359 377.227 92.2109 377.227 93.0312C376.352 93.0312 375.531 93.0312 374.602 93.0312C374.602 90.4609 374.602 87.9453 374.602 85.3203C373.727 85.3203 372.906 85.3203 372.031 85.3203C372.031 86.1406 372.031 86.9609 372.031 87.8359C371.156 87.8359 370.336 87.8359 369.461 87.8359C369.461 86.1406 369.461 84.4453 369.461 82.6953C370.281 82.6953 371.102 82.6953 371.977 82.6953C371.977 81.8203 371.977 81 371.977 80.125C371.156 80.125 370.336 80.125 369.461 80.125C369.461 76.625 369.461 73.2344 369.461 69.7891C370.281 69.7891 371.102 69.7891 371.977 69.7891C371.977 71.4844 371.977 73.1797 371.977 74.9844C372.852 74.9844 373.672 74.9844 374.602 74.9844C374.602 75.8594 374.602 76.6797 374.602 77.6094C375.477 77.6094 376.297 77.6094 377.227 77.6094C377.227 81.0547 377.227 84.5 377.227 87.9453C378.156 87.8359 379.031 87.8906 379.852 87.9453Z" fill="black"/>
<path d="M384.937 77.5547C384.937 78.2656 384.992 79.0312 384.992 79.7422C384.992 80.7266 384.937 81.7109 384.937 82.6953C383.242 82.6953 381.547 82.6953 379.797 82.6953C379.797 80.125 379.797 77.6094 379.797 74.9844C378.922 74.9844 378.102 74.9844 377.227 74.9844C377.227 74.1094 377.227 73.2891 377.227 72.3594C378.922 72.3594 380.617 72.3594 382.367 72.3594C382.367 71.4844 382.367 70.6641 382.367 69.7891C383.242 69.7891 384.062 69.7891 384.937 69.7891C384.937 70.6094 384.937 71.4297 384.937 72.3047C385.812 72.3047 386.633 72.3047 387.563 72.3047C387.563 71.4844 387.563 70.6641 387.563 69.7891C388.438 69.7891 389.258 69.7891 390.188 69.7891C390.188 70.6641 390.188 71.4844 390.188 72.3594C391.063 72.3594 391.883 72.3594 392.758 72.3594C392.758 73.2344 392.758 74.0547 392.758 74.9297C391.938 74.9297 391.117 74.9297 390.242 74.9297C390.242 74.1094 390.242 73.2891 390.242 72.4141C389.367 72.4141 388.547 72.4141 387.617 72.4141C387.617 74.1094 387.617 75.8047 387.617 77.6094C386.688 77.5547 385.812 77.5547 384.937 77.5547C384.937 76.6797 384.937 75.8594 384.937 74.9844C384.117 74.9844 383.297 74.9844 382.477 74.9844C382.477 75.8594 382.477 76.6797 382.477 77.5547C383.297 77.5547 384.117 77.5547 384.937 77.5547Z" fill="black"/>
<path d="M366.891 98.2813C368.586 98.2813 370.281 98.2813 372.031 98.2813C372.031 97.4063 372.031 96.5313 372.031 95.7109C373.781 95.7109 375.477 95.7109 377.227 95.7109C377.227 96.5313 377.227 97.3516 377.227 98.2813C376.352 98.2813 375.531 98.2813 374.656 98.2813C374.656 99.1563 374.656 99.9766 374.656 100.852C373.781 100.852 372.961 100.852 372.086 100.852C372.086 101.727 372.086 102.547 372.086 103.422C368.586 103.422 365.195 103.422 361.75 103.422C361.75 102.602 361.75 101.781 361.75 100.906C363.445 100.906 365.141 100.906 366.945 100.906C366.891 99.9766 366.891 99.1016 366.891 98.2813Z" fill="black"/>
<path d="M366.891 98.2813C366.016 98.2813 365.195 98.2813 364.266 98.2813C364.266 97.3516 364.266 96.5312 364.266 95.7109C363.391 95.7109 362.57 95.7109 361.695 95.7109C361.695 96.5312 361.695 97.3516 361.695 98.2266C360.82 98.2266 360 98.2266 359.125 98.2266C359.125 97.4062 359.125 96.5859 359.125 95.6563C359.945 95.6563 360.766 95.6563 361.641 95.6563C361.641 94.7813 361.641 93.9609 361.641 93.0859C360.82 93.0859 360 93.0859 359.125 93.0859C359.125 92.2109 359.125 91.3906 359.125 90.5156C361.641 90.5156 364.211 90.5156 366.891 90.5156C366.891 91.3359 366.891 92.2109 366.891 93.0312C366.016 93.0312 365.195 93.0312 364.32 93.0312C364.32 93.9609 364.32 94.7812 364.32 95.6016C365.195 95.6016 366.016 95.6016 366.891 95.6016C366.891 94.7266 366.891 93.8516 366.891 93.0312C367.711 93.0312 368.531 93.0312 369.406 93.0312C369.406 93.9062 369.406 94.7813 369.406 95.6563C368.586 95.6563 367.766 95.6563 366.891 95.6563C366.891 96.5313 366.891 97.4063 366.891 98.2813Z" fill="black"/>
<path d="M403.148 92.9766C403.148 92.1562 403.148 91.3359 403.148 90.4609C406.594 90.4609 410.039 90.4609 413.484 90.4609C413.484 91.2813 413.484 92.1016 413.484 92.9766C412.664 92.9766 411.844 92.9766 410.969 92.9766C410.969 93.8516 410.969 94.6719 410.969 95.5469C410.039 95.5469 409.219 95.5469 408.344 95.5469C408.344 94.7266 408.344 93.9062 408.344 92.9766C408.016 92.9766 407.742 92.9766 407.523 92.9766C406.047 93.0312 404.57 92.9766 403.148 92.9766Z" fill="black"/>
<path d="M371.977 129.234C371.977 130.109 371.977 130.984 371.977 131.914C372.906 131.914 373.727 131.914 374.602 131.914C374.602 132.789 374.602 133.664 374.602 134.484C372.906 134.484 371.211 134.484 369.516 134.484C369.516 132.789 369.516 131.094 369.516 129.234C370.336 129.234 371.156 129.234 371.977 129.234Z" fill="black"/>
<path d="M403.148 92.9766C403.148 93.8516 403.148 94.7266 403.148 95.6563C404.023 95.6563 404.844 95.6563 405.719 95.6563C405.719 96.5859 405.719 97.4609 405.719 98.2813C404.023 98.2813 402.273 98.2813 400.578 98.2813C400.578 96.5313 400.578 94.7266 400.633 92.9766C401.508 92.9766 402.328 92.9766 403.148 92.9766Z" fill="black"/>
<path d="M356.445 111.242C356.445 112.062 356.445 112.883 356.445 113.758C353.875 113.758 351.305 113.758 348.734 113.758C348.734 112.937 348.734 112.117 348.734 111.242C351.305 111.242 353.875 111.242 356.445 111.242Z" fill="black"/>
<path d="M405.719 98.2812C406.539 98.2812 407.414 98.2812 408.289 98.2812C408.289 99.9766 408.289 101.672 408.289 103.367C406.539 103.367 404.844 103.367 403.148 103.367C403.148 102.547 403.148 101.672 403.148 100.797C404.023 100.797 404.844 100.797 405.719 100.797C405.719 99.9219 405.719 99.1016 405.719 98.2812Z" fill="black"/>
<path d="M384.938 82.6406C385.867 82.6406 386.797 82.6406 387.672 82.6406C387.672 83.2969 387.617 83.9531 387.617 84.6094C387.617 85.6484 387.617 86.7422 387.617 87.8359C386.742 87.8359 385.922 87.8359 384.992 87.8359C384.938 86.0859 384.938 84.3359 384.938 82.6406Z" fill="black"/>
<path d="M385.047 134.484C385.047 133.609 385.047 132.844 385.047 131.969C386.742 131.969 388.438 131.969 390.188 131.969C390.188 132.789 390.188 133.609 390.188 134.484C388.438 134.484 386.797 134.484 385.047 134.484Z" fill="black"/>
<path d="M382.422 93.0313C383.297 93.0313 384.117 93.0313 384.992 93.0313C384.992 94.7813 384.992 96.5313 384.992 98.2813C384.117 98.2813 383.297 98.2813 382.422 98.2813C382.422 96.5313 382.422 94.7266 382.422 93.0313Z" fill="black"/>
<path d="M353.984 92.9766C353.219 92.9766 352.398 93.0312 351.633 93.0312C350.703 93.0312 349.719 93.0312 348.734 93.0312C348.734 92.1562 348.734 91.3359 348.734 90.4609C350.43 90.4609 352.125 90.4609 353.875 90.4609C353.875 91.3359 353.93 92.1562 353.984 92.9766Z" fill="black"/>
<path d="M390.242 82.5859C391.062 82.5859 391.883 82.5859 392.758 82.5859C392.758 84.3906 392.758 86.0859 392.758 87.8359C391.937 87.8359 391.117 87.8359 390.297 87.8359C390.297 87.7812 390.242 87.7813 390.242 87.7266C390.242 86.0313 390.242 84.2812 390.242 82.5859Z" fill="black"/>
<path d="M374.602 105.992C374.602 105.172 374.602 104.297 374.602 103.422C375.586 103.422 376.461 103.422 377.281 103.422C377.281 104.297 377.281 105.117 377.281 105.992C376.352 105.938 375.477 105.938 374.602 105.992Z" fill="black"/>
<path d="M400.633 92.9766C399.758 92.9766 398.883 92.9766 398.008 92.9766C398.008 92.2109 398.008 91.3906 398.008 90.5156C398.828 90.5156 399.648 90.5156 400.523 90.5156C400.578 91.3359 400.633 92.1562 400.633 92.9766Z" fill="black"/>
<path d="M397.898 100.852C397.898 100.031 397.898 99.1563 397.898 98.2812C398.883 98.2812 399.758 98.2812 400.578 98.2812C400.578 99.1016 400.578 99.9766 400.578 100.852C399.648 100.852 398.773 100.852 397.898 100.852Z" fill="black"/>
<path d="M379.906 87.9453C379.906 87.0703 379.906 86.1953 379.906 85.3203C380.726 85.3203 381.547 85.3203 382.422 85.3203C382.422 86.1953 382.422 87.0156 382.422 87.9453C381.547 87.9453 380.672 87.9453 379.906 87.9453Z" fill="black"/>
<path d="M351.25 98.2266C350.375 98.2266 349.555 98.2266 348.734 98.2266C348.734 97.3516 348.734 96.5312 348.734 95.7109C349.609 95.7109 350.43 95.7109 351.25 95.7109C351.25 96.5312 351.25 97.3516 351.25 98.2266Z" fill="black"/>
<path d="M353.984 92.9766C354.805 92.9766 355.625 92.9766 356.445 92.9766C356.445 93.9062 356.445 94.7266 356.445 95.6016C355.625 95.6016 354.805 95.6016 353.984 95.6016C353.984 94.7266 353.984 93.8516 353.984 92.9766Z" fill="black"/>
<path d="M390.297 80.125C390.297 79.3047 390.297 78.4297 390.297 77.5547C391.062 77.5547 391.883 77.5547 392.758 77.5547C392.758 78.375 392.758 79.1953 392.758 80.125C391.937 80.125 391.062 80.125 390.297 80.125Z" fill="black"/>
<path d="M387.672 82.6406C387.617 81.8203 387.562 80.9453 387.562 80.0703C388.492 80.0703 389.367 80.0703 390.297 80.0703C390.297 80.8906 390.297 81.7109 390.297 82.5859C389.422 82.5859 388.547 82.6406 387.672 82.6406Z" fill="black"/>
<path d="M353.93 98.2812C354.75 98.2812 355.57 98.2812 356.445 98.2812C356.445 99.1016 356.445 99.9219 356.445 100.797C355.625 100.797 354.805 100.797 353.93 100.797C353.93 99.9766 353.93 99.1562 353.93 98.2812Z" fill="black"/>
<path d="M379.852 90.461C380.672 90.461 381.492 90.461 382.422 90.461C382.422 91.336 382.422 92.2109 382.422 93.0313C381.602 93.0313 380.727 93.0313 379.852 93.0313C379.852 92.1563 379.852 91.2813 379.852 90.461Z" fill="black"/>
<path d="M413.484 100.852C413.484 101.672 413.484 102.492 413.484 103.312C412.609 103.312 411.789 103.312 410.969 103.312C410.969 102.492 410.969 101.672 410.969 100.852C411.789 100.852 412.609 100.852 413.484 100.852Z" fill="black"/>
<path d="M348.734 103.422C349.609 103.422 350.43 103.422 351.25 103.422C351.25 104.242 351.25 105.062 351.25 105.937C350.375 105.937 349.555 105.937 348.734 105.937C348.734 105.117 348.734 104.297 348.734 103.422Z" fill="black"/>
<path d="M403.148 103.367C403.148 104.242 403.148 105.062 403.148 105.937C402.273 105.937 401.453 105.937 400.578 105.937C400.578 105.117 400.578 104.242 400.578 103.367C401.508 103.422 402.328 103.422 403.148 103.367Z" fill="black"/>
<path d="M403.148 103.422C402.328 103.422 401.453 103.422 400.578 103.422C400.578 104.297 400.578 105.172 400.578 105.992C399.703 105.992 398.883 105.992 397.953 105.992C397.953 106.867 397.953 107.687 397.953 108.617C398.773 108.617 399.594 108.617 400.469 108.617C400.469 109.492 400.469 110.312 400.469 111.242C395.328 111.242 390.187 111.242 384.937 111.242C384.937 112.172 384.937 112.992 384.937 113.867C383.242 113.867 381.547 113.867 379.852 113.867C379.852 112.117 379.852 110.422 379.852 108.672C380.672 108.672 381.547 108.672 382.367 108.672C382.367 107.797 382.367 106.977 382.367 106.047C383.242 106.047 384.117 106.047 384.937 106.047C384.937 106.922 384.937 107.742 384.937 108.617C387.562 108.617 390.133 108.617 392.703 108.617C392.703 107.797 392.703 106.977 392.703 106.102C393.578 106.102 394.398 106.102 395.273 106.102C395.273 105.227 395.273 104.406 395.273 103.531C396.148 103.531 396.969 103.531 397.844 103.531C397.844 102.602 397.844 101.781 397.844 100.961C398.719 100.961 399.594 100.961 400.523 100.961C400.523 100.086 400.523 99.2109 400.523 98.3906C402.219 98.3906 403.969 98.3906 405.664 98.3906C405.664 99.2109 405.664 100.031 405.664 100.961C404.789 100.961 403.969 100.961 403.094 100.961C403.148 101.727 403.148 102.547 403.148 103.422Z" fill="white"/>
<path d="M384.992 116.328C384.992 118.953 384.992 121.523 384.992 124.148C383.297 124.148 381.602 124.148 379.906 124.148C379.906 121.523 379.906 119.008 379.906 116.328C381.547 116.328 383.297 116.328 384.992 116.328Z" fill="white"/>
<path d="M374.547 105.938C375.477 105.938 376.352 105.938 377.281 105.938C377.281 108.125 377.227 110.258 377.227 112.445C377.227 112.883 377.227 113.266 377.227 113.758C376.352 113.758 375.531 113.758 374.602 113.758C374.602 113.539 374.602 113.32 374.602 113.102C374.602 110.969 374.602 108.781 374.602 106.648C374.602 106.43 374.602 106.211 374.547 105.938Z" fill="white"/>
<path d="M384.938 113.758C386.688 113.758 388.383 113.758 390.133 113.758C390.133 115.508 390.133 117.148 390.133 118.898C389.312 118.898 388.492 118.898 387.617 118.898C387.617 118.078 387.617 117.258 387.617 116.328C386.688 116.328 385.812 116.328 384.938 116.328C384.938 115.508 384.938 114.633 384.938 113.758Z" fill="white"/>
<path d="M382.367 98.2812C383.242 98.2812 384.062 98.2812 384.937 98.2812C384.937 99.9766 384.937 101.727 384.937 103.422C384.117 103.422 383.297 103.422 382.367 103.422C382.367 101.672 382.367 99.9766 382.367 98.2812Z" fill="white"/>
<path d="M384.938 103.367C385.813 103.367 386.633 103.367 387.563 103.367C387.563 104.242 387.563 105.062 387.563 105.937C386.688 105.937 385.813 105.937 384.938 105.937C384.938 105.117 384.938 104.242 384.938 103.367Z" fill="white"/>
<path d="M369.461 113.812C369.461 112.992 369.461 112.117 369.461 111.242C370.336 111.242 371.156 111.242 372.031 111.242C372.031 112.117 372.031 112.937 372.031 113.812C371.156 113.758 370.281 113.758 369.461 113.812Z" fill="white"/>
<path d="M377.281 105.992C377.281 105.117 377.281 104.297 377.281 103.422C378.102 103.422 378.922 103.422 379.797 103.422C379.797 104.297 379.797 105.117 379.797 105.992C378.922 105.992 378.102 105.992 377.281 105.992Z" fill="white"/>
<path d="M374.547 121.633C373.727 121.633 372.961 121.633 372.086 121.633C372.086 120.703 372.086 119.883 372.086 119.008C372.906 119.008 373.727 119.008 374.656 119.008C374.602 119.883 374.547 120.758 374.547 121.633Z" fill="white"/>
<path d="M366.836 111.188C365.961 111.188 365.195 111.188 364.32 111.188C364.32 110.313 364.32 109.547 364.32 108.672C365.141 108.672 365.961 108.672 366.836 108.672C366.836 109.492 366.836 110.313 366.836 111.188Z" fill="white"/>
<path d="M392.812 113.812C395.383 113.812 397.953 113.812 400.523 113.812C400.523 116.383 400.523 118.953 400.523 121.523C397.953 121.523 395.383 121.523 392.812 121.523C392.812 118.953 392.812 116.383 392.812 113.812ZM397.953 116.438C397.078 116.438 396.258 116.438 395.438 116.438C395.438 117.313 395.438 118.133 395.438 118.953C396.313 118.953 397.133 118.953 397.953 118.953C397.953 118.078 397.953 117.258 397.953 116.438Z" fill="white"/>
<path d="M408.289 116.383C407.469 116.383 406.648 116.383 405.719 116.383C405.719 119.008 405.719 121.578 405.719 124.203C404.789 124.203 403.969 124.203 403.094 124.203C403.094 119.063 403.094 113.867 403.094 108.672C403.969 108.672 404.789 108.672 405.664 108.672C405.664 110.367 405.664 112.063 405.664 113.813C406.539 113.813 407.359 113.813 408.234 113.813C408.289 114.688 408.289 115.508 408.289 116.383Z" fill="white"/>
<path d="M400.578 105.938C401.453 105.938 402.273 105.938 403.148 105.938C403.148 106.758 403.148 107.633 403.148 108.508C402.273 108.508 401.453 108.508 400.578 108.508C400.578 107.688 400.578 106.812 400.578 105.938Z" fill="white"/>
<path d="M351.305 85.2109C351.305 80.8906 351.305 76.625 351.305 72.3594C355.625 72.3594 359.891 72.3594 364.211 72.3594C364.211 76.6797 364.211 80.9453 364.211 85.2109C359.945 85.2109 355.68 85.2109 351.305 85.2109ZM353.93 74.9297C353.93 77.5 353.93 80.0703 353.93 82.5859C356.5 82.5859 359.07 82.5859 361.641 82.5859C361.641 80.0156 361.641 77.5 361.641 74.9297C359.07 74.9297 356.5 74.9297 353.93 74.9297Z" fill="white"/>
<path d="M398.008 72.3594C402.273 72.3594 406.539 72.3594 410.859 72.3594C410.859 76.625 410.859 80.8906 410.859 85.2109C406.594 85.2109 402.328 85.2109 398.008 85.2109C398.008 80.9453 398.008 76.6797 398.008 72.3594ZM408.289 74.9297C405.664 74.9297 403.148 74.9297 400.578 74.9297C400.578 77.5 400.578 80.0156 400.578 82.5859C403.148 82.5859 405.719 82.5859 408.289 82.5859C408.289 80.0156 408.289 77.5 408.289 74.9297Z" fill="white"/>
<path d="M351.359 119.008C355.68 119.008 359.945 119.008 364.266 119.008C364.266 123.328 364.266 127.594 364.266 131.859C359.945 131.859 355.68 131.859 351.359 131.859C351.359 127.594 351.359 123.328 351.359 119.008ZM353.93 129.289C356.555 129.289 359.07 129.289 361.641 129.289C361.641 126.719 361.641 124.203 361.641 121.633C359.07 121.633 356.5 121.633 353.93 121.633C353.93 124.203 353.93 126.719 353.93 129.289Z" fill="white"/>
<path d="M384.938 98.2813C384.938 96.5313 384.938 94.7813 384.938 93.0312C385.813 93.0312 386.633 93.0312 387.563 93.0312C387.563 94.7813 387.563 96.4766 387.563 98.2813C386.688 98.2813 385.813 98.2813 384.938 98.2813Z" fill="white"/>
<path d="M392.758 100.797C392.758 101.617 392.758 102.438 392.758 103.313C391.883 103.313 391.062 103.313 390.242 103.313C390.242 102.492 390.242 101.672 390.242 100.797C391.117 100.852 391.937 100.852 392.758 100.797Z" fill="white"/>
<path d="M392.758 98.2812C391.937 98.2812 391.117 98.2812 390.242 98.2812C390.242 97.3516 390.242 96.5312 390.242 95.6562C391.062 95.6562 391.883 95.6562 392.758 95.6562C392.758 96.5312 392.758 97.4609 392.758 98.2812Z" fill="white"/>
<path d="M405.719 129.289C405.719 128.469 405.719 127.648 405.719 126.828C406.594 126.828 407.469 126.828 408.344 126.828C408.344 127.648 408.344 128.469 408.344 129.289C407.414 129.234 406.539 129.234 405.719 129.289Z" fill="white"/>
<path d="M384.938 77.5547C384.117 77.5547 383.297 77.5547 382.477 77.5547C382.477 76.6797 382.477 75.8594 382.477 74.9844C383.297 74.9844 384.117 74.9844 384.938 74.9844C384.938 75.8047 384.938 76.6797 384.938 77.5547Z" fill="white"/>
<path d="M366.891 92.9766C366.891 93.8516 366.891 94.6719 366.891 95.5469C366.016 95.5469 365.195 95.5469 364.32 95.5469C364.32 94.7266 364.32 93.8516 364.32 92.9766C365.195 93.0313 366.016 93.0313 366.891 92.9766Z" fill="white"/>
<path d="M397.953 116.438C397.953 117.312 397.953 118.078 397.953 118.953C397.133 118.953 396.258 118.953 395.438 118.953C395.438 118.133 395.438 117.312 395.438 116.438C396.258 116.438 397.078 116.438 397.953 116.438Z" fill="black"/>
<path d="M353.93 74.9297C356.5 74.9297 359.07 74.9297 361.641 74.9297C361.641 77.5 361.641 80.0156 361.641 82.5859C359.07 82.5859 356.555 82.5859 353.93 82.5859C353.93 80.0703 353.93 77.5547 353.93 74.9297Z" fill="black"/>
<path d="M408.289 74.9297C408.289 77.5 408.289 80.0156 408.289 82.5859C405.719 82.5859 403.203 82.5859 400.578 82.5859C400.578 80.0156 400.578 77.5 400.578 74.9297C403.148 74.9297 405.719 74.9297 408.289 74.9297Z" fill="black"/>
<path d="M353.93 129.289C353.93 126.719 353.93 124.203 353.93 121.633C356.5 121.633 359.016 121.633 361.641 121.633C361.641 124.203 361.641 126.719 361.641 129.289C359.07 129.289 356.555 129.289 353.93 129.289Z" fill="black"/>
<rect x="45" y="250" width="435" height="41" fill="url(#paint0_linear_43_46)"/>
<path d="M344.999 172.398C344.656 172.398 344.342 172.314 344.058 172.146C343.774 171.976 343.546 171.749 343.376 171.464C343.208 171.18 343.124 170.866 343.124 170.523C343.124 170.176 343.208 169.862 343.376 169.581C343.546 169.297 343.774 169.071 344.058 168.903C344.342 168.733 344.656 168.648 344.999 168.648C345.346 168.648 345.66 168.733 345.941 168.903C346.225 169.071 346.451 169.297 346.619 169.581C346.789 169.862 346.874 170.176 346.874 170.523C346.874 170.866 346.789 171.18 346.619 171.464C346.451 171.749 346.225 171.976 345.941 172.146C345.66 172.314 345.346 172.398 344.999 172.398ZM359.493 167.783C359.459 167.439 359.313 167.172 359.054 166.982C358.795 166.791 358.445 166.696 358.001 166.696C357.7 166.696 357.446 166.739 357.239 166.824C357.031 166.906 356.872 167.021 356.761 167.169C356.653 167.317 356.599 167.484 356.599 167.672C356.594 167.828 356.626 167.964 356.697 168.081C356.771 168.197 356.872 168.298 357 168.384C357.128 168.466 357.276 168.538 357.443 168.601C357.611 168.661 357.79 168.712 357.98 168.754L358.764 168.942C359.145 169.027 359.494 169.141 359.812 169.283C360.131 169.425 360.406 169.599 360.639 169.807C360.872 170.014 361.053 170.259 361.18 170.54C361.311 170.821 361.378 171.143 361.381 171.507C361.378 172.041 361.241 172.504 360.972 172.896C360.705 173.286 360.318 173.588 359.812 173.804C359.31 174.017 358.703 174.124 357.993 174.124C357.288 174.124 356.675 174.016 356.152 173.8C355.632 173.584 355.226 173.264 354.933 172.841C354.643 172.415 354.491 171.888 354.477 171.26H356.263C356.283 171.553 356.366 171.797 356.514 171.993C356.665 172.186 356.865 172.332 357.115 172.432C357.368 172.528 357.653 172.577 357.972 172.577C358.284 172.577 358.555 172.531 358.786 172.44C359.018 172.349 359.199 172.223 359.327 172.061C359.455 171.899 359.518 171.713 359.518 171.503C359.518 171.307 359.46 171.142 359.344 171.009C359.23 170.875 359.063 170.761 358.841 170.668C358.622 170.574 358.354 170.489 358.036 170.412L357.085 170.173C356.349 169.994 355.768 169.714 355.342 169.334C354.916 168.953 354.705 168.44 354.707 167.795C354.705 167.267 354.845 166.805 355.129 166.411C355.416 166.016 355.81 165.707 356.31 165.486C356.81 165.264 357.378 165.153 358.014 165.153C358.662 165.153 359.227 165.264 359.71 165.486C360.196 165.707 360.574 166.016 360.844 166.411C361.114 166.805 361.253 167.263 361.261 167.783H359.493ZM366.069 167.455V168.818H362.127V167.455H366.069ZM363.022 165.886H364.838V171.989C364.838 172.156 364.863 172.287 364.914 172.381C364.966 172.472 365.037 172.536 365.127 172.572C365.221 172.609 365.329 172.628 365.451 172.628C365.537 172.628 365.622 172.621 365.707 172.607C365.792 172.589 365.858 172.577 365.903 172.568L366.189 173.919C366.098 173.947 365.97 173.98 365.805 174.017C365.64 174.057 365.44 174.081 365.204 174.089C364.767 174.107 364.383 174.048 364.054 173.915C363.727 173.781 363.473 173.574 363.291 173.293C363.109 173.011 363.02 172.656 363.022 172.227V165.886ZM367.252 174V167.455H369.067V174H367.252ZM368.164 166.611C367.894 166.611 367.662 166.521 367.469 166.342C367.279 166.161 367.184 165.943 367.184 165.69C367.184 165.44 367.279 165.226 367.469 165.047C367.662 164.865 367.894 164.774 368.164 164.774C368.434 164.774 368.664 164.865 368.854 165.047C369.047 165.226 369.144 165.44 369.144 165.69C369.144 165.943 369.047 166.161 368.854 166.342C368.664 166.521 368.434 166.611 368.164 166.611ZM373.479 174.128C372.808 174.128 372.232 173.986 371.749 173.702C371.268 173.415 370.899 173.017 370.641 172.509C370.385 172 370.257 171.415 370.257 170.753C370.257 170.082 370.386 169.494 370.645 168.989C370.906 168.48 371.277 168.084 371.757 167.8C372.237 167.513 372.808 167.369 373.47 167.369C374.041 167.369 374.541 167.473 374.97 167.68C375.399 167.888 375.739 168.179 375.989 168.554C376.239 168.929 376.376 169.369 376.402 169.875H374.689C374.641 169.548 374.513 169.286 374.305 169.087C374.101 168.885 373.832 168.784 373.5 168.784C373.219 168.784 372.973 168.861 372.763 169.014C372.555 169.165 372.393 169.385 372.277 169.675C372.161 169.964 372.102 170.315 372.102 170.727C372.102 171.145 372.159 171.5 372.273 171.793C372.389 172.085 372.553 172.308 372.763 172.462C372.973 172.615 373.219 172.692 373.5 172.692C373.707 172.692 373.893 172.649 374.058 172.564C374.226 172.479 374.364 172.355 374.472 172.193C374.582 172.028 374.655 171.831 374.689 171.601H376.402C376.374 172.101 376.237 172.541 375.993 172.922C375.751 173.3 375.418 173.595 374.991 173.808C374.565 174.021 374.061 174.128 373.479 174.128ZM379.209 172.116L379.213 169.939H379.478L381.574 167.455H383.658L380.841 170.744H380.411L379.209 172.116ZM377.564 174V165.273H379.38V174H377.564ZM381.655 174L379.729 171.149L380.939 169.866L383.782 174H381.655ZM388.404 169.696V171.136H384.424V169.696H388.404ZM392.908 174.128C392.246 174.128 391.674 173.987 391.191 173.706C390.711 173.422 390.34 173.027 390.079 172.521C389.817 172.013 389.687 171.423 389.687 170.753C389.687 170.077 389.817 169.486 390.079 168.98C390.34 168.472 390.711 168.077 391.191 167.795C391.674 167.511 392.246 167.369 392.908 167.369C393.57 167.369 394.141 167.511 394.621 167.795C395.104 168.077 395.477 168.472 395.738 168.98C395.999 169.486 396.13 170.077 396.13 170.753C396.13 171.423 395.999 172.013 395.738 172.521C395.477 173.027 395.104 173.422 394.621 173.706C394.141 173.987 393.57 174.128 392.908 174.128ZM392.917 172.722C393.218 172.722 393.469 172.636 393.671 172.466C393.873 172.293 394.025 172.057 394.127 171.759C394.232 171.46 394.285 171.121 394.285 170.74C394.285 170.359 394.232 170.02 394.127 169.722C394.025 169.423 393.873 169.187 393.671 169.014C393.469 168.841 393.218 168.754 392.917 168.754C392.613 168.754 392.357 168.841 392.15 169.014C391.945 169.187 391.79 169.423 391.685 169.722C391.583 170.02 391.532 170.359 391.532 170.74C391.532 171.121 391.583 171.46 391.685 171.759C391.79 172.057 391.945 172.293 392.15 172.466C392.357 172.636 392.613 172.722 392.917 172.722ZM399.126 170.216V174H397.31V167.455H399.04V168.609H399.117C399.262 168.229 399.505 167.928 399.846 167.706C400.187 167.482 400.6 167.369 401.086 167.369C401.54 167.369 401.937 167.469 402.275 167.668C402.613 167.866 402.876 168.151 403.063 168.52C403.251 168.886 403.344 169.324 403.344 169.832V174H401.529V170.156C401.532 169.756 401.43 169.443 401.222 169.219C401.015 168.991 400.729 168.878 400.366 168.878C400.121 168.878 399.906 168.93 399.718 169.036C399.533 169.141 399.388 169.294 399.283 169.496C399.181 169.695 399.129 169.935 399.126 170.216ZM344.999 189.398C344.656 189.398 344.342 189.314 344.058 189.146C343.774 188.976 343.546 188.749 343.376 188.464C343.208 188.18 343.124 187.866 343.124 187.523C343.124 187.176 343.208 186.862 343.376 186.581C343.546 186.297 343.774 186.071 344.058 185.903C344.342 185.733 344.656 185.648 344.999 185.648C345.346 185.648 345.66 185.733 345.941 185.903C346.225 186.071 346.451 186.297 346.619 186.581C346.789 186.862 346.874 187.176 346.874 187.523C346.874 187.866 346.789 188.18 346.619 188.464C346.451 188.749 346.225 188.976 345.941 189.146C345.66 189.314 345.346 189.398 344.999 189.398ZM357.852 191H354.759V182.273H357.878C358.756 182.273 359.511 182.447 360.145 182.797C360.778 183.143 361.266 183.642 361.607 184.293C361.95 184.943 362.122 185.722 362.122 186.628C362.122 187.537 361.95 188.318 361.607 188.972C361.266 189.625 360.776 190.126 360.136 190.476C359.5 190.825 358.739 191 357.852 191ZM356.604 189.419H357.776C358.321 189.419 358.78 189.322 359.152 189.129C359.527 188.933 359.808 188.631 359.996 188.222C360.186 187.81 360.281 187.278 360.281 186.628C360.281 185.983 360.186 185.456 359.996 185.047C359.808 184.638 359.528 184.337 359.156 184.143C358.784 183.95 358.325 183.854 357.78 183.854H356.604V189.419ZM367.652 188.213V184.455H369.468V191H367.725V189.811H367.657C367.509 190.195 367.263 190.503 366.919 190.736C366.578 190.969 366.162 191.085 365.671 191.085C365.233 191.085 364.848 190.986 364.516 190.787C364.184 190.588 363.924 190.305 363.736 189.939C363.551 189.572 363.458 189.134 363.455 188.622V184.455H365.27V188.298C365.273 188.685 365.377 188.99 365.581 189.214C365.786 189.439 366.06 189.551 366.404 189.551C366.623 189.551 366.827 189.501 367.017 189.402C367.208 189.3 367.361 189.149 367.478 188.95C367.597 188.751 367.655 188.506 367.652 188.213ZM370.92 191V184.455H372.68V185.597H372.748C372.867 185.19 373.067 184.884 373.349 184.676C373.63 184.466 373.954 184.361 374.32 184.361C374.411 184.361 374.509 184.366 374.614 184.378C374.719 184.389 374.812 184.405 374.891 184.425V186.036C374.806 186.01 374.688 185.987 374.538 185.967C374.387 185.947 374.249 185.938 374.124 185.938C373.857 185.938 373.619 185.996 373.408 186.112C373.201 186.226 373.036 186.385 372.914 186.589C372.795 186.794 372.735 187.03 372.735 187.297V191H370.92ZM377.509 191.124C377.091 191.124 376.719 191.051 376.392 190.906C376.066 190.759 375.807 190.541 375.617 190.254C375.429 189.964 375.336 189.604 375.336 189.172C375.336 188.808 375.402 188.503 375.536 188.256C375.669 188.009 375.851 187.81 376.081 187.659C376.311 187.509 376.573 187.395 376.865 187.318C377.161 187.241 377.471 187.188 377.794 187.156C378.175 187.116 378.482 187.08 378.715 187.045C378.948 187.009 379.117 186.955 379.222 186.884C379.327 186.812 379.38 186.707 379.38 186.568V186.543C379.38 186.273 379.294 186.064 379.124 185.916C378.956 185.768 378.718 185.695 378.408 185.695C378.081 185.695 377.821 185.767 377.628 185.912C377.435 186.054 377.307 186.233 377.245 186.449L375.566 186.312C375.651 185.915 375.819 185.571 376.069 185.281C376.319 184.989 376.641 184.764 377.036 184.608C377.434 184.449 377.894 184.369 378.417 184.369C378.78 184.369 379.128 184.412 379.461 184.497C379.796 184.582 380.093 184.714 380.351 184.893C380.613 185.072 380.819 185.303 380.969 185.584C381.12 185.862 381.195 186.196 381.195 186.585V191H379.473V190.092H379.422C379.317 190.297 379.176 190.477 379 190.634C378.824 190.787 378.613 190.908 378.365 190.996C378.118 191.081 377.833 191.124 377.509 191.124ZM378.029 189.871C378.296 189.871 378.532 189.818 378.736 189.713C378.941 189.605 379.101 189.46 379.218 189.278C379.334 189.097 379.392 188.891 379.392 188.661V187.966C379.336 188.003 379.257 188.037 379.158 188.068C379.061 188.097 378.952 188.124 378.83 188.149C378.708 188.172 378.586 188.193 378.463 188.213C378.341 188.23 378.23 188.246 378.131 188.26C377.918 188.291 377.732 188.341 377.573 188.409C377.414 188.477 377.29 188.57 377.202 188.686C377.114 188.8 377.07 188.942 377.07 189.112C377.07 189.359 377.159 189.548 377.338 189.679C377.52 189.807 377.75 189.871 378.029 189.871ZM382.637 191V182.273H384.453V185.554H384.508C384.588 185.378 384.703 185.199 384.853 185.017C385.007 184.832 385.206 184.679 385.45 184.557C385.697 184.432 386.004 184.369 386.37 184.369C386.848 184.369 387.288 184.494 387.691 184.744C388.095 184.991 388.417 185.365 388.659 185.865C388.9 186.362 389.021 186.986 389.021 187.736C389.021 188.466 388.903 189.082 388.667 189.585C388.434 190.085 388.116 190.464 387.713 190.723C387.312 190.979 386.863 191.107 386.366 191.107C386.014 191.107 385.714 191.048 385.467 190.932C385.223 190.815 385.022 190.669 384.866 190.493C384.71 190.314 384.591 190.134 384.508 189.952H384.427V191H382.637ZM384.414 187.727C384.414 188.116 384.468 188.456 384.576 188.746C384.684 189.036 384.841 189.261 385.045 189.423C385.25 189.582 385.498 189.662 385.791 189.662C386.086 189.662 386.336 189.581 386.541 189.419C386.745 189.254 386.9 189.027 387.005 188.737C387.113 188.445 387.167 188.108 387.167 187.727C387.167 187.349 387.115 187.017 387.01 186.73C386.904 186.443 386.75 186.219 386.545 186.057C386.341 185.895 386.089 185.814 385.791 185.814C385.495 185.814 385.245 185.892 385.041 186.048C384.839 186.205 384.684 186.426 384.576 186.713C384.468 187 384.414 187.338 384.414 187.727ZM392.048 182.273V191H390.232V182.273H392.048ZM396.485 191.128C395.811 191.128 395.232 190.991 394.746 190.719C394.263 190.443 393.891 190.054 393.63 189.551C393.368 189.045 393.238 188.447 393.238 187.757C393.238 187.084 393.368 186.493 393.63 185.984C393.891 185.476 394.259 185.08 394.733 184.795C395.211 184.511 395.77 184.369 396.412 184.369C396.844 184.369 397.246 184.439 397.618 184.578C397.993 184.714 398.32 184.92 398.598 185.196C398.88 185.472 399.098 185.818 399.255 186.236C399.411 186.651 399.489 187.136 399.489 187.693V188.192H393.962V187.067H397.78C397.78 186.805 397.723 186.574 397.61 186.372C397.496 186.17 397.338 186.013 397.137 185.899C396.938 185.783 396.706 185.724 396.442 185.724C396.167 185.724 395.922 185.788 395.709 185.916C395.499 186.041 395.334 186.21 395.215 186.423C395.096 186.634 395.034 186.868 395.032 187.126V188.196C395.032 188.52 395.091 188.8 395.211 189.036C395.333 189.271 395.505 189.453 395.726 189.581C395.948 189.709 396.211 189.773 396.515 189.773C396.716 189.773 396.901 189.744 397.069 189.688C397.236 189.631 397.38 189.545 397.499 189.432C397.618 189.318 397.709 189.179 397.772 189.014L399.451 189.125C399.365 189.528 399.191 189.881 398.926 190.182C398.665 190.48 398.327 190.713 397.912 190.881C397.5 191.045 397.025 191.128 396.485 191.128ZM409.553 184.455L407.265 191H405.219L402.931 184.455H404.849L406.208 189.138H406.276L407.631 184.455H409.553ZM410.482 191V184.455H412.298V191H410.482ZM411.394 183.611C411.124 183.611 410.893 183.521 410.7 183.342C410.509 183.161 410.414 182.943 410.414 182.69C410.414 182.44 410.509 182.226 410.7 182.047C410.893 181.865 411.124 181.774 411.394 181.774C411.664 181.774 411.894 181.865 412.085 182.047C412.278 182.226 412.374 182.44 412.374 182.69C412.374 182.943 412.278 183.161 412.085 183.342C411.894 183.521 411.664 183.611 411.394 183.611ZM415.567 187.216V191H413.752V184.455H415.482V185.609H415.559C415.703 185.229 415.946 184.928 416.287 184.706C416.628 184.482 417.042 184.369 417.527 184.369C417.982 184.369 418.378 184.469 418.716 184.668C419.054 184.866 419.317 185.151 419.505 185.52C419.692 185.886 419.786 186.324 419.786 186.832V191H417.971V187.156C417.973 186.756 417.871 186.443 417.664 186.219C417.456 185.991 417.171 185.878 416.807 185.878C416.563 185.878 416.347 185.93 416.159 186.036C415.975 186.141 415.83 186.294 415.725 186.496C415.623 186.695 415.57 186.935 415.567 187.216ZM422.103 193.455C421.873 193.455 421.657 193.436 421.455 193.399C421.256 193.365 421.092 193.321 420.961 193.267L421.37 191.912C421.583 191.977 421.775 192.013 421.945 192.018C422.119 192.024 422.268 191.984 422.393 191.899C422.521 191.814 422.624 191.669 422.704 191.464L422.81 191.188L420.462 184.455H422.371L423.727 189.261H423.795L425.163 184.455H427.085L424.54 191.707C424.418 192.06 424.252 192.366 424.042 192.628C423.835 192.892 423.572 193.095 423.254 193.237C422.935 193.382 422.552 193.455 422.103 193.455ZM429.829 182.273V191H428.013V182.273H429.829ZM344.999 206.398C344.656 206.398 344.342 206.314 344.058 206.146C343.774 205.976 343.546 205.749 343.376 205.464C343.208 205.18 343.124 204.866 343.124 204.523C343.124 204.176 343.208 203.862 343.376 203.581C343.546 203.297 343.774 203.071 344.058 202.903C344.342 202.733 344.656 202.648 344.999 202.648C345.346 202.648 345.66 202.733 345.941 202.903C346.225 203.071 346.451 203.297 346.619 203.581C346.789 203.862 346.874 204.176 346.874 204.523C346.874 204.866 346.789 205.18 346.619 205.464C346.451 205.749 346.225 205.976 345.941 206.146C345.66 206.314 345.346 206.398 344.999 206.398ZM356.723 208L354.226 199.273H356.241L357.686 205.337H357.759L359.352 199.273H361.078L362.668 205.349H362.744L364.189 199.273H366.205L363.707 208H361.909L360.247 202.294H360.179L358.521 208H356.723ZM368.321 208.124C367.904 208.124 367.532 208.051 367.205 207.906C366.878 207.759 366.62 207.541 366.429 207.254C366.242 206.964 366.148 206.604 366.148 206.172C366.148 205.808 366.215 205.503 366.348 205.256C366.482 205.009 366.664 204.81 366.894 204.659C367.124 204.509 367.385 204.395 367.678 204.318C367.973 204.241 368.283 204.188 368.607 204.156C368.988 204.116 369.294 204.08 369.527 204.045C369.76 204.009 369.929 203.955 370.034 203.884C370.14 203.812 370.192 203.707 370.192 203.568V203.543C370.192 203.273 370.107 203.064 369.936 202.916C369.769 202.768 369.53 202.695 369.221 202.695C368.894 202.695 368.634 202.767 368.441 202.912C368.248 203.054 368.12 203.233 368.057 203.449L366.378 203.312C366.463 202.915 366.631 202.571 366.881 202.281C367.131 201.989 367.453 201.764 367.848 201.608C368.246 201.449 368.706 201.369 369.229 201.369C369.593 201.369 369.941 201.412 370.273 201.497C370.608 201.582 370.905 201.714 371.164 201.893C371.425 202.072 371.631 202.303 371.782 202.584C371.932 202.862 372.007 203.196 372.007 203.585V208H370.286V207.092H370.235C370.13 207.297 369.989 207.477 369.813 207.634C369.637 207.787 369.425 207.908 369.178 207.996C368.931 208.081 368.645 208.124 368.321 208.124ZM368.841 206.871C369.108 206.871 369.344 206.818 369.549 206.713C369.753 206.605 369.914 206.46 370.03 206.278C370.147 206.097 370.205 205.891 370.205 205.661V204.966C370.148 205.003 370.07 205.037 369.971 205.068C369.874 205.097 369.765 205.124 369.642 205.149C369.52 205.172 369.398 205.193 369.276 205.213C369.154 205.23 369.043 205.246 368.944 205.26C368.73 205.291 368.544 205.341 368.385 205.409C368.226 205.477 368.103 205.57 368.015 205.686C367.926 205.8 367.882 205.942 367.882 206.112C367.882 206.359 367.972 206.548 368.151 206.679C368.333 206.807 368.563 206.871 368.841 206.871ZM376.897 201.455V202.818H372.956V201.455H376.897ZM373.85 199.886H375.666V205.989C375.666 206.156 375.691 206.287 375.743 206.381C375.794 206.472 375.865 206.536 375.956 206.572C376.049 206.609 376.157 206.628 376.279 206.628C376.365 206.628 376.45 206.621 376.535 206.607C376.62 206.589 376.686 206.577 376.731 206.568L377.017 207.919C376.926 207.947 376.798 207.98 376.633 208.017C376.468 208.057 376.268 208.081 376.032 208.089C375.595 208.107 375.211 208.048 374.882 207.915C374.555 207.781 374.301 207.574 374.119 207.293C373.937 207.011 373.848 206.656 373.85 206.227V199.886ZM380.993 208.128C380.319 208.128 379.74 207.991 379.254 207.719C378.771 207.443 378.399 207.054 378.137 206.551C377.876 206.045 377.745 205.447 377.745 204.757C377.745 204.084 377.876 203.493 378.137 202.984C378.399 202.476 378.767 202.08 379.241 201.795C379.718 201.511 380.278 201.369 380.92 201.369C381.352 201.369 381.754 201.439 382.126 201.578C382.501 201.714 382.828 201.92 383.106 202.196C383.387 202.472 383.606 202.818 383.762 203.236C383.919 203.651 383.997 204.136 383.997 204.693V205.192H378.47V204.067H382.288C382.288 203.805 382.231 203.574 382.118 203.372C382.004 203.17 381.846 203.013 381.645 202.899C381.446 202.783 381.214 202.724 380.95 202.724C380.674 202.724 380.43 202.788 380.217 202.916C380.007 203.041 379.842 203.21 379.723 203.423C379.603 203.634 379.542 203.868 379.539 204.126V205.196C379.539 205.52 379.599 205.8 379.718 206.036C379.841 206.271 380.012 206.453 380.234 206.581C380.456 206.709 380.718 206.773 381.022 206.773C381.224 206.773 381.409 206.744 381.576 206.688C381.744 206.631 381.887 206.545 382.007 206.432C382.126 206.318 382.217 206.179 382.279 206.014L383.958 206.125C383.873 206.528 383.699 206.881 383.434 207.182C383.173 207.48 382.835 207.713 382.42 207.881C382.008 208.045 381.532 208.128 380.993 208.128ZM385.181 208V201.455H386.941V202.597H387.01C387.129 202.19 387.329 201.884 387.61 201.676C387.892 201.466 388.216 201.361 388.582 201.361C388.673 201.361 388.771 201.366 388.876 201.378C388.981 201.389 389.074 201.405 389.153 201.425V203.036C389.068 203.01 388.95 202.987 388.799 202.967C388.649 202.947 388.511 202.938 388.386 202.938C388.119 202.938 387.88 202.996 387.67 203.112C387.463 203.226 387.298 203.385 387.176 203.589C387.056 203.794 386.997 204.03 386.997 204.297V208H385.181ZM390.092 210.455V201.455H391.881V202.554H391.962C392.042 202.378 392.157 202.199 392.308 202.017C392.461 201.832 392.66 201.679 392.904 201.557C393.151 201.432 393.458 201.369 393.825 201.369C394.302 201.369 394.742 201.494 395.146 201.744C395.549 201.991 395.871 202.365 396.113 202.865C396.354 203.362 396.475 203.986 396.475 204.736C396.475 205.466 396.357 206.082 396.121 206.585C395.888 207.085 395.57 207.464 395.167 207.723C394.766 207.979 394.317 208.107 393.82 208.107C393.468 208.107 393.168 208.048 392.921 207.932C392.677 207.815 392.477 207.669 392.32 207.493C392.164 207.314 392.045 207.134 391.962 206.952H391.907V210.455H390.092ZM391.869 204.727C391.869 205.116 391.923 205.456 392.031 205.746C392.138 206.036 392.295 206.261 392.499 206.423C392.704 206.582 392.952 206.662 393.245 206.662C393.54 206.662 393.79 206.581 393.995 206.419C394.2 206.254 394.354 206.027 394.46 205.737C394.567 205.445 394.621 205.108 394.621 204.727C394.621 204.349 394.569 204.017 394.464 203.73C394.359 203.443 394.204 203.219 393.999 203.057C393.795 202.895 393.543 202.814 393.245 202.814C392.95 202.814 392.7 202.892 392.495 203.048C392.293 203.205 392.138 203.426 392.031 203.713C391.923 204 391.869 204.338 391.869 204.727ZM397.685 208V201.455H399.445V202.597H399.513C399.633 202.19 399.833 201.884 400.114 201.676C400.396 201.466 400.719 201.361 401.086 201.361C401.177 201.361 401.275 201.366 401.38 201.378C401.485 201.389 401.577 201.405 401.657 201.425V203.036C401.572 203.01 401.454 202.987 401.303 202.967C401.153 202.947 401.015 202.938 400.89 202.938C400.623 202.938 400.384 202.996 400.174 203.112C399.967 203.226 399.802 203.385 399.68 203.589C399.56 203.794 399.501 204.03 399.501 204.297V208H397.685ZM405.248 208.128C404.586 208.128 404.014 207.987 403.531 207.706C403.051 207.422 402.68 207.027 402.419 206.521C402.157 206.013 402.027 205.423 402.027 204.753C402.027 204.077 402.157 203.486 402.419 202.98C402.68 202.472 403.051 202.077 403.531 201.795C404.014 201.511 404.586 201.369 405.248 201.369C405.91 201.369 406.481 201.511 406.961 201.795C407.444 202.077 407.816 202.472 408.078 202.98C408.339 203.486 408.47 204.077 408.47 204.753C408.47 205.423 408.339 206.013 408.078 206.521C407.816 207.027 407.444 207.422 406.961 207.706C406.481 207.987 405.91 208.128 405.248 208.128ZM405.257 206.722C405.558 206.722 405.809 206.636 406.011 206.466C406.213 206.293 406.365 206.057 406.467 205.759C406.572 205.46 406.625 205.121 406.625 204.74C406.625 204.359 406.572 204.02 406.467 203.722C406.365 203.423 406.213 203.187 406.011 203.014C405.809 202.841 405.558 202.754 405.257 202.754C404.953 202.754 404.697 202.841 404.49 203.014C404.285 203.187 404.13 203.423 404.025 203.722C403.923 204.02 403.872 204.359 403.872 204.74C403.872 205.121 403.923 205.46 404.025 205.759C404.13 206.057 404.285 206.293 404.49 206.466C404.697 206.636 404.953 206.722 405.257 206.722ZM412.608 208.128C411.946 208.128 411.373 207.987 410.89 207.706C410.41 207.422 410.039 207.027 409.778 206.521C409.517 206.013 409.386 205.423 409.386 204.753C409.386 204.077 409.517 203.486 409.778 202.98C410.039 202.472 410.41 202.077 410.89 201.795C411.373 201.511 411.946 201.369 412.608 201.369C413.27 201.369 413.841 201.511 414.321 201.795C414.804 202.077 415.176 202.472 415.437 202.98C415.699 203.486 415.829 204.077 415.829 204.753C415.829 205.423 415.699 206.013 415.437 206.521C415.176 207.027 414.804 207.422 414.321 207.706C413.841 207.987 413.27 208.128 412.608 208.128ZM412.616 206.722C412.917 206.722 413.169 206.636 413.37 206.466C413.572 206.293 413.724 206.057 413.826 205.759C413.931 205.46 413.984 205.121 413.984 204.74C413.984 204.359 413.931 204.02 413.826 203.722C413.724 203.423 413.572 203.187 413.37 203.014C413.169 202.841 412.917 202.754 412.616 202.754C412.312 202.754 412.056 202.841 411.849 203.014C411.645 203.187 411.49 203.423 411.385 203.722C411.282 204.02 411.231 204.359 411.231 204.74C411.231 205.121 411.282 205.46 411.385 205.759C411.49 206.057 411.645 206.293 411.849 206.466C412.056 206.636 412.312 206.722 412.616 206.722ZM420.529 201.455V202.818H416.49V201.455H420.529ZM417.414 208V200.982C417.414 200.507 417.507 200.114 417.691 199.801C417.879 199.489 418.135 199.254 418.458 199.098C418.782 198.942 419.15 198.864 419.562 198.864C419.841 198.864 420.095 198.885 420.325 198.928C420.558 198.97 420.731 199.009 420.845 199.043L420.521 200.406C420.45 200.384 420.362 200.362 420.257 200.342C420.154 200.322 420.049 200.312 419.941 200.312C419.674 200.312 419.488 200.375 419.383 200.5C419.278 200.622 419.225 200.794 419.225 201.016V208H417.414ZM344.999 223.398C344.656 223.398 344.342 223.314 344.058 223.146C343.774 222.976 343.546 222.749 343.376 222.464C343.208 222.18 343.124 221.866 343.124 221.523C343.124 221.176 343.208 220.862 343.376 220.581C343.546 220.297 343.774 220.071 344.058 219.903C344.342 219.733 344.656 219.648 344.999 219.648C345.346 219.648 345.66 219.733 345.941 219.903C346.225 220.071 346.451 220.297 346.619 220.581C346.789 220.862 346.874 221.176 346.874 221.523C346.874 221.866 346.789 222.18 346.619 222.464C346.451 222.749 346.225 222.976 345.941 223.146C345.66 223.314 345.346 223.398 344.999 223.398ZM354.759 225V216.273H360.537V217.794H356.604V219.874H360.153V221.395H356.604V225H354.759ZM361.744 225V218.455H363.559V225H361.744ZM362.656 217.611C362.386 217.611 362.154 217.521 361.961 217.342C361.771 217.161 361.676 216.943 361.676 216.69C361.676 216.44 361.771 216.226 361.961 216.047C362.154 215.865 362.386 215.774 362.656 215.774C362.926 215.774 363.156 215.865 363.346 216.047C363.539 216.226 363.636 216.44 363.636 216.69C363.636 216.943 363.539 217.161 363.346 217.342C363.156 217.521 362.926 217.611 362.656 217.611ZM365.013 225V218.455H366.773V219.597H366.842C366.961 219.19 367.161 218.884 367.442 218.676C367.724 218.466 368.048 218.361 368.414 218.361C368.505 218.361 368.603 218.366 368.708 218.378C368.813 218.389 368.906 218.405 368.985 218.425V220.036C368.9 220.01 368.782 219.987 368.631 219.967C368.481 219.947 368.343 219.938 368.218 219.938C367.951 219.938 367.712 219.996 367.502 220.112C367.295 220.226 367.13 220.385 367.008 220.589C366.888 220.794 366.829 221.03 366.829 221.297V225H365.013ZM375.37 220.321L373.708 220.423C373.679 220.281 373.618 220.153 373.525 220.04C373.431 219.923 373.307 219.831 373.154 219.763C373.003 219.692 372.823 219.656 372.613 219.656C372.331 219.656 372.094 219.716 371.901 219.835C371.708 219.952 371.611 220.108 371.611 220.304C371.611 220.46 371.674 220.592 371.799 220.7C371.924 220.808 372.138 220.895 372.442 220.96L373.627 221.199C374.263 221.33 374.738 221.54 375.05 221.83C375.363 222.119 375.519 222.5 375.519 222.972C375.519 223.401 375.392 223.777 375.14 224.101C374.89 224.425 374.546 224.678 374.108 224.859C373.674 225.038 373.172 225.128 372.604 225.128C371.738 225.128 371.047 224.947 370.533 224.587C370.022 224.223 369.722 223.729 369.634 223.104L371.419 223.01C371.473 223.274 371.604 223.476 371.811 223.615C372.019 223.751 372.284 223.82 372.608 223.82C372.926 223.82 373.182 223.759 373.375 223.636C373.571 223.511 373.671 223.351 373.674 223.155C373.671 222.99 373.601 222.855 373.465 222.75C373.328 222.642 373.118 222.56 372.834 222.503L371.701 222.277C371.061 222.149 370.586 221.928 370.273 221.612C369.963 221.297 369.809 220.895 369.809 220.406C369.809 219.986 369.922 219.624 370.15 219.32C370.38 219.016 370.702 218.781 371.117 218.616C371.534 218.452 372.023 218.369 372.583 218.369C373.409 218.369 374.06 218.544 374.534 218.893C375.012 219.243 375.29 219.719 375.37 220.321ZM380.143 218.455V219.818H376.202V218.455H380.143ZM377.097 216.886H378.912V222.989C378.912 223.156 378.938 223.287 378.989 223.381C379.04 223.472 379.111 223.536 379.202 223.572C379.295 223.609 379.403 223.628 379.526 223.628C379.611 223.628 379.696 223.621 379.781 223.607C379.866 223.589 379.932 223.577 379.977 223.568L380.263 224.919C380.172 224.947 380.044 224.98 379.879 225.017C379.714 225.057 379.514 225.081 379.278 225.089C378.841 225.107 378.457 225.048 378.128 224.915C377.801 224.781 377.547 224.574 377.365 224.293C377.183 224.011 377.094 223.656 377.097 223.227V216.886ZM387.883 216.273V225H386.038V218.024H385.987L383.988 219.277V217.641L386.149 216.273H387.883ZM393.379 225.192C392.646 225.189 392.016 225.009 391.487 224.651C390.962 224.293 390.557 223.774 390.273 223.095C389.991 222.416 389.852 221.599 389.855 220.645C389.855 219.693 389.996 218.882 390.277 218.212C390.561 217.541 390.966 217.031 391.491 216.682C392.02 216.33 392.649 216.153 393.379 216.153C394.109 216.153 394.737 216.33 395.263 216.682C395.791 217.034 396.197 217.545 396.482 218.216C396.766 218.884 396.906 219.693 396.903 220.645C396.903 221.602 396.761 222.42 396.477 223.099C396.196 223.778 395.793 224.297 395.267 224.655C394.741 225.013 394.112 225.192 393.379 225.192ZM393.379 223.662C393.879 223.662 394.278 223.411 394.577 222.908C394.875 222.405 395.023 221.651 395.02 220.645C395.02 219.983 394.952 219.432 394.815 218.991C394.682 218.551 394.491 218.22 394.244 217.999C394 217.777 393.712 217.666 393.379 217.666C392.882 217.666 392.484 217.915 392.186 218.412C391.888 218.909 391.737 219.653 391.734 220.645C391.734 221.315 391.801 221.875 391.935 222.324C392.071 222.77 392.263 223.105 392.51 223.33C392.757 223.551 393.047 223.662 393.379 223.662ZM401.641 225.192C400.908 225.189 400.277 225.009 399.749 224.651C399.223 224.293 398.819 223.774 398.534 223.095C398.253 222.416 398.114 221.599 398.117 220.645C398.117 219.693 398.257 218.882 398.539 218.212C398.823 217.541 399.228 217.031 399.753 216.682C400.282 216.33 400.911 216.153 401.641 216.153C402.371 216.153 402.999 216.33 403.525 216.682C404.053 217.034 404.459 217.545 404.743 218.216C405.027 218.884 405.168 219.693 405.165 220.645C405.165 221.602 405.023 222.42 404.739 223.099C404.458 223.778 404.054 224.297 403.529 224.655C403.003 225.013 402.374 225.192 401.641 225.192ZM401.641 223.662C402.141 223.662 402.54 223.411 402.838 222.908C403.137 222.405 403.284 221.651 403.282 220.645C403.282 219.983 403.213 219.432 403.077 218.991C402.944 218.551 402.753 218.22 402.506 217.999C402.262 217.777 401.973 217.666 401.641 217.666C401.144 217.666 400.746 217.915 400.448 218.412C400.15 218.909 399.999 219.653 399.996 220.645C399.996 221.315 400.063 221.875 400.196 222.324C400.333 222.77 400.525 223.105 400.772 223.33C401.019 223.551 401.309 223.662 401.641 223.662ZM412.795 218.455V219.818H408.755V218.455H412.795ZM409.68 225V217.982C409.68 217.507 409.772 217.114 409.957 216.801C410.145 216.489 410.4 216.254 410.724 216.098C411.048 215.942 411.416 215.864 411.828 215.864C412.106 215.864 412.36 215.885 412.591 215.928C412.824 215.97 412.997 216.009 413.11 216.043L412.787 217.406C412.716 217.384 412.627 217.362 412.522 217.342C412.42 217.322 412.315 217.312 412.207 217.312C411.94 217.312 411.754 217.375 411.649 217.5C411.544 217.622 411.491 217.794 411.491 218.016V225H409.68ZM413.904 225V218.455H415.664V219.597H415.732C415.852 219.19 416.052 218.884 416.333 218.676C416.614 218.466 416.938 218.361 417.305 218.361C417.396 218.361 417.494 218.366 417.599 218.378C417.704 218.389 417.796 218.405 417.876 218.425V220.036C417.79 220.01 417.673 219.987 417.522 219.967C417.371 219.947 417.234 219.938 417.109 219.938C416.842 219.938 416.603 219.996 416.393 220.112C416.185 220.226 416.021 220.385 415.898 220.589C415.779 220.794 415.719 221.03 415.719 221.297V225H413.904ZM421.493 225.128C420.819 225.128 420.24 224.991 419.754 224.719C419.271 224.443 418.899 224.054 418.637 223.551C418.376 223.045 418.245 222.447 418.245 221.757C418.245 221.084 418.376 220.493 418.637 219.984C418.899 219.476 419.267 219.08 419.741 218.795C420.218 218.511 420.778 218.369 421.42 218.369C421.852 218.369 422.254 218.439 422.626 218.578C423.001 218.714 423.328 218.92 423.606 219.196C423.887 219.472 424.106 219.818 424.262 220.236C424.419 220.651 424.497 221.136 424.497 221.693V222.192H418.97V221.067H422.788C422.788 220.805 422.731 220.574 422.618 220.372C422.504 220.17 422.346 220.013 422.145 219.899C421.946 219.783 421.714 219.724 421.45 219.724C421.174 219.724 420.93 219.788 420.717 219.916C420.507 220.041 420.342 220.21 420.223 220.423C420.103 220.634 420.042 220.868 420.039 221.126V222.196C420.039 222.52 420.099 222.8 420.218 223.036C420.341 223.271 420.512 223.453 420.734 223.581C420.956 223.709 421.218 223.773 421.522 223.773C421.724 223.773 421.909 223.744 422.076 223.688C422.244 223.631 422.387 223.545 422.507 223.432C422.626 223.318 422.717 223.179 422.779 223.014L424.458 223.125C424.373 223.528 424.199 223.881 423.934 224.182C423.673 224.48 423.335 224.713 422.92 224.881C422.508 225.045 422.032 225.128 421.493 225.128ZM428.664 225.128C427.991 225.128 427.412 224.991 426.926 224.719C426.443 224.443 426.071 224.054 425.809 223.551C425.548 223.045 425.417 222.447 425.417 221.757C425.417 221.084 425.548 220.493 425.809 219.984C426.071 219.476 426.439 219.08 426.913 218.795C427.39 218.511 427.95 218.369 428.592 218.369C429.024 218.369 429.426 218.439 429.798 218.578C430.173 218.714 430.5 218.92 430.778 219.196C431.059 219.472 431.278 219.818 431.434 220.236C431.591 220.651 431.669 221.136 431.669 221.693V222.192H426.142V221.067H429.96C429.96 220.805 429.903 220.574 429.789 220.372C429.676 220.17 429.518 220.013 429.316 219.899C429.118 219.783 428.886 219.724 428.622 219.724C428.346 219.724 428.102 219.788 427.889 219.916C427.679 220.041 427.514 220.21 427.395 220.423C427.275 220.634 427.214 220.868 427.211 221.126V222.196C427.211 222.52 427.271 222.8 427.39 223.036C427.512 223.271 427.684 223.453 427.906 223.581C428.127 223.709 428.39 223.773 428.694 223.773C428.896 223.773 429.081 223.744 429.248 223.688C429.416 223.631 429.559 223.545 429.679 223.432C429.798 223.318 429.889 223.179 429.951 223.014L431.63 223.125C431.545 223.528 431.37 223.881 431.106 224.182C430.845 224.48 430.507 224.713 430.092 224.881C429.68 225.045 429.204 225.128 428.664 225.128Z" fill="black"/>
</g>
<defs>
<linearGradient id="paint0_linear_43_46" x1="262.5" y1="291" x2="262.5" y2="250" gradientUnits="userSpaceOnUse">
<stop stop-color="#F8F9FD"/>
<stop offset="1" stop-color="#F8F9FD" stop-opacity="0"/>
</linearGradient>
</defs>
</svg>
