<svg width="480" height="277" viewBox="0 0 480 277" fill="none" xmlns="http://www.w3.org/2000/svg">
<rect width="480" height="277" rx="29" fill="#F8F9FD"/>
<mask id="mask0_45_155" style="mask-type:alpha" maskUnits="userSpaceOnUse" x="0" y="0" width="480" height="277">
<rect width="480" height="277" rx="29" fill="white"/>
</mask>
<g mask="url(#mask0_45_155)">
<path d="M232 76L255.04 121H390.914L411 76H232Z" fill="#EBEEF8"/>
<mask id="path-4-inside-1_45_155" fill="white">
<path d="M142 130C142 123.373 147.373 118 154 118H499V329H142V130Z"/>
</mask>
<path d="M142 130C142 123.373 147.373 118 154 118H499V329H142V130Z" fill="white" stroke="#D4D9EA" stroke-width="30" mask="url(#path-4-inside-1_45_155)"/>
<rect x="204.521" y="159.323" width="66.9577" height="76.6773" rx="12" fill="white"/>
<path d="M207.632 226.727H209.528L211.531 231.614H211.616L213.619 226.727H215.516V234H214.024V229.266H213.964L212.082 233.964H211.066L209.184 229.249H209.124V234H207.632V226.727ZM218.309 234.103C217.961 234.103 217.651 234.043 217.379 233.922C217.107 233.799 216.891 233.618 216.733 233.379C216.577 233.137 216.498 232.836 216.498 232.477C216.498 232.174 216.554 231.919 216.665 231.713C216.777 231.507 216.928 231.341 217.12 231.216C217.312 231.09 217.529 230.996 217.773 230.932C218.019 230.868 218.278 230.823 218.547 230.797C218.865 230.764 219.12 230.733 219.314 230.705C219.509 230.674 219.649 230.629 219.737 230.57C219.825 230.51 219.868 230.423 219.868 230.307V230.286C219.868 230.061 219.797 229.887 219.655 229.763C219.516 229.64 219.317 229.579 219.059 229.579C218.787 229.579 218.57 229.639 218.409 229.76C218.248 229.878 218.141 230.027 218.089 230.207L216.69 230.094C216.761 229.762 216.901 229.476 217.109 229.234C217.318 228.991 217.586 228.804 217.915 228.673C218.247 228.541 218.63 228.474 219.066 228.474C219.369 228.474 219.659 228.51 219.936 228.581C220.215 228.652 220.463 228.762 220.678 228.911C220.896 229.06 221.068 229.252 221.193 229.487C221.318 229.719 221.381 229.997 221.381 230.321V234H219.947V233.244H219.904C219.816 233.414 219.699 233.564 219.552 233.695C219.406 233.822 219.229 233.923 219.023 233.996C218.817 234.067 218.579 234.103 218.309 234.103ZM218.743 233.059C218.965 233.059 219.162 233.015 219.332 232.928C219.503 232.838 219.636 232.717 219.733 232.565C219.831 232.414 219.879 232.242 219.879 232.05V231.472C219.832 231.502 219.767 231.531 219.684 231.557C219.603 231.58 219.512 231.603 219.41 231.624C219.309 231.643 219.207 231.661 219.105 231.678C219.003 231.692 218.911 231.705 218.828 231.717C218.65 231.743 218.495 231.784 218.363 231.841C218.23 231.898 218.127 231.975 218.054 232.072C217.98 232.166 217.944 232.285 217.944 232.427C217.944 232.633 218.018 232.79 218.167 232.899C218.319 233.006 218.511 233.059 218.743 233.059ZM222.555 234V228.545H224.068V234H222.555ZM223.315 227.842C223.09 227.842 222.897 227.768 222.736 227.619C222.577 227.467 222.498 227.286 222.498 227.075C222.498 226.867 222.577 226.688 222.736 226.539C222.897 226.388 223.09 226.312 223.315 226.312C223.54 226.312 223.731 226.388 223.89 226.539C224.051 226.688 224.132 226.867 224.132 227.075C224.132 227.286 224.051 227.467 223.89 227.619C223.731 227.768 223.54 227.842 223.315 227.842ZM226.792 230.847V234H225.279V228.545H226.721V229.508H226.785C226.906 229.191 227.108 228.94 227.392 228.755C227.676 228.568 228.021 228.474 228.426 228.474C228.805 228.474 229.135 228.557 229.417 228.723C229.698 228.889 229.917 229.125 230.074 229.433C230.23 229.739 230.308 230.103 230.308 230.527V234H228.795V230.797C228.797 230.463 228.712 230.203 228.539 230.016C228.367 229.826 228.129 229.732 227.826 229.732C227.622 229.732 227.442 229.775 227.286 229.863C227.132 229.951 227.011 230.078 226.924 230.246C226.838 230.412 226.795 230.612 226.792 230.847ZM234.401 228.545V229.682H231.117V228.545H234.401ZM231.862 227.239H233.375V232.324C233.375 232.464 233.396 232.572 233.439 232.651C233.482 232.726 233.541 232.78 233.617 232.81C233.695 232.841 233.785 232.857 233.887 232.857C233.958 232.857 234.029 232.851 234.1 232.839C234.171 232.825 234.225 232.814 234.263 232.807L234.501 233.933C234.425 233.956 234.319 233.983 234.181 234.014C234.044 234.047 233.877 234.067 233.681 234.075C233.316 234.089 232.996 234.04 232.722 233.929C232.45 233.818 232.238 233.645 232.086 233.411C231.935 233.176 231.86 232.88 231.862 232.523V227.239ZM237.814 234.107C237.253 234.107 236.77 233.993 236.365 233.766C235.963 233.536 235.653 233.212 235.435 232.793C235.217 232.371 235.108 231.873 235.108 231.298C235.108 230.737 235.217 230.244 235.435 229.82C235.653 229.397 235.959 229.066 236.355 228.83C236.752 228.593 237.219 228.474 237.754 228.474C238.114 228.474 238.449 228.532 238.759 228.648C239.071 228.762 239.343 228.934 239.575 229.163C239.81 229.393 239.992 229.682 240.122 230.03C240.253 230.375 240.318 230.78 240.318 231.244V231.66H235.712V230.722H238.894C238.894 230.504 238.846 230.312 238.752 230.143C238.657 229.975 238.526 229.844 238.357 229.749C238.192 229.652 237.999 229.604 237.779 229.604C237.549 229.604 237.345 229.657 237.168 229.763C236.993 229.868 236.855 230.009 236.756 230.186C236.656 230.361 236.606 230.557 236.603 230.772V231.663C236.603 231.933 236.653 232.166 236.752 232.363C236.854 232.559 236.997 232.711 237.182 232.817C237.367 232.924 237.586 232.977 237.839 232.977C238.007 232.977 238.161 232.954 238.301 232.906C238.44 232.859 238.56 232.788 238.659 232.693C238.759 232.598 238.834 232.482 238.887 232.345L240.286 232.438C240.215 232.774 240.069 233.067 239.849 233.318C239.631 233.567 239.349 233.761 239.004 233.901C238.66 234.038 238.264 234.107 237.814 234.107ZM242.818 230.847V234H241.305V228.545H242.747V229.508H242.811C242.931 229.191 243.134 228.94 243.418 228.755C243.702 228.568 244.046 228.474 244.451 228.474C244.83 228.474 245.16 228.557 245.442 228.723C245.724 228.889 245.943 229.125 246.099 229.433C246.255 229.739 246.333 230.103 246.333 230.527V234H244.82V230.797C244.823 230.463 244.738 230.203 244.565 230.016C244.392 229.826 244.154 229.732 243.851 229.732C243.647 229.732 243.468 229.775 243.311 229.863C243.157 229.951 243.037 230.078 242.949 230.246C242.864 230.412 242.82 230.612 242.818 230.847ZM249.081 234.103C248.733 234.103 248.423 234.043 248.151 233.922C247.878 233.799 247.663 233.618 247.504 233.379C247.348 233.137 247.27 232.836 247.27 232.477C247.27 232.174 247.326 231.919 247.437 231.713C247.548 231.507 247.7 231.341 247.891 231.216C248.083 231.09 248.301 230.996 248.545 230.932C248.791 230.868 249.049 230.823 249.319 230.797C249.636 230.764 249.892 230.733 250.086 230.705C250.28 230.674 250.421 230.629 250.509 230.57C250.596 230.51 250.64 230.423 250.64 230.307V230.286C250.64 230.061 250.569 229.887 250.427 229.763C250.287 229.64 250.088 229.579 249.83 229.579C249.558 229.579 249.341 229.639 249.18 229.76C249.019 229.878 248.913 230.027 248.861 230.207L247.462 230.094C247.533 229.762 247.672 229.476 247.881 229.234C248.089 228.991 248.358 228.804 248.687 228.673C249.018 228.541 249.402 228.474 249.837 228.474C250.14 228.474 250.43 228.51 250.707 228.581C250.987 228.652 251.234 228.762 251.45 228.911C251.667 229.06 251.839 229.252 251.964 229.487C252.09 229.719 252.153 229.997 252.153 230.321V234H250.718V233.244H250.675C250.588 233.414 250.471 233.564 250.324 233.695C250.177 233.822 250.001 233.923 249.795 233.996C249.589 234.067 249.351 234.103 249.081 234.103ZM249.514 233.059C249.737 233.059 249.933 233.015 250.104 232.928C250.274 232.838 250.408 232.717 250.505 232.565C250.602 232.414 250.651 232.242 250.651 232.05V231.472C250.603 231.502 250.538 231.531 250.455 231.557C250.375 231.58 250.284 231.603 250.182 231.624C250.08 231.643 249.978 231.661 249.876 231.678C249.775 231.692 249.682 231.705 249.599 231.717C249.422 231.743 249.267 231.784 249.134 231.841C249.002 231.898 248.899 231.975 248.825 232.072C248.752 232.166 248.715 232.285 248.715 232.427C248.715 232.633 248.79 232.79 248.939 232.899C249.09 233.006 249.282 233.059 249.514 233.059ZM254.839 230.847V234H253.326V228.545H254.768V229.508H254.832C254.953 229.191 255.155 228.94 255.439 228.755C255.723 228.568 256.068 228.474 256.473 228.474C256.851 228.474 257.182 228.557 257.463 228.723C257.745 228.889 257.964 229.125 258.12 229.433C258.277 229.739 258.355 230.103 258.355 230.527V234H256.842V230.797C256.844 230.463 256.759 230.203 256.586 230.016C256.413 229.826 256.176 229.732 255.873 229.732C255.669 229.732 255.489 229.775 255.333 229.863C255.179 229.951 255.058 230.078 254.971 230.246C254.885 230.412 254.842 230.612 254.839 230.847ZM262.012 234.107C261.453 234.107 260.972 233.988 260.57 233.751C260.17 233.512 259.862 233.181 259.646 232.757C259.433 232.333 259.327 231.846 259.327 231.294C259.327 230.735 259.435 230.245 259.65 229.824C259.868 229.4 260.177 229.07 260.577 228.833C260.977 228.594 261.453 228.474 262.004 228.474C262.48 228.474 262.897 228.561 263.254 228.734C263.612 228.906 263.895 229.149 264.103 229.462C264.311 229.774 264.426 230.141 264.448 230.562H263.02C262.98 230.29 262.873 230.071 262.7 229.906C262.53 229.737 262.306 229.653 262.029 229.653C261.795 229.653 261.59 229.717 261.415 229.845C261.242 229.971 261.107 230.154 261.01 230.396C260.913 230.637 260.865 230.929 260.865 231.273C260.865 231.621 260.912 231.917 261.007 232.161C261.104 232.404 261.24 232.59 261.415 232.718C261.59 232.846 261.795 232.91 262.029 232.91C262.202 232.91 262.357 232.874 262.494 232.803C262.634 232.732 262.749 232.629 262.839 232.494C262.931 232.357 262.992 232.192 263.02 232.001H264.448C264.424 232.417 264.31 232.784 264.107 233.102C263.905 233.416 263.627 233.663 263.272 233.84C262.917 234.018 262.497 234.107 262.012 234.107ZM267.902 234.107C267.341 234.107 266.858 233.993 266.453 233.766C266.051 233.536 265.741 233.212 265.523 232.793C265.305 232.371 265.196 231.873 265.196 231.298C265.196 230.737 265.305 230.244 265.523 229.82C265.741 229.397 266.047 229.066 266.442 228.83C266.84 228.593 267.307 228.474 267.842 228.474C268.201 228.474 268.536 228.532 268.847 228.648C269.159 228.762 269.431 228.934 269.663 229.163C269.898 229.393 270.08 229.682 270.21 230.03C270.34 230.375 270.406 230.78 270.406 231.244V231.66H265.8V230.722H268.982C268.982 230.504 268.934 230.312 268.839 230.143C268.745 229.975 268.613 229.844 268.445 229.749C268.28 229.652 268.087 229.604 267.866 229.604C267.637 229.604 267.433 229.657 267.256 229.763C267.08 229.868 266.943 230.009 266.844 230.186C266.744 230.361 266.693 230.557 266.691 230.772V231.663C266.691 231.933 266.741 232.166 266.84 232.363C266.942 232.559 267.085 232.711 267.27 232.817C267.455 232.924 267.674 232.977 267.927 232.977C268.095 232.977 268.249 232.954 268.388 232.906C268.528 232.859 268.648 232.788 268.747 232.693C268.847 232.598 268.922 232.482 268.974 232.345L270.374 232.438C270.303 232.774 270.157 233.067 269.937 233.318C269.719 233.567 269.437 233.761 269.092 233.901C268.748 234.038 268.352 234.107 267.902 234.107Z" fill="black"/>
<path d="M232.469 207.828C232.516 208.531 232.562 209.234 232.562 209.984C231.016 209.984 229.609 209.984 228.109 209.984C228.109 208.531 228.109 207.078 228.109 205.578C228.813 205.578 229.516 205.578 230.266 205.578C230.266 204.828 230.266 204.125 230.266 203.328C229.562 203.328 228.859 203.328 228.062 203.328C228.062 202.531 228.062 201.828 228.062 201.078C228.766 201.078 229.516 201.078 230.266 201.078C230.266 200.328 230.266 199.625 230.266 198.875C229.516 198.875 228.812 198.875 228.062 198.875C228.062 199.625 228.062 200.328 228.062 201.078C225.859 201.078 223.656 201.078 221.359 201.078C221.359 199.578 221.359 198.125 221.359 196.625C219.156 196.625 216.953 196.625 214.75 196.625C214.75 195.875 214.75 195.172 214.75 194.375C215.453 194.375 216.156 194.375 216.906 194.375C216.906 193.625 216.906 192.922 216.906 192.172C217.656 192.172 218.359 192.172 219.109 192.172C219.109 192.875 219.109 193.625 219.109 194.375C221.359 194.375 223.563 194.375 225.766 194.375C225.766 195.125 225.766 195.828 225.766 196.578C226.516 196.578 227.219 196.578 227.969 196.578C227.969 195.875 227.969 195.172 227.969 194.375C229.469 194.375 230.922 194.375 232.375 194.375C232.375 194.562 232.422 194.75 232.422 194.984C232.422 196.813 232.422 198.688 232.422 200.516C232.422 200.703 232.422 200.891 232.422 201.078C233.172 201.078 233.875 201.078 234.672 201.078C234.672 200.703 234.672 200.328 234.672 199.953C234.672 198.078 234.672 196.25 234.719 194.375C235.422 194.375 236.172 194.375 236.875 194.375C236.875 193.625 236.875 192.922 236.875 192.172C236.125 192.172 235.422 192.172 234.719 192.172C234.719 191.469 234.719 190.766 234.719 189.969C235.422 189.969 236.125 189.969 236.875 189.969C236.875 189.219 236.875 188.516 236.875 187.766C237.672 187.766 238.375 187.766 239.125 187.766C239.125 189.219 239.125 190.672 239.125 192.172C239.922 192.172 240.625 192.172 241.328 192.172C241.328 192.922 241.328 193.625 241.328 194.375C240.625 194.375 239.875 194.375 239.125 194.375C239.125 195.172 239.125 195.875 239.125 196.625C238.375 196.625 237.672 196.625 236.969 196.625C236.969 198.125 236.969 199.578 236.969 201.078C238.469 201.078 239.875 201.078 241.328 201.078C241.328 201.828 241.328 202.531 241.328 203.281C239.875 203.281 238.422 203.281 236.969 203.281C236.969 205.578 236.969 207.781 236.969 209.984C238.469 209.984 239.875 209.984 241.328 209.984C241.328 210.688 241.328 211.391 241.328 212.188C242.125 212.188 242.828 212.188 243.578 212.188C243.578 212.938 243.578 213.641 243.578 214.391C242.125 214.391 240.672 214.391 239.172 214.391C239.172 215.141 239.172 215.891 239.172 216.594C238.375 216.594 237.672 216.594 236.969 216.594C236.969 215.844 236.969 215.188 236.969 214.391C236.781 214.391 236.594 214.391 236.406 214.391C234.531 214.391 232.656 214.391 230.828 214.391C230.641 214.391 230.453 214.344 230.219 214.344C230.219 213.641 230.219 212.938 230.219 212.188C231.766 212.188 233.219 212.188 234.672 212.188C234.672 210.688 234.672 209.234 234.672 207.828C233.969 207.828 233.219 207.828 232.469 207.828C232.516 207.078 232.516 206.328 232.562 205.578C231.766 205.578 231.063 205.578 230.359 205.578C230.359 206.328 230.359 207.031 230.359 207.828C231.063 207.828 231.766 207.828 232.469 207.828ZM225.859 198.875C225.859 198.125 225.859 197.422 225.859 196.719C225.109 196.719 224.406 196.719 223.703 196.719C223.703 197.469 223.703 198.172 223.703 198.875C224.406 198.875 225.109 198.875 225.859 198.875Z" fill="black"/>
<path d="M257.031 209.984C255.578 209.984 254.078 209.984 252.578 209.984C252.578 210.734 252.578 211.438 252.578 212.188C253.281 212.188 254.031 212.188 254.734 212.188C254.734 212.938 254.734 213.641 254.734 214.391C254.031 214.391 253.328 214.391 252.531 214.391C252.531 215.891 252.531 217.344 252.531 218.844C251.781 218.844 251.031 218.844 250.281 218.844C250.281 217.391 250.281 215.938 250.281 214.438C248.781 214.438 247.375 214.438 245.875 214.438C245.875 213.688 245.875 212.984 245.875 212.234C246.578 212.234 247.281 212.234 248.031 212.234C248.031 211.484 248.031 210.781 248.031 210.031C247.328 210.031 246.625 210.031 245.875 210.031C245.875 209.281 245.875 208.578 245.875 207.875C245.125 207.875 244.422 207.875 243.672 207.875C243.672 208.578 243.672 209.281 243.672 210.031C242.875 210.031 242.125 210.031 241.375 210.031C241.375 207.781 241.375 205.578 241.375 203.328C242.125 203.328 242.875 203.328 243.672 203.328C243.672 204.125 243.672 204.828 243.672 205.531C244.422 205.531 245.125 205.531 245.828 205.531C245.828 204.031 245.828 202.625 245.828 201.125C244.328 201.125 242.828 201.125 241.375 201.125C241.375 200.422 241.375 199.672 241.375 198.875C245.875 198.875 250.281 198.875 254.688 198.875C254.688 198.125 254.688 197.422 254.688 196.625C253.938 196.625 253.234 196.625 252.531 196.625C252.531 195.875 252.531 195.172 252.531 194.375C253.281 194.375 254.031 194.375 254.781 194.375C254.781 195.125 254.781 195.875 254.781 196.578C255.531 196.578 256.234 196.578 256.984 196.578C256.984 195.828 256.984 195.078 256.984 194.375C257.688 194.375 258.391 194.375 259.187 194.375C259.187 195.125 259.187 195.828 259.187 196.625C259.937 196.625 260.641 196.625 261.438 196.625C261.438 197.375 261.438 198.078 261.438 198.828C262.188 198.828 262.891 198.828 263.688 198.828C263.688 198.125 263.688 197.422 263.688 196.672C264.438 196.672 265.141 196.672 265.891 196.672C265.891 198.125 265.891 199.578 265.891 201.078C265.188 201.078 264.484 201.078 263.688 201.078C263.688 201.828 263.688 202.531 263.688 203.281C262.891 203.281 262.141 203.281 261.391 203.281C261.391 202.578 261.391 201.828 261.391 201.078C260.641 201.078 259.937 201.078 259.187 201.078C259.187 199.578 259.187 198.125 259.187 196.672C258.437 196.672 257.734 196.672 256.984 196.672C256.984 201.172 256.984 205.578 257.031 209.984ZM248.125 201.125C248.125 203.328 248.125 205.531 248.125 207.734C250.328 207.734 252.531 207.734 254.734 207.734C254.734 205.531 254.734 203.328 254.734 201.125C252.531 201.125 250.328 201.125 248.125 201.125Z" fill="black"/>
<path d="M210.344 163.344C215.5 163.344 220.656 163.344 225.859 163.344C225.859 168.5 225.859 173.656 225.859 178.859C220.703 178.859 215.547 178.859 210.344 178.859C210.344 173.703 210.344 168.547 210.344 163.344ZM212.547 176.609C216.25 176.609 219.906 176.609 223.609 176.609C223.609 172.906 223.609 169.25 223.609 165.594C219.906 165.594 216.25 165.594 212.547 165.594C212.547 169.25 212.547 172.906 212.547 176.609Z" fill="black"/>
<path d="M250.328 163.344C255.484 163.344 260.641 163.344 265.844 163.344C265.844 168.5 265.844 173.656 265.844 178.859C260.688 178.859 255.531 178.859 250.328 178.859C250.328 173.703 250.328 168.547 250.328 163.344ZM252.578 165.594C252.578 169.297 252.578 172.953 252.578 176.609C256.281 176.609 259.937 176.609 263.594 176.609C263.594 172.906 263.594 169.25 263.594 165.594C259.891 165.594 256.234 165.594 252.578 165.594Z" fill="black"/>
<path d="M210.344 203.328C215.5 203.328 220.656 203.328 225.859 203.328C225.859 208.484 225.859 213.641 225.859 218.844C220.703 218.844 215.547 218.844 210.344 218.844C210.344 213.688 210.344 208.531 210.344 203.328ZM212.594 205.578C212.594 209.281 212.594 212.937 212.594 216.594C216.297 216.594 219.953 216.594 223.656 216.594C223.656 212.891 223.656 209.234 223.656 205.578C219.906 205.578 216.25 205.578 212.594 205.578Z" fill="black"/>
<path d="M241.422 183.312C241.422 182.609 241.422 181.906 241.422 181.156C242.922 181.156 244.375 181.156 245.875 181.156C245.875 181.859 245.875 182.562 245.875 183.312C246.625 183.312 247.328 183.312 248.078 183.312C248.078 184.062 248.078 184.766 248.078 185.563C248.828 185.563 249.531 185.563 250.281 185.563C250.281 186.313 250.281 187.016 250.281 187.766C249.531 187.812 248.781 187.812 248.078 187.859C248.078 187.109 248.078 186.359 248.078 185.609C247.328 185.609 246.625 185.609 245.922 185.609C245.922 186.359 245.922 187.062 245.922 187.859C246.672 187.859 247.375 187.859 248.078 187.859C248.078 188.562 248.125 189.313 248.125 190.016C247.375 190.016 246.672 190.016 245.922 190.016C245.922 190.766 245.922 191.469 245.922 192.172C246.672 192.172 247.375 192.172 248.078 192.172C248.078 191.422 248.078 190.719 248.078 190.016C249.531 190.016 251.031 190.016 252.484 190.016C252.484 190.719 252.484 191.469 252.484 192.219C251.781 192.219 251.031 192.219 250.281 192.219C250.281 192.969 250.281 193.672 250.281 194.422C249.531 194.422 248.828 194.422 248.078 194.422C248.078 195.172 248.078 195.875 248.078 196.578C245.828 196.578 243.672 196.578 241.422 196.578C241.422 195.828 241.422 195.078 241.422 194.375C242.172 194.375 242.922 194.375 243.672 194.375C243.672 193.625 243.672 192.922 243.672 192.172C242.922 192.172 242.172 192.172 241.422 192.172C241.422 190.719 241.422 189.219 241.422 187.766C242.172 187.766 242.922 187.766 243.672 187.766C243.672 186.219 243.672 184.766 243.672 183.266C242.828 183.312 242.125 183.312 241.422 183.312Z" fill="black"/>
<path d="M259.187 214.391C258.484 214.391 257.781 214.391 257.031 214.391C257.031 212.938 257.031 211.484 257.031 210.031C257.781 210.031 258.484 210.031 259.281 210.031C259.281 207.781 259.281 205.578 259.281 203.328C260.031 203.328 260.734 203.328 261.484 203.328C261.484 203.938 261.531 204.547 261.531 205.109C261.531 205.484 261.672 205.578 262 205.578C263.125 205.578 264.25 205.578 265.375 205.578C265.563 205.578 265.75 205.578 265.938 205.578C265.938 206.328 265.938 207.031 265.938 207.781C264.484 207.781 263.031 207.781 261.531 207.781C261.531 208.531 261.531 209.234 261.531 209.984C262.984 209.984 264.438 209.984 265.938 209.984C265.938 210.734 265.938 211.437 265.938 212.187C265.234 212.187 264.531 212.187 263.781 212.187C263.781 213.687 263.781 215.141 263.781 216.641C264.484 216.641 265.188 216.641 265.938 216.641C265.938 217.391 265.938 218.094 265.938 218.844C262.281 218.844 258.625 218.844 254.922 218.844C254.922 218.141 254.922 217.437 254.922 216.641C256.375 216.641 257.781 216.641 259.281 216.641C259.141 215.844 259.141 215.094 259.187 214.391C259.937 214.391 260.641 214.391 261.438 214.391C261.438 213.688 261.438 212.984 261.438 212.281C260.688 212.281 259.984 212.281 259.187 212.281C259.187 212.984 259.187 213.688 259.187 214.391Z" fill="black"/>
<path d="M237.016 178.953C237.016 179.656 237.016 180.406 237.016 181.109C236.266 181.109 235.562 181.109 234.766 181.109C234.766 181.859 234.766 182.609 234.766 183.312C234.016 183.312 233.312 183.312 232.516 183.312C232.516 181.109 232.516 178.953 232.516 176.703C231.766 176.703 231.062 176.703 230.312 176.703C230.312 177.406 230.312 178.109 230.312 178.859C229.562 178.859 228.859 178.859 228.109 178.859C228.109 177.406 228.109 175.953 228.109 174.453C228.812 174.453 229.516 174.453 230.266 174.453C230.266 173.703 230.266 173 230.266 172.25C229.562 172.25 228.859 172.25 228.109 172.25C228.109 169.25 228.109 166.344 228.109 163.391C228.812 163.391 229.516 163.391 230.266 163.391C230.266 164.844 230.266 166.297 230.266 167.844C231.016 167.844 231.719 167.844 232.516 167.844C232.516 168.594 232.516 169.297 232.516 170.094C233.266 170.094 233.969 170.094 234.766 170.094C234.766 173.047 234.766 176 234.766 178.953C235.562 178.859 236.312 178.906 237.016 178.953Z" fill="black"/>
<path d="M241.375 170.047C241.375 170.656 241.422 171.312 241.422 171.922C241.422 172.766 241.375 173.609 241.375 174.453C239.922 174.453 238.469 174.453 236.969 174.453C236.969 172.25 236.969 170.094 236.969 167.844C236.219 167.844 235.516 167.844 234.766 167.844C234.766 167.094 234.766 166.391 234.766 165.594C236.219 165.594 237.672 165.594 239.172 165.594C239.172 164.844 239.172 164.141 239.172 163.391C239.922 163.391 240.625 163.391 241.375 163.391C241.375 164.094 241.375 164.797 241.375 165.547C242.125 165.547 242.828 165.547 243.625 165.547C243.625 164.844 243.625 164.141 243.625 163.391C244.375 163.391 245.078 163.391 245.875 163.391C245.875 164.141 245.875 164.844 245.875 165.594C246.625 165.594 247.328 165.594 248.078 165.594C248.078 166.344 248.078 167.047 248.078 167.797C247.375 167.797 246.672 167.797 245.922 167.797C245.922 167.094 245.922 166.391 245.922 165.641C245.172 165.641 244.469 165.641 243.672 165.641C243.672 167.094 243.672 168.547 243.672 170.094C242.875 170.047 242.125 170.047 241.375 170.047C241.375 169.297 241.375 168.594 241.375 167.844C240.672 167.844 239.969 167.844 239.266 167.844C239.266 168.594 239.266 169.297 239.266 170.047C239.969 170.047 240.672 170.047 241.375 170.047Z" fill="black"/>
<path d="M225.906 187.813C227.359 187.813 228.812 187.813 230.312 187.813C230.312 187.063 230.312 186.312 230.312 185.609C231.812 185.609 233.266 185.609 234.766 185.609C234.766 186.312 234.766 187.016 234.766 187.813C234.016 187.813 233.313 187.813 232.563 187.813C232.563 188.563 232.563 189.266 232.563 190.016C231.813 190.016 231.109 190.016 230.359 190.016C230.359 190.766 230.359 191.469 230.359 192.219C227.359 192.219 224.453 192.219 221.5 192.219C221.5 191.516 221.5 190.812 221.5 190.062C222.953 190.062 224.406 190.062 225.953 190.062C225.906 189.266 225.906 188.516 225.906 187.813Z" fill="black"/>
<path d="M225.906 187.812C225.156 187.812 224.453 187.812 223.656 187.812C223.656 187.016 223.656 186.312 223.656 185.609C222.906 185.609 222.203 185.609 221.453 185.609C221.453 186.312 221.453 187.016 221.453 187.766C220.703 187.766 220 187.766 219.25 187.766C219.25 187.062 219.25 186.359 219.25 185.563C219.953 185.563 220.656 185.563 221.406 185.563C221.406 184.813 221.406 184.109 221.406 183.359C220.703 183.359 220 183.359 219.25 183.359C219.25 182.609 219.25 181.906 219.25 181.156C221.406 181.156 223.609 181.156 225.906 181.156C225.906 181.859 225.906 182.609 225.906 183.312C225.156 183.312 224.453 183.312 223.703 183.312C223.703 184.109 223.703 184.812 223.703 185.516C224.453 185.516 225.156 185.516 225.906 185.516C225.906 184.766 225.906 184.016 225.906 183.312C226.609 183.312 227.312 183.312 228.062 183.312C228.062 184.062 228.062 184.813 228.062 185.563C227.359 185.563 226.656 185.563 225.906 185.563C225.906 186.313 225.906 187.062 225.906 187.812Z" fill="black"/>
<path d="M256.984 183.266C256.984 182.562 256.984 181.859 256.984 181.109C259.938 181.109 262.891 181.109 265.844 181.109C265.844 181.813 265.844 182.516 265.844 183.266C265.141 183.266 264.438 183.266 263.688 183.266C263.688 184.016 263.688 184.719 263.688 185.469C262.891 185.469 262.187 185.469 261.437 185.469C261.437 184.766 261.437 184.062 261.437 183.266C261.156 183.266 260.922 183.266 260.734 183.266C259.469 183.312 258.203 183.266 256.984 183.266Z" fill="black"/>
<path d="M230.266 214.344C230.266 215.094 230.266 215.844 230.266 216.641C231.063 216.641 231.766 216.641 232.516 216.641C232.516 217.391 232.516 218.141 232.516 218.844C231.062 218.844 229.609 218.844 228.156 218.844C228.156 217.391 228.156 215.937 228.156 214.344C228.859 214.344 229.563 214.344 230.266 214.344Z" fill="black"/>
<path d="M256.984 183.266C256.984 184.016 256.984 184.766 256.984 185.563C257.734 185.563 258.437 185.563 259.187 185.563C259.187 186.359 259.187 187.109 259.187 187.812C257.734 187.812 256.234 187.812 254.781 187.812C254.781 186.313 254.781 184.766 254.828 183.266C255.578 183.266 256.281 183.266 256.984 183.266Z" fill="black"/>
<path d="M216.953 198.922C216.953 199.625 216.953 200.328 216.953 201.078C214.75 201.078 212.547 201.078 210.344 201.078C210.344 200.375 210.344 199.672 210.344 198.922C212.547 198.922 214.75 198.922 216.953 198.922Z" fill="black"/>
<path d="M259.187 187.812C259.891 187.812 260.641 187.812 261.391 187.812C261.391 189.266 261.391 190.719 261.391 192.172C259.891 192.172 258.438 192.172 256.984 192.172C256.984 191.469 256.984 190.719 256.984 189.969C257.734 189.969 258.437 189.969 259.187 189.969C259.187 189.219 259.187 188.516 259.187 187.812Z" fill="black"/>
<path d="M241.375 174.406C242.172 174.406 242.969 174.406 243.719 174.406C243.719 174.969 243.672 175.531 243.672 176.094C243.672 176.984 243.672 177.922 243.672 178.859C242.922 178.859 242.219 178.859 241.422 178.859C241.375 177.359 241.375 175.859 241.375 174.406Z" fill="black"/>
<path d="M241.469 218.844C241.469 218.094 241.469 217.438 241.469 216.688C242.922 216.688 244.375 216.688 245.875 216.688C245.875 217.391 245.875 218.094 245.875 218.844C244.375 218.844 242.969 218.844 241.469 218.844Z" fill="black"/>
<path d="M239.219 183.313C239.969 183.313 240.672 183.313 241.422 183.313C241.422 184.813 241.422 186.313 241.422 187.813C240.672 187.813 239.969 187.813 239.219 187.813C239.219 186.313 239.219 184.766 239.219 183.313Z" fill="black"/>
<path d="M214.844 183.266C214.188 183.266 213.484 183.312 212.828 183.312C212.031 183.312 211.188 183.312 210.344 183.312C210.344 182.562 210.344 181.859 210.344 181.109C211.797 181.109 213.25 181.109 214.75 181.109C214.75 181.859 214.797 182.562 214.844 183.266Z" fill="black"/>
<path d="M245.922 174.359C246.625 174.359 247.328 174.359 248.078 174.359C248.078 175.906 248.078 177.359 248.078 178.859C247.375 178.859 246.672 178.859 245.969 178.859C245.969 178.812 245.922 178.812 245.922 178.766C245.922 177.313 245.922 175.812 245.922 174.359Z" fill="black"/>
<path d="M232.516 194.422C232.516 193.719 232.516 192.969 232.516 192.219C233.359 192.219 234.109 192.219 234.813 192.219C234.813 192.969 234.813 193.672 234.813 194.422C234.016 194.375 233.266 194.375 232.516 194.422Z" fill="black"/>
<path d="M254.828 183.266C254.078 183.266 253.328 183.266 252.578 183.266C252.578 182.609 252.578 181.906 252.578 181.156C253.281 181.156 253.984 181.156 254.734 181.156C254.781 181.859 254.828 182.562 254.828 183.266Z" fill="black"/>
<path d="M252.484 190.016C252.484 189.313 252.484 188.563 252.484 187.812C253.328 187.812 254.078 187.812 254.781 187.812C254.781 188.516 254.781 189.266 254.781 190.016C253.984 190.016 253.234 190.016 252.484 190.016Z" fill="black"/>
<path d="M237.062 178.953C237.062 178.203 237.062 177.453 237.062 176.703C237.766 176.703 238.469 176.703 239.219 176.703C239.219 177.453 239.219 178.156 239.219 178.953C238.469 178.953 237.719 178.953 237.062 178.953Z" fill="black"/>
<path d="M212.5 187.766C211.75 187.766 211.047 187.766 210.344 187.766C210.344 187.016 210.344 186.312 210.344 185.609C211.094 185.609 211.797 185.609 212.5 185.609C212.5 186.312 212.5 187.016 212.5 187.766Z" fill="black"/>
<path d="M214.844 183.266C215.547 183.266 216.25 183.266 216.953 183.266C216.953 184.062 216.953 184.766 216.953 185.516C216.25 185.516 215.547 185.516 214.844 185.516C214.844 184.766 214.844 184.016 214.844 183.266Z" fill="black"/>
<path d="M245.969 172.25C245.969 171.547 245.969 170.797 245.969 170.047C246.625 170.047 247.328 170.047 248.078 170.047C248.078 170.75 248.078 171.453 248.078 172.25C247.375 172.25 246.625 172.25 245.969 172.25Z" fill="black"/>
<path d="M243.719 174.406C243.672 173.703 243.625 172.953 243.625 172.203C244.422 172.203 245.172 172.203 245.969 172.203C245.969 172.906 245.969 173.609 245.969 174.359C245.219 174.359 244.469 174.406 243.719 174.406Z" fill="black"/>
<path d="M214.797 187.812C215.5 187.812 216.203 187.812 216.953 187.812C216.953 188.516 216.953 189.219 216.953 189.969C216.25 189.969 215.547 189.969 214.797 189.969C214.797 189.266 214.797 188.562 214.797 187.812Z" fill="black"/>
<path d="M237.016 181.109C237.719 181.109 238.422 181.109 239.219 181.109C239.219 181.859 239.219 182.609 239.219 183.313C238.516 183.313 237.766 183.313 237.016 183.313C237.016 182.563 237.016 181.813 237.016 181.109Z" fill="black"/>
<path d="M265.844 190.016C265.844 190.719 265.844 191.422 265.844 192.125C265.094 192.125 264.391 192.125 263.688 192.125C263.688 191.422 263.688 190.719 263.688 190.016C264.391 190.016 265.094 190.016 265.844 190.016Z" fill="black"/>
<path d="M210.344 192.219C211.094 192.219 211.797 192.219 212.5 192.219C212.5 192.922 212.5 193.625 212.5 194.375C211.75 194.375 211.047 194.375 210.344 194.375C210.344 193.672 210.344 192.969 210.344 192.219Z" fill="black"/>
<path d="M256.984 192.172C256.984 192.922 256.984 193.625 256.984 194.375C256.234 194.375 255.531 194.375 254.781 194.375C254.781 193.672 254.781 192.922 254.781 192.172C255.578 192.219 256.281 192.219 256.984 192.172Z" fill="black"/>
<path d="M256.984 192.219C256.281 192.219 255.531 192.219 254.781 192.219C254.781 192.969 254.781 193.719 254.781 194.422C254.031 194.422 253.328 194.422 252.531 194.422C252.531 195.172 252.531 195.875 252.531 196.672C253.234 196.672 253.938 196.672 254.688 196.672C254.688 197.422 254.688 198.125 254.688 198.922C250.281 198.922 245.875 198.922 241.375 198.922C241.375 199.719 241.375 200.422 241.375 201.172C239.922 201.172 238.469 201.172 237.016 201.172C237.016 199.672 237.016 198.219 237.016 196.719C237.719 196.719 238.469 196.719 239.172 196.719C239.172 195.969 239.172 195.266 239.172 194.469C239.922 194.469 240.672 194.469 241.375 194.469C241.375 195.219 241.375 195.922 241.375 196.672C243.625 196.672 245.828 196.672 248.031 196.672C248.031 195.969 248.031 195.266 248.031 194.516C248.781 194.516 249.484 194.516 250.234 194.516C250.234 193.766 250.234 193.062 250.234 192.312C250.984 192.312 251.688 192.312 252.438 192.312C252.438 191.516 252.438 190.812 252.438 190.109C253.188 190.109 253.937 190.109 254.734 190.109C254.734 189.359 254.734 188.609 254.734 187.906C256.187 187.906 257.688 187.906 259.141 187.906C259.141 188.609 259.141 189.312 259.141 190.109C258.391 190.109 257.688 190.109 256.938 190.109C256.984 190.766 256.984 191.469 256.984 192.219Z" fill="white"/>
<path d="M241.422 203.281C241.422 205.531 241.422 207.734 241.422 209.984C239.969 209.984 238.516 209.984 237.062 209.984C237.062 207.734 237.062 205.578 237.062 203.281C238.469 203.281 239.969 203.281 241.422 203.281Z" fill="white"/>
<path d="M232.469 194.375C233.266 194.375 234.016 194.375 234.812 194.375C234.812 196.25 234.766 198.078 234.766 199.953C234.766 200.328 234.766 200.656 234.766 201.078C234.016 201.078 233.312 201.078 232.516 201.078C232.516 200.891 232.516 200.703 232.516 200.516C232.516 198.688 232.516 196.813 232.516 194.984C232.516 194.797 232.516 194.609 232.469 194.375Z" fill="white"/>
<path d="M241.375 201.078C242.875 201.078 244.328 201.078 245.828 201.078C245.828 202.578 245.828 203.984 245.828 205.484C245.125 205.484 244.422 205.484 243.672 205.484C243.672 204.781 243.672 204.078 243.672 203.281C242.875 203.281 242.125 203.281 241.375 203.281C241.375 202.578 241.375 201.828 241.375 201.078Z" fill="white"/>
<path d="M239.172 187.812C239.922 187.812 240.625 187.812 241.375 187.812C241.375 189.266 241.375 190.766 241.375 192.219C240.672 192.219 239.969 192.219 239.172 192.219C239.172 190.719 239.172 189.266 239.172 187.812Z" fill="white"/>
<path d="M241.375 192.172C242.125 192.172 242.828 192.172 243.625 192.172C243.625 192.922 243.625 193.625 243.625 194.375C242.875 194.375 242.125 194.375 241.375 194.375C241.375 193.672 241.375 192.922 241.375 192.172Z" fill="white"/>
<path d="M228.109 201.125C228.109 200.422 228.109 199.672 228.109 198.922C228.859 198.922 229.562 198.922 230.312 198.922C230.312 199.672 230.312 200.375 230.312 201.125C229.562 201.078 228.812 201.078 228.109 201.125Z" fill="white"/>
<path d="M234.812 194.422C234.812 193.672 234.812 192.969 234.812 192.219C235.516 192.219 236.219 192.219 236.969 192.219C236.969 192.969 236.969 193.672 236.969 194.422C236.219 194.422 235.516 194.422 234.812 194.422Z" fill="white"/>
<path d="M232.469 207.828C231.766 207.828 231.109 207.828 230.359 207.828C230.359 207.031 230.359 206.328 230.359 205.578C231.063 205.578 231.766 205.578 232.563 205.578C232.516 206.328 232.469 207.078 232.469 207.828Z" fill="white"/>
<path d="M225.859 198.875C225.109 198.875 224.453 198.875 223.703 198.875C223.703 198.125 223.703 197.469 223.703 196.719C224.406 196.719 225.109 196.719 225.859 196.719C225.859 197.422 225.859 198.125 225.859 198.875Z" fill="white"/>
<path d="M248.125 201.125C250.328 201.125 252.531 201.125 254.734 201.125C254.734 203.328 254.734 205.531 254.734 207.734C252.531 207.734 250.328 207.734 248.125 207.734C248.125 205.531 248.125 203.328 248.125 201.125ZM252.531 203.375C251.781 203.375 251.078 203.375 250.375 203.375C250.375 204.125 250.375 204.828 250.375 205.531C251.125 205.531 251.828 205.531 252.531 205.531C252.531 204.781 252.531 204.078 252.531 203.375Z" fill="white"/>
<path d="M261.391 203.328C260.688 203.328 259.984 203.328 259.187 203.328C259.187 205.578 259.187 207.781 259.187 210.031C258.391 210.031 257.688 210.031 256.938 210.031C256.938 205.625 256.938 201.172 256.938 196.719C257.688 196.719 258.391 196.719 259.141 196.719C259.141 198.172 259.141 199.625 259.141 201.125C259.891 201.125 260.594 201.125 261.344 201.125C261.391 201.875 261.391 202.578 261.391 203.328Z" fill="white"/>
<path d="M254.781 194.375C255.531 194.375 256.234 194.375 256.984 194.375C256.984 195.078 256.984 195.828 256.984 196.578C256.234 196.578 255.531 196.578 254.781 196.578C254.781 195.875 254.781 195.125 254.781 194.375Z" fill="white"/>
<path d="M212.547 176.609C212.547 172.906 212.547 169.25 212.547 165.594C216.25 165.594 219.906 165.594 223.609 165.594C223.609 169.297 223.609 172.953 223.609 176.609C219.953 176.609 216.297 176.609 212.547 176.609ZM214.797 167.797C214.797 170 214.797 172.203 214.797 174.359C217 174.359 219.203 174.359 221.406 174.359C221.406 172.156 221.406 170 221.406 167.797C219.203 167.797 217 167.797 214.797 167.797Z" fill="white"/>
<path d="M252.578 165.594C256.234 165.594 259.891 165.594 263.594 165.594C263.594 169.25 263.594 172.906 263.594 176.609C259.938 176.609 256.281 176.609 252.578 176.609C252.578 172.953 252.578 169.297 252.578 165.594ZM261.391 167.797C259.141 167.797 256.984 167.797 254.781 167.797C254.781 170 254.781 172.156 254.781 174.359C256.984 174.359 259.188 174.359 261.391 174.359C261.391 172.156 261.391 170 261.391 167.797Z" fill="white"/>
<path d="M212.594 205.578C216.297 205.578 219.953 205.578 223.656 205.578C223.656 209.281 223.656 212.938 223.656 216.594C219.953 216.594 216.297 216.594 212.594 216.594C212.594 212.938 212.594 209.281 212.594 205.578ZM214.797 214.391C217.047 214.391 219.203 214.391 221.406 214.391C221.406 212.188 221.406 210.031 221.406 207.828C219.203 207.828 217 207.828 214.797 207.828C214.797 210.031 214.797 212.188 214.797 214.391Z" fill="white"/>
<path d="M241.375 187.813C241.375 186.313 241.375 184.813 241.375 183.312C242.125 183.312 242.828 183.312 243.625 183.312C243.625 184.813 243.625 186.266 243.625 187.813C242.875 187.813 242.125 187.813 241.375 187.813Z" fill="white"/>
<path d="M248.078 189.969C248.078 190.672 248.078 191.375 248.078 192.125C247.328 192.125 246.625 192.125 245.922 192.125C245.922 191.422 245.922 190.719 245.922 189.969C246.672 190.016 247.375 190.016 248.078 189.969Z" fill="white"/>
<path d="M248.078 187.812C247.375 187.812 246.672 187.812 245.922 187.812C245.922 187.016 245.922 186.312 245.922 185.562C246.625 185.562 247.328 185.562 248.078 185.562C248.078 186.312 248.078 187.109 248.078 187.812Z" fill="white"/>
<path d="M259.187 214.391C259.187 213.688 259.187 212.984 259.187 212.281C259.937 212.281 260.687 212.281 261.437 212.281C261.437 212.984 261.437 213.688 261.437 214.391C260.641 214.344 259.891 214.344 259.187 214.391Z" fill="white"/>
<path d="M241.375 170.047C240.672 170.047 239.969 170.047 239.266 170.047C239.266 169.297 239.266 168.594 239.266 167.844C239.969 167.844 240.672 167.844 241.375 167.844C241.375 168.547 241.375 169.297 241.375 170.047Z" fill="white"/>
<path d="M225.906 183.266C225.906 184.016 225.906 184.719 225.906 185.469C225.156 185.469 224.453 185.469 223.703 185.469C223.703 184.766 223.703 184.016 223.703 183.266C224.453 183.313 225.156 183.313 225.906 183.266Z" fill="white"/>
<path d="M252.531 203.375C252.531 204.125 252.531 204.781 252.531 205.531C251.828 205.531 251.078 205.531 250.375 205.531C250.375 204.828 250.375 204.125 250.375 203.375C251.078 203.375 251.781 203.375 252.531 203.375Z" fill="black"/>
<path d="M214.797 167.797C217 167.797 219.203 167.797 221.406 167.797C221.406 170 221.406 172.156 221.406 174.359C219.203 174.359 217.047 174.359 214.797 174.359C214.797 172.203 214.797 170.047 214.797 167.797Z" fill="black"/>
<path d="M261.391 167.797C261.391 170 261.391 172.156 261.391 174.359C259.187 174.359 257.031 174.359 254.781 174.359C254.781 172.156 254.781 170 254.781 167.797C256.984 167.797 259.187 167.797 261.391 167.797Z" fill="black"/>
<path d="M214.797 214.391C214.797 212.188 214.797 210.031 214.797 207.828C217 207.828 219.156 207.828 221.406 207.828C221.406 210.031 221.406 212.188 221.406 214.391C219.203 214.391 217.047 214.391 214.797 214.391Z" fill="black"/>
<rect x="452" y="273" width="245" height="39" transform="rotate(-90 452 273)" fill="url(#paint0_linear_45_155)"/>
<rect x="309" y="133" width="25" height="158" fill="#EBEEF8"/>
<rect x="45" y="248" width="435" height="43" fill="url(#paint1_linear_45_155)"/>
<rect x="313" y="47" width="17" height="29" fill="#D4D9EA"/>
<rect x="313" y="47" width="17" height="12" fill="#C1C8DF"/>
</g>
<defs>
<linearGradient id="paint0_linear_45_155" x1="574.5" y1="312" x2="574.5" y2="273" gradientUnits="userSpaceOnUse">
<stop stop-color="#F8F9FD"/>
<stop offset="1" stop-color="#F8F9FD" stop-opacity="0"/>
</linearGradient>
<linearGradient id="paint1_linear_45_155" x1="262.5" y1="291" x2="262.5" y2="248" gradientUnits="userSpaceOnUse">
<stop stop-color="#F8F9FD"/>
<stop offset="1" stop-color="#F8F9FD" stop-opacity="0"/>
</linearGradient>
</defs>
</svg>
