<svg width="480" height="277" viewBox="0 0 480 277" fill="none" xmlns="http://www.w3.org/2000/svg">
<mask id="mask0_51_182" style="mask-type:alpha" maskUnits="userSpaceOnUse" x="0" y="0" width="480" height="277">
<rect width="480" height="277" rx="29" fill="#F8F9FD"/>
</mask>
<g mask="url(#mask0_51_182)">
<rect width="480" height="277" rx="29" fill="#F8F9FD"/>
<rect x="146" y="56" width="99" height="117" fill="white"/>
<path d="M153.632 155.727H155.528L157.531 160.614H157.616L159.619 155.727H161.516V163H160.024V158.266H159.964L158.082 162.964H157.066L155.184 158.249H155.124V163H153.632V155.727ZM164.309 163.103C163.961 163.103 163.651 163.043 163.379 162.922C163.107 162.799 162.891 162.618 162.733 162.379C162.577 162.137 162.498 161.836 162.498 161.477C162.498 161.174 162.554 160.919 162.665 160.713C162.777 160.507 162.928 160.341 163.12 160.216C163.312 160.09 163.529 159.996 163.773 159.932C164.019 159.868 164.278 159.823 164.547 159.797C164.865 159.764 165.12 159.733 165.314 159.705C165.509 159.674 165.649 159.629 165.737 159.57C165.825 159.51 165.868 159.423 165.868 159.307V159.286C165.868 159.061 165.797 158.887 165.655 158.763C165.516 158.64 165.317 158.579 165.059 158.579C164.787 158.579 164.57 158.639 164.409 158.76C164.248 158.878 164.141 159.027 164.089 159.207L162.69 159.094C162.761 158.762 162.901 158.476 163.109 158.234C163.318 157.991 163.586 157.804 163.915 157.673C164.247 157.541 164.63 157.474 165.066 157.474C165.369 157.474 165.659 157.51 165.936 157.581C166.215 157.652 166.463 157.762 166.678 157.911C166.896 158.06 167.068 158.252 167.193 158.487C167.318 158.719 167.381 158.997 167.381 159.321V163H165.947V162.244H165.904C165.816 162.414 165.699 162.564 165.552 162.695C165.406 162.822 165.229 162.923 165.023 162.996C164.817 163.067 164.579 163.103 164.309 163.103ZM164.743 162.059C164.965 162.059 165.162 162.015 165.332 161.928C165.503 161.838 165.636 161.717 165.733 161.565C165.831 161.414 165.879 161.242 165.879 161.05V160.472C165.832 160.502 165.767 160.531 165.684 160.557C165.603 160.58 165.512 160.603 165.41 160.624C165.309 160.643 165.207 160.661 165.105 160.678C165.003 160.692 164.911 160.705 164.828 160.717C164.65 160.743 164.495 160.784 164.363 160.841C164.23 160.898 164.127 160.975 164.054 161.072C163.98 161.166 163.944 161.285 163.944 161.427C163.944 161.633 164.018 161.79 164.167 161.899C164.319 162.006 164.511 162.059 164.743 162.059ZM168.555 163V157.545H170.068V163H168.555ZM169.315 156.842C169.09 156.842 168.897 156.768 168.736 156.619C168.577 156.467 168.498 156.286 168.498 156.075C168.498 155.867 168.577 155.688 168.736 155.539C168.897 155.388 169.09 155.312 169.315 155.312C169.54 155.312 169.731 155.388 169.89 155.539C170.051 155.688 170.132 155.867 170.132 156.075C170.132 156.286 170.051 156.467 169.89 156.619C169.731 156.768 169.54 156.842 169.315 156.842ZM172.792 159.847V163H171.279V157.545H172.721V158.508H172.785C172.906 158.191 173.108 157.94 173.392 157.755C173.676 157.568 174.021 157.474 174.426 157.474C174.805 157.474 175.135 157.557 175.417 157.723C175.698 157.889 175.917 158.125 176.074 158.433C176.23 158.739 176.308 159.103 176.308 159.527V163H174.795V159.797C174.797 159.463 174.712 159.203 174.539 159.016C174.367 158.826 174.129 158.732 173.826 158.732C173.622 158.732 173.442 158.775 173.286 158.863C173.132 158.951 173.011 159.078 172.924 159.246C172.838 159.412 172.795 159.612 172.792 159.847ZM180.401 157.545V158.682H177.117V157.545H180.401ZM177.862 156.239H179.375V161.324C179.375 161.464 179.396 161.572 179.439 161.651C179.482 161.726 179.541 161.78 179.617 161.81C179.695 161.841 179.785 161.857 179.887 161.857C179.958 161.857 180.029 161.851 180.1 161.839C180.171 161.825 180.225 161.814 180.263 161.807L180.501 162.933C180.425 162.956 180.319 162.983 180.181 163.014C180.044 163.047 179.877 163.067 179.681 163.075C179.316 163.089 178.996 163.04 178.722 162.929C178.45 162.818 178.238 162.645 178.086 162.411C177.935 162.176 177.86 161.88 177.862 161.523V156.239ZM183.814 163.107C183.253 163.107 182.77 162.993 182.365 162.766C181.963 162.536 181.653 162.212 181.435 161.793C181.217 161.371 181.108 160.873 181.108 160.298C181.108 159.737 181.217 159.244 181.435 158.82C181.653 158.397 181.959 158.066 182.355 157.83C182.752 157.593 183.219 157.474 183.754 157.474C184.114 157.474 184.449 157.532 184.759 157.648C185.071 157.762 185.343 157.934 185.575 158.163C185.81 158.393 185.992 158.682 186.122 159.03C186.253 159.375 186.318 159.78 186.318 160.244V160.66H181.712V159.722H184.894C184.894 159.504 184.846 159.312 184.752 159.143C184.657 158.975 184.526 158.844 184.357 158.749C184.192 158.652 183.999 158.604 183.779 158.604C183.549 158.604 183.345 158.657 183.168 158.763C182.993 158.868 182.855 159.009 182.756 159.186C182.656 159.361 182.606 159.557 182.603 159.772V160.663C182.603 160.933 182.653 161.166 182.752 161.363C182.854 161.559 182.997 161.711 183.182 161.817C183.367 161.924 183.586 161.977 183.839 161.977C184.007 161.977 184.161 161.954 184.301 161.906C184.44 161.859 184.56 161.788 184.659 161.693C184.759 161.598 184.834 161.482 184.887 161.345L186.286 161.438C186.215 161.774 186.069 162.067 185.849 162.318C185.631 162.567 185.349 162.761 185.004 162.901C184.66 163.038 184.264 163.107 183.814 163.107ZM188.818 159.847V163H187.305V157.545H188.747V158.508H188.811C188.931 158.191 189.134 157.94 189.418 157.755C189.702 157.568 190.046 157.474 190.451 157.474C190.83 157.474 191.16 157.557 191.442 157.723C191.724 157.889 191.943 158.125 192.099 158.433C192.255 158.739 192.333 159.103 192.333 159.527V163H190.82V159.797C190.823 159.463 190.738 159.203 190.565 159.016C190.392 158.826 190.154 158.732 189.851 158.732C189.647 158.732 189.468 158.775 189.311 158.863C189.157 158.951 189.037 159.078 188.949 159.246C188.864 159.412 188.82 159.612 188.818 159.847ZM195.081 163.103C194.733 163.103 194.423 163.043 194.151 162.922C193.878 162.799 193.663 162.618 193.504 162.379C193.348 162.137 193.27 161.836 193.27 161.477C193.27 161.174 193.326 160.919 193.437 160.713C193.548 160.507 193.7 160.341 193.891 160.216C194.083 160.09 194.301 159.996 194.545 159.932C194.791 159.868 195.049 159.823 195.319 159.797C195.636 159.764 195.892 159.733 196.086 159.705C196.28 159.674 196.421 159.629 196.509 159.57C196.596 159.51 196.64 159.423 196.64 159.307V159.286C196.64 159.061 196.569 158.887 196.427 158.763C196.287 158.64 196.088 158.579 195.83 158.579C195.558 158.579 195.341 158.639 195.18 158.76C195.019 158.878 194.913 159.027 194.861 159.207L193.462 159.094C193.533 158.762 193.672 158.476 193.881 158.234C194.089 157.991 194.358 157.804 194.687 157.673C195.018 157.541 195.402 157.474 195.837 157.474C196.14 157.474 196.43 157.51 196.707 157.581C196.987 157.652 197.234 157.762 197.45 157.911C197.667 158.06 197.839 158.252 197.964 158.487C198.09 158.719 198.153 158.997 198.153 159.321V163H196.718V162.244H196.675C196.588 162.414 196.471 162.564 196.324 162.695C196.177 162.822 196.001 162.923 195.795 162.996C195.589 163.067 195.351 163.103 195.081 163.103ZM195.514 162.059C195.737 162.059 195.933 162.015 196.104 161.928C196.274 161.838 196.408 161.717 196.505 161.565C196.602 161.414 196.651 161.242 196.651 161.05V160.472C196.603 160.502 196.538 160.531 196.455 160.557C196.375 160.58 196.284 160.603 196.182 160.624C196.08 160.643 195.978 160.661 195.876 160.678C195.775 160.692 195.682 160.705 195.599 160.717C195.422 160.743 195.267 160.784 195.134 160.841C195.002 160.898 194.899 160.975 194.825 161.072C194.752 161.166 194.715 161.285 194.715 161.427C194.715 161.633 194.79 161.79 194.939 161.899C195.09 162.006 195.282 162.059 195.514 162.059ZM200.839 159.847V163H199.326V157.545H200.768V158.508H200.832C200.953 158.191 201.155 157.94 201.439 157.755C201.723 157.568 202.068 157.474 202.473 157.474C202.851 157.474 203.182 157.557 203.463 157.723C203.745 157.889 203.964 158.125 204.12 158.433C204.277 158.739 204.355 159.103 204.355 159.527V163H202.842V159.797C202.844 159.463 202.759 159.203 202.586 159.016C202.413 158.826 202.176 158.732 201.873 158.732C201.669 158.732 201.489 158.775 201.333 158.863C201.179 158.951 201.058 159.078 200.971 159.246C200.885 159.412 200.842 159.612 200.839 159.847ZM208.012 163.107C207.453 163.107 206.972 162.988 206.57 162.751C206.17 162.512 205.862 162.181 205.646 161.757C205.433 161.333 205.327 160.846 205.327 160.294C205.327 159.735 205.435 159.245 205.65 158.824C205.868 158.4 206.177 158.07 206.577 157.833C206.977 157.594 207.453 157.474 208.004 157.474C208.48 157.474 208.897 157.561 209.254 157.734C209.612 157.906 209.895 158.149 210.103 158.462C210.311 158.774 210.426 159.141 210.448 159.562H209.02C208.98 159.29 208.873 159.071 208.7 158.906C208.53 158.737 208.306 158.653 208.029 158.653C207.795 158.653 207.59 158.717 207.415 158.845C207.242 158.971 207.107 159.154 207.01 159.396C206.913 159.637 206.865 159.929 206.865 160.273C206.865 160.621 206.912 160.917 207.007 161.161C207.104 161.404 207.24 161.59 207.415 161.718C207.59 161.846 207.795 161.91 208.029 161.91C208.202 161.91 208.357 161.874 208.494 161.803C208.634 161.732 208.749 161.629 208.839 161.494C208.931 161.357 208.992 161.192 209.02 161.001H210.448C210.424 161.417 210.31 161.784 210.107 162.102C209.905 162.416 209.627 162.663 209.272 162.84C208.917 163.018 208.497 163.107 208.012 163.107ZM213.902 163.107C213.341 163.107 212.858 162.993 212.453 162.766C212.051 162.536 211.741 162.212 211.523 161.793C211.305 161.371 211.196 160.873 211.196 160.298C211.196 159.737 211.305 159.244 211.523 158.82C211.741 158.397 212.047 158.066 212.442 157.83C212.84 157.593 213.307 157.474 213.842 157.474C214.201 157.474 214.536 157.532 214.847 157.648C215.159 157.762 215.431 157.934 215.663 158.163C215.898 158.393 216.08 158.682 216.21 159.03C216.34 159.375 216.406 159.78 216.406 160.244V160.66H211.8V159.722H214.982C214.982 159.504 214.934 159.312 214.839 159.143C214.745 158.975 214.613 158.844 214.445 158.749C214.28 158.652 214.087 158.604 213.866 158.604C213.637 158.604 213.433 158.657 213.256 158.763C213.08 158.868 212.943 159.009 212.844 159.186C212.744 159.361 212.693 159.557 212.691 159.772V160.663C212.691 160.933 212.741 161.166 212.84 161.363C212.942 161.559 213.085 161.711 213.27 161.817C213.455 161.924 213.674 161.977 213.927 161.977C214.095 161.977 214.249 161.954 214.388 161.906C214.528 161.859 214.648 161.788 214.747 161.693C214.847 161.598 214.922 161.482 214.974 161.345L216.374 161.438C216.303 161.774 216.157 162.067 215.937 162.318C215.719 162.567 215.437 162.761 215.092 162.901C214.748 163.038 214.352 163.107 213.902 163.107Z" fill="black"/>
<path d="M188.596 128.592C188.662 129.577 188.727 130.562 188.727 131.613C186.56 131.613 184.59 131.613 182.489 131.613C182.489 129.577 182.489 127.541 182.489 125.44C183.474 125.44 184.459 125.44 185.51 125.44C185.51 124.389 185.51 123.404 185.51 122.287C184.525 122.287 183.539 122.287 182.423 122.287C182.423 121.171 182.423 120.186 182.423 119.135C183.408 119.135 184.459 119.135 185.51 119.135C185.51 118.085 185.51 117.099 185.51 116.049C184.459 116.049 183.474 116.049 182.423 116.049C182.423 117.099 182.423 118.085 182.423 119.135C179.337 119.135 176.25 119.135 173.032 119.135C173.032 117.034 173.032 114.998 173.032 112.897C169.946 112.897 166.859 112.897 163.773 112.897C163.773 111.846 163.773 110.861 163.773 109.744C164.758 109.744 165.743 109.744 166.794 109.744C166.794 108.694 166.794 107.709 166.794 106.658C167.844 106.658 168.829 106.658 169.88 106.658C169.88 107.643 169.88 108.694 169.88 109.744C173.032 109.744 176.119 109.744 179.205 109.744C179.205 110.795 179.205 111.78 179.205 112.831C180.256 112.831 181.241 112.831 182.292 112.831C182.292 111.846 182.292 110.861 182.292 109.744C184.393 109.744 186.429 109.744 188.465 109.744C188.465 110.007 188.53 110.27 188.53 110.598C188.53 113.159 188.53 115.786 188.53 118.347C188.53 118.61 188.53 118.873 188.53 119.135C189.581 119.135 190.566 119.135 191.683 119.135C191.683 118.61 191.683 118.085 191.683 117.559C191.683 114.932 191.683 112.371 191.748 109.744C192.733 109.744 193.784 109.744 194.769 109.744C194.769 108.694 194.769 107.709 194.769 106.658C193.718 106.658 192.733 106.658 191.748 106.658C191.748 105.673 191.748 104.688 191.748 103.571C192.733 103.571 193.718 103.571 194.769 103.571C194.769 102.521 194.769 101.536 194.769 100.485C195.886 100.485 196.871 100.485 197.921 100.485C197.921 102.521 197.921 104.556 197.921 106.658C199.038 106.658 200.023 106.658 201.008 106.658C201.008 107.709 201.008 108.694 201.008 109.744C200.023 109.744 198.972 109.744 197.921 109.744C197.921 110.861 197.921 111.846 197.921 112.897C196.871 112.897 195.886 112.897 194.9 112.897C194.9 114.998 194.9 117.034 194.9 119.135C197.002 119.135 198.972 119.135 201.008 119.135C201.008 120.186 201.008 121.171 201.008 122.222C198.972 122.222 196.936 122.222 194.9 122.222C194.9 125.44 194.9 128.526 194.9 131.613C197.002 131.613 198.972 131.613 201.008 131.613C201.008 132.598 201.008 133.583 201.008 134.699C202.124 134.699 203.109 134.699 204.16 134.699C204.16 135.75 204.16 136.735 204.16 137.786C202.124 137.786 200.088 137.786 197.987 137.786C197.987 138.836 197.987 139.887 197.987 140.872C196.871 140.872 195.886 140.872 194.9 140.872C194.9 139.821 194.9 138.902 194.9 137.786C194.638 137.786 194.375 137.786 194.112 137.786C191.486 137.786 188.859 137.786 186.298 137.786C186.035 137.786 185.772 137.72 185.444 137.72C185.444 136.735 185.444 135.75 185.444 134.699C187.611 134.699 189.647 134.699 191.683 134.699C191.683 132.598 191.683 130.562 191.683 128.592C190.698 128.592 189.647 128.592 188.596 128.592C188.662 127.541 188.662 126.49 188.727 125.44C187.611 125.44 186.626 125.44 185.641 125.44C185.641 126.49 185.641 127.475 185.641 128.592C186.626 128.592 187.611 128.592 188.596 128.592ZM179.337 116.049C179.337 114.998 179.337 114.013 179.337 113.028C178.286 113.028 177.301 113.028 176.316 113.028C176.316 114.079 176.316 115.064 176.316 116.049C177.301 116.049 178.286 116.049 179.337 116.049Z" fill="black"/>
<path d="M223.007 131.613C220.972 131.613 218.87 131.613 216.769 131.613C216.769 132.663 216.769 133.648 216.769 134.699C217.754 134.699 218.804 134.699 219.79 134.699C219.79 135.75 219.79 136.735 219.79 137.786C218.804 137.786 217.819 137.786 216.703 137.786C216.703 139.887 216.703 141.923 216.703 144.024C215.652 144.024 214.602 144.024 213.551 144.024C213.551 141.989 213.551 139.953 213.551 137.851C211.449 137.851 209.479 137.851 207.378 137.851C207.378 136.801 207.378 135.816 207.378 134.765C208.363 134.765 209.348 134.765 210.399 134.765C210.399 133.714 210.399 132.729 210.399 131.678C209.414 131.678 208.429 131.678 207.378 131.678C207.378 130.628 207.378 129.643 207.378 128.657C206.327 128.657 205.342 128.657 204.291 128.657C204.291 129.643 204.291 130.628 204.291 131.678C203.175 131.678 202.124 131.678 201.073 131.678C201.073 128.526 201.073 125.44 201.073 122.287C202.124 122.287 203.175 122.287 204.291 122.287C204.291 123.404 204.291 124.389 204.291 125.374C205.342 125.374 206.327 125.374 207.312 125.374C207.312 123.272 207.312 121.302 207.312 119.201C205.211 119.201 203.109 119.201 201.073 119.201C201.073 118.216 201.073 117.165 201.073 116.049C207.378 116.049 213.551 116.049 219.724 116.049C219.724 114.998 219.724 114.013 219.724 112.897C218.673 112.897 217.688 112.897 216.703 112.897C216.703 111.846 216.703 110.861 216.703 109.744C217.754 109.744 218.804 109.744 219.855 109.744C219.855 110.795 219.855 111.846 219.855 112.831C220.906 112.831 221.891 112.831 222.942 112.831C222.942 111.78 222.942 110.729 222.942 109.744C223.927 109.744 224.912 109.744 226.028 109.744C226.028 110.795 226.028 111.78 226.028 112.897C227.079 112.897 228.064 112.897 229.18 112.897C229.18 113.947 229.18 114.932 229.18 115.983C230.231 115.983 231.216 115.983 232.333 115.983C232.333 114.998 232.333 114.013 232.333 112.962C233.383 112.962 234.368 112.962 235.419 112.962C235.419 114.998 235.419 117.034 235.419 119.135C234.434 119.135 233.449 119.135 232.333 119.135C232.333 120.186 232.333 121.171 232.333 122.222C231.216 122.222 230.165 122.222 229.115 122.222C229.115 121.237 229.115 120.186 229.115 119.135C228.064 119.135 227.079 119.135 226.028 119.135C226.028 117.034 226.028 114.998 226.028 112.962C224.977 112.962 223.992 112.962 222.942 112.962C222.942 119.267 222.942 125.44 223.007 131.613ZM210.53 119.201C210.53 122.287 210.53 125.374 210.53 128.46C213.617 128.46 216.703 128.46 219.79 128.46C219.79 125.374 219.79 122.287 219.79 119.201C216.703 119.201 213.617 119.201 210.53 119.201Z" fill="black"/>
<path d="M157.6 66.2705C164.823 66.2705 172.047 66.2705 179.337 66.2705C179.337 73.4942 179.337 80.718 179.337 88.0074C172.113 88.0074 164.889 88.0074 157.6 88.0074C157.6 80.7837 157.6 73.5599 157.6 66.2705ZM160.686 84.8552C165.874 84.8552 170.996 84.8552 176.184 84.8552C176.184 79.6673 176.184 74.545 176.184 69.4227C170.996 69.4227 165.874 69.4227 160.686 69.4227C160.686 74.545 160.686 79.6673 160.686 84.8552Z" fill="black"/>
<path d="M213.617 66.2705C220.84 66.2705 228.064 66.2705 235.353 66.2705C235.353 73.4942 235.353 80.718 235.353 88.0074C228.13 88.0074 220.906 88.0074 213.617 88.0074C213.617 80.7837 213.617 73.5599 213.617 66.2705ZM216.769 69.4227C216.769 74.6106 216.769 79.7329 216.769 84.8552C221.957 84.8552 227.079 84.8552 232.201 84.8552C232.201 79.6673 232.201 74.545 232.201 69.4227C227.013 69.4227 221.891 69.4227 216.769 69.4227Z" fill="black"/>
<path d="M157.6 122.287C164.823 122.287 172.047 122.287 179.337 122.287C179.337 129.511 179.337 136.735 179.337 144.024C172.113 144.024 164.889 144.024 157.6 144.024C157.6 136.801 157.6 129.577 157.6 122.287ZM160.752 125.44C160.752 130.627 160.752 135.75 160.752 140.872C165.94 140.872 171.062 140.872 176.25 140.872C176.25 135.684 176.25 130.562 176.25 125.44C170.996 125.44 165.874 125.44 160.752 125.44Z" fill="black"/>
<path d="M201.139 94.2462C201.139 93.2611 201.139 92.2761 201.139 91.2253C203.241 91.2253 205.276 91.2253 207.378 91.2253C207.378 92.2104 207.378 93.1955 207.378 94.2462C208.429 94.2462 209.414 94.2462 210.464 94.2462C210.464 95.2969 210.464 96.282 210.464 97.3984C211.515 97.3984 212.5 97.3984 213.551 97.3984C213.551 98.4491 213.551 99.4341 213.551 100.485C212.5 100.551 211.449 100.551 210.464 100.616C210.464 99.5655 210.464 98.5148 210.464 97.464C209.414 97.464 208.429 97.464 207.444 97.464C207.444 98.5148 207.444 99.4998 207.444 100.616C208.494 100.616 209.479 100.616 210.464 100.616C210.464 101.601 210.53 102.652 210.53 103.637C209.479 103.637 208.494 103.637 207.444 103.637C207.444 104.688 207.444 105.673 207.444 106.658C208.494 106.658 209.479 106.658 210.464 106.658C210.464 105.607 210.464 104.622 210.464 103.637C212.5 103.637 214.602 103.637 216.637 103.637C216.637 104.622 216.637 105.673 216.637 106.724C215.652 106.724 214.602 106.724 213.551 106.724C213.551 107.774 213.551 108.759 213.551 109.81C212.5 109.81 211.515 109.81 210.464 109.81C210.464 110.861 210.464 111.846 210.464 112.831C207.312 112.831 204.291 112.831 201.139 112.831C201.139 111.78 201.139 110.729 201.139 109.744C202.19 109.744 203.241 109.744 204.291 109.744C204.291 108.694 204.291 107.709 204.291 106.658C203.241 106.658 202.19 106.658 201.139 106.658C201.139 104.622 201.139 102.521 201.139 100.485C202.19 100.485 203.241 100.485 204.291 100.485C204.291 98.3177 204.291 96.282 204.291 94.1805C203.109 94.2462 202.124 94.2462 201.139 94.2462Z" fill="black"/>
<path d="M226.028 137.786C225.043 137.786 224.058 137.786 223.007 137.786C223.007 135.75 223.007 133.714 223.007 131.678C224.058 131.678 225.043 131.678 226.16 131.678C226.16 128.526 226.16 125.44 226.16 122.287C227.21 122.287 228.195 122.287 229.246 122.287C229.246 123.141 229.312 123.995 229.312 124.783C229.312 125.308 229.509 125.44 229.968 125.44C231.545 125.44 233.121 125.44 234.697 125.44C234.959 125.44 235.222 125.44 235.485 125.44C235.485 126.49 235.485 127.475 235.485 128.526C233.449 128.526 231.413 128.526 229.312 128.526C229.312 129.577 229.312 130.562 229.312 131.613C231.348 131.613 233.383 131.613 235.485 131.613C235.485 132.663 235.485 133.648 235.485 134.699C234.5 134.699 233.515 134.699 232.464 134.699C232.464 136.8 232.464 138.836 232.464 140.938C233.449 140.938 234.434 140.938 235.485 140.938C235.485 141.988 235.485 142.974 235.485 144.024C230.362 144.024 225.24 144.024 220.052 144.024C220.052 143.039 220.052 142.054 220.052 140.938C222.088 140.938 224.058 140.938 226.16 140.938C225.963 139.821 225.963 138.771 226.028 137.786C227.079 137.786 228.064 137.786 229.18 137.786C229.18 136.801 229.18 135.815 229.18 134.83C228.13 134.83 227.145 134.83 226.028 134.83C226.028 135.815 226.028 136.801 226.028 137.786Z" fill="black"/>
<path d="M194.966 88.1387C194.966 89.1238 194.966 90.1745 194.966 91.1596C193.915 91.1596 192.93 91.1596 191.814 91.1596C191.814 92.2103 191.814 93.261 191.814 94.2461C190.763 94.2461 189.778 94.2461 188.662 94.2461C188.662 91.1596 188.662 88.1387 188.662 84.9866C187.611 84.9866 186.626 84.9866 185.575 84.9866C185.575 85.9716 185.575 86.9567 185.575 88.0074C184.525 88.0074 183.539 88.0074 182.489 88.0074C182.489 85.9716 182.489 83.9358 182.489 81.8344C183.474 81.8344 184.459 81.8344 185.51 81.8344C185.51 80.7837 185.51 79.7986 185.51 78.7479C184.525 78.7479 183.539 78.7479 182.489 78.7479C182.489 74.545 182.489 70.4734 182.489 66.3362C183.474 66.3362 184.459 66.3362 185.51 66.3362C185.51 68.372 185.51 70.4077 185.51 72.5749C186.56 72.5749 187.545 72.5749 188.662 72.5749C188.662 73.6256 188.662 74.6106 188.662 75.727C189.713 75.727 190.698 75.727 191.814 75.727C191.814 79.8643 191.814 84.0015 191.814 88.1387C192.93 88.0074 193.981 88.0731 194.966 88.1387Z" fill="black"/>
<path d="M201.073 75.6614C201.073 76.5151 201.139 77.4345 201.139 78.2882C201.139 79.4703 201.073 80.6523 201.073 81.8344C199.038 81.8344 197.002 81.8344 194.9 81.8344C194.9 78.7479 194.9 75.727 194.9 72.5749C193.85 72.5749 192.865 72.5749 191.814 72.5749C191.814 71.5241 191.814 70.5391 191.814 69.4227C193.85 69.4227 195.886 69.4227 197.987 69.4227C197.987 68.372 197.987 67.3869 197.987 66.3362C199.038 66.3362 200.023 66.3362 201.073 66.3362C201.073 67.3212 201.073 68.3063 201.073 69.357C202.124 69.357 203.109 69.357 204.226 69.357C204.226 68.372 204.226 67.3869 204.226 66.3362C205.276 66.3362 206.261 66.3362 207.378 66.3362C207.378 67.3869 207.378 68.372 207.378 69.4227C208.429 69.4227 209.414 69.4227 210.464 69.4227C210.464 70.4734 210.464 71.4585 210.464 72.5092C209.479 72.5092 208.494 72.5092 207.444 72.5092C207.444 71.5241 207.444 70.5391 207.444 69.4884C206.393 69.4884 205.408 69.4884 204.291 69.4884C204.291 71.5241 204.291 73.5599 204.291 75.727C203.175 75.6614 202.124 75.6614 201.073 75.6614C201.073 74.6106 201.073 73.6256 201.073 72.5749C200.088 72.5749 199.103 72.5749 198.118 72.5749C198.118 73.6256 198.118 74.6106 198.118 75.6614C199.103 75.6614 200.088 75.6614 201.073 75.6614Z" fill="black"/>
<path d="M179.402 100.55C181.438 100.55 183.474 100.55 185.575 100.55C185.575 99.4996 185.575 98.4489 185.575 97.4639C187.677 97.4639 189.713 97.4639 191.814 97.4639C191.814 98.4489 191.814 99.434 191.814 100.55C190.763 100.55 189.778 100.55 188.727 100.55C188.727 101.601 188.727 102.586 188.727 103.637C187.677 103.637 186.692 103.637 185.641 103.637C185.641 104.688 185.641 105.673 185.641 106.723C181.438 106.723 177.366 106.723 173.229 106.723C173.229 105.738 173.229 104.753 173.229 103.703C175.265 103.703 177.301 103.703 179.468 103.703C179.402 102.586 179.402 101.535 179.402 100.55Z" fill="black"/>
<path d="M179.402 100.551C178.352 100.551 177.367 100.551 176.25 100.551C176.25 99.4341 176.25 98.4491 176.25 97.464C175.199 97.464 174.214 97.464 173.164 97.464C173.164 98.4491 173.164 99.4341 173.164 100.485C172.113 100.485 171.128 100.485 170.077 100.485C170.077 99.4998 170.077 98.5148 170.077 97.3984C171.062 97.3984 172.047 97.3984 173.098 97.3984C173.098 96.3476 173.098 95.3626 173.098 94.3118C172.113 94.3118 171.128 94.3118 170.077 94.3118C170.077 93.2611 170.077 92.2761 170.077 91.2253C173.098 91.2253 176.184 91.2253 179.402 91.2253C179.402 92.2104 179.402 93.2611 179.402 94.2462C178.352 94.2462 177.367 94.2462 176.316 94.2462C176.316 95.3626 176.316 96.3476 176.316 97.3327C177.367 97.3327 178.352 97.3327 179.402 97.3327C179.402 96.282 179.402 95.2312 179.402 94.2462C180.387 94.2462 181.372 94.2462 182.423 94.2462C182.423 95.2969 182.423 96.3476 182.423 97.3984C181.438 97.3984 180.453 97.3984 179.402 97.3984C179.402 98.4491 179.402 99.4998 179.402 100.551Z" fill="black"/>
<path d="M222.942 94.1805C222.942 93.1954 222.942 92.2104 222.942 91.1597C227.079 91.1597 231.216 91.1597 235.353 91.1597C235.353 92.1447 235.353 93.1298 235.353 94.1805C234.368 94.1805 233.383 94.1805 232.333 94.1805C232.333 95.2312 232.333 96.2163 232.333 97.267C231.216 97.267 230.231 97.267 229.18 97.267C229.18 96.282 229.18 95.2969 229.18 94.1805C228.786 94.1805 228.458 94.1805 228.195 94.1805C226.422 94.2462 224.649 94.1805 222.942 94.1805Z" fill="black"/>
<path d="M185.51 137.72C185.51 138.771 185.51 139.821 185.51 140.938C186.626 140.938 187.611 140.938 188.662 140.938C188.662 141.989 188.662 143.039 188.662 144.024C186.626 144.024 184.59 144.024 182.554 144.024C182.554 141.989 182.554 139.953 182.554 137.72C183.539 137.72 184.525 137.72 185.51 137.72Z" fill="black"/>
<path d="M222.942 94.1804C222.942 95.2311 222.942 96.2819 222.942 97.3983C223.992 97.3983 224.978 97.3983 226.028 97.3983C226.028 98.5147 226.028 99.5654 226.028 100.55C223.992 100.55 221.891 100.55 219.855 100.55C219.855 98.449 219.855 96.2819 219.921 94.1804C220.972 94.1804 221.957 94.1804 222.942 94.1804Z" fill="black"/>
<path d="M166.859 116.114C166.859 117.099 166.859 118.084 166.859 119.135C163.773 119.135 160.686 119.135 157.6 119.135C157.6 118.15 157.6 117.165 157.6 116.114C160.686 116.114 163.773 116.114 166.859 116.114Z" fill="black"/>
<path d="M226.028 100.551C227.013 100.551 228.064 100.551 229.115 100.551C229.115 102.586 229.115 104.622 229.115 106.658C227.013 106.658 224.978 106.658 222.942 106.658C222.942 105.673 222.942 104.622 222.942 103.571C223.992 103.571 224.978 103.571 226.028 103.571C226.028 102.521 226.028 101.536 226.028 100.551Z" fill="black"/>
<path d="M201.073 81.7688C202.19 81.7688 203.306 81.7688 204.357 81.7688C204.357 82.5568 204.291 83.3449 204.291 84.1329C204.291 85.3807 204.291 86.6941 204.291 88.0075C203.241 88.0075 202.256 88.0075 201.139 88.0075C201.073 85.906 201.073 83.8046 201.073 81.7688Z" fill="black"/>
<path d="M201.205 144.024C201.205 142.974 201.205 142.054 201.205 141.003C203.241 141.003 205.276 141.003 207.378 141.003C207.378 141.988 207.378 142.974 207.378 144.024C205.276 144.024 203.306 144.024 201.205 144.024Z" fill="black"/>
<path d="M198.053 94.246C199.103 94.246 200.089 94.246 201.139 94.246C201.139 96.3474 201.139 98.4489 201.139 100.55C200.089 100.55 199.103 100.55 198.053 100.55C198.053 98.4489 198.053 96.2818 198.053 94.246Z" fill="black"/>
<path d="M163.904 94.1805C162.985 94.1805 162 94.2462 161.08 94.2462C159.964 94.2462 158.782 94.2462 157.6 94.2462C157.6 93.1954 157.6 92.2104 157.6 91.1597C159.636 91.1597 161.671 91.1597 163.773 91.1597C163.773 92.2104 163.838 93.1954 163.904 94.1805Z" fill="black"/>
<path d="M207.444 81.7031C208.429 81.7031 209.414 81.7031 210.464 81.7031C210.464 83.8702 210.464 85.906 210.464 88.0075C209.479 88.0075 208.494 88.0075 207.509 88.0075C207.509 87.9418 207.444 87.9418 207.444 87.8761C207.444 85.8404 207.444 83.7389 207.444 81.7031Z" fill="black"/>
<path d="M188.662 109.81C188.662 108.825 188.662 107.774 188.662 106.723C189.844 106.723 190.895 106.723 191.88 106.723C191.88 107.774 191.88 108.759 191.88 109.81C190.763 109.744 189.713 109.744 188.662 109.81Z" fill="black"/>
<path d="M219.921 94.1805C218.87 94.1805 217.819 94.1805 216.769 94.1805C216.769 93.2611 216.769 92.2761 216.769 91.2253C217.754 91.2253 218.739 91.2253 219.79 91.2253C219.855 92.2104 219.921 93.1955 219.921 94.1805Z" fill="black"/>
<path d="M216.637 103.637C216.637 102.652 216.637 101.601 216.637 100.551C217.82 100.551 218.87 100.551 219.855 100.551C219.855 101.536 219.855 102.586 219.855 103.637C218.739 103.637 217.688 103.637 216.637 103.637Z" fill="black"/>
<path d="M195.032 88.1387C195.032 87.088 195.032 86.0373 195.032 84.9866C196.017 84.9866 197.002 84.9866 198.053 84.9866C198.053 86.0373 198.053 87.0224 198.053 88.1387C197.002 88.1387 195.951 88.1387 195.032 88.1387Z" fill="black"/>
<path d="M160.621 100.485C159.57 100.485 158.585 100.485 157.6 100.485C157.6 99.434 157.6 98.4489 157.6 97.4639C158.65 97.4639 159.636 97.4639 160.621 97.4639C160.621 98.4489 160.621 99.434 160.621 100.485Z" fill="black"/>
<path d="M163.904 94.1804C164.889 94.1804 165.874 94.1804 166.859 94.1804C166.859 95.2968 166.859 96.2819 166.859 97.3326C165.874 97.3326 164.889 97.3326 163.904 97.3326C163.904 96.2819 163.904 95.2311 163.904 94.1804Z" fill="black"/>
<path d="M207.509 78.7479C207.509 77.7628 207.509 76.7121 207.509 75.6614C208.429 75.6614 209.414 75.6614 210.464 75.6614C210.464 76.6464 210.464 77.6315 210.464 78.7479C209.479 78.7479 208.429 78.7479 207.509 78.7479Z" fill="black"/>
<path d="M204.357 81.7686C204.291 80.7836 204.226 79.7329 204.226 78.6821C205.342 78.6821 206.393 78.6821 207.509 78.6821C207.509 79.6672 207.509 80.6522 207.509 81.703C206.459 81.703 205.408 81.7686 204.357 81.7686Z" fill="black"/>
<path d="M163.838 100.551C164.823 100.551 165.808 100.551 166.859 100.551C166.859 101.536 166.859 102.521 166.859 103.571C165.874 103.571 164.889 103.571 163.838 103.571C163.838 102.586 163.838 101.601 163.838 100.551Z" fill="black"/>
<path d="M194.966 91.1596C195.951 91.1596 196.936 91.1596 198.053 91.1596C198.053 92.2103 198.053 93.261 198.053 94.2461C197.068 94.2461 196.017 94.2461 194.966 94.2461C194.966 93.1953 194.966 92.1446 194.966 91.1596Z" fill="black"/>
<path d="M235.353 103.637C235.353 104.622 235.353 105.607 235.353 106.592C234.303 106.592 233.318 106.592 232.333 106.592C232.333 105.607 232.333 104.622 232.333 103.637C233.318 103.637 234.303 103.637 235.353 103.637Z" fill="black"/>
<path d="M157.6 106.723C158.65 106.723 159.636 106.723 160.621 106.723C160.621 107.708 160.621 108.693 160.621 109.744C159.57 109.744 158.585 109.744 157.6 109.744C157.6 108.759 157.6 107.774 157.6 106.723Z" fill="black"/>
<path d="M222.942 106.658C222.942 107.708 222.942 108.693 222.942 109.744C221.891 109.744 220.906 109.744 219.855 109.744C219.855 108.759 219.855 107.708 219.855 106.658C220.972 106.723 221.957 106.723 222.942 106.658Z" fill="black"/>
<path d="M222.942 106.724C221.957 106.724 220.906 106.724 219.855 106.724C219.855 107.774 219.855 108.825 219.855 109.81C218.805 109.81 217.819 109.81 216.703 109.81C216.703 110.861 216.703 111.846 216.703 112.962C217.688 112.962 218.673 112.962 219.724 112.962C219.724 114.013 219.724 114.998 219.724 116.114C213.551 116.114 207.378 116.114 201.074 116.114C201.074 117.231 201.074 118.216 201.074 119.267C199.038 119.267 197.002 119.267 194.966 119.267C194.966 117.165 194.966 115.129 194.966 113.028C195.951 113.028 197.002 113.028 197.987 113.028C197.987 111.977 197.987 110.992 197.987 109.876C199.038 109.876 200.088 109.876 201.074 109.876C201.074 110.926 201.074 111.912 201.074 112.962C204.226 112.962 207.312 112.962 210.399 112.962C210.399 111.977 210.399 110.992 210.399 109.941C211.449 109.941 212.435 109.941 213.485 109.941C213.485 108.891 213.485 107.906 213.485 106.855C214.536 106.855 215.521 106.855 216.572 106.855C216.572 105.739 216.572 104.753 216.572 103.768C217.622 103.768 218.673 103.768 219.79 103.768C219.79 102.718 219.79 101.667 219.79 100.682C221.825 100.682 223.927 100.682 225.963 100.682C225.963 101.667 225.963 102.652 225.963 103.768C224.912 103.768 223.927 103.768 222.876 103.768C222.942 104.688 222.942 105.673 222.942 106.724Z" fill="white"/>
<path d="M201.139 122.222C201.139 125.374 201.139 128.46 201.139 131.613C199.103 131.613 197.068 131.613 195.032 131.613C195.032 128.46 195.032 125.44 195.032 122.222C197.002 122.222 199.103 122.222 201.139 122.222Z" fill="white"/>
<path d="M188.596 109.744C189.713 109.744 190.763 109.744 191.88 109.744C191.88 112.371 191.814 114.932 191.814 117.559C191.814 118.085 191.814 118.544 191.814 119.135C190.763 119.135 189.778 119.135 188.662 119.135C188.662 118.873 188.662 118.61 188.662 118.347C188.662 115.786 188.662 113.159 188.662 110.598C188.662 110.335 188.662 110.073 188.596 109.744Z" fill="white"/>
<path d="M201.073 119.135C203.175 119.135 205.211 119.135 207.312 119.135C207.312 121.237 207.312 123.207 207.312 125.308C206.327 125.308 205.342 125.308 204.291 125.308C204.291 124.323 204.291 123.338 204.291 122.222C203.175 122.222 202.124 122.222 201.073 122.222C201.073 121.237 201.073 120.186 201.073 119.135Z" fill="white"/>
<path d="M197.987 100.551C199.038 100.551 200.023 100.551 201.074 100.551C201.074 102.586 201.074 104.688 201.074 106.724C200.089 106.724 199.103 106.724 197.987 106.724C197.987 104.622 197.987 102.586 197.987 100.551Z" fill="white"/>
<path d="M201.073 106.658C202.124 106.658 203.109 106.658 204.226 106.658C204.226 107.708 204.226 108.693 204.226 109.744C203.175 109.744 202.124 109.744 201.073 109.744C201.073 108.759 201.073 107.708 201.073 106.658Z" fill="white"/>
<path d="M182.489 119.201C182.489 118.216 182.489 117.165 182.489 116.114C183.539 116.114 184.525 116.114 185.575 116.114C185.575 117.165 185.575 118.15 185.575 119.201C184.525 119.135 183.474 119.135 182.489 119.201Z" fill="white"/>
<path d="M191.88 109.81C191.88 108.759 191.88 107.774 191.88 106.723C192.865 106.723 193.85 106.723 194.9 106.723C194.9 107.774 194.9 108.759 194.9 109.81C193.85 109.81 192.865 109.81 191.88 109.81Z" fill="white"/>
<path d="M188.596 128.592C187.611 128.592 186.692 128.592 185.641 128.592C185.641 127.475 185.641 126.49 185.641 125.439C186.626 125.439 187.611 125.439 188.727 125.439C188.662 126.49 188.596 127.541 188.596 128.592Z" fill="white"/>
<path d="M179.337 116.049C178.286 116.049 177.367 116.049 176.316 116.049C176.316 114.998 176.316 114.079 176.316 113.028C177.301 113.028 178.286 113.028 179.337 113.028C179.337 114.013 179.337 114.998 179.337 116.049Z" fill="white"/>
<path d="M210.53 119.201C213.617 119.201 216.703 119.201 219.79 119.201C219.79 122.287 219.79 125.374 219.79 128.46C216.703 128.46 213.617 128.46 210.53 128.46C210.53 125.374 210.53 122.287 210.53 119.201ZM216.703 122.353C215.652 122.353 214.667 122.353 213.682 122.353C213.682 123.404 213.682 124.389 213.682 125.374C214.733 125.374 215.718 125.374 216.703 125.374C216.703 124.323 216.703 123.338 216.703 122.353Z" fill="white"/>
<path d="M229.115 122.287C228.13 122.287 227.145 122.287 226.028 122.287C226.028 125.44 226.028 128.526 226.028 131.678C224.912 131.678 223.927 131.678 222.876 131.678C222.876 125.505 222.876 119.267 222.876 113.028C223.927 113.028 224.912 113.028 225.963 113.028C225.963 115.064 225.963 117.099 225.963 119.201C227.013 119.201 227.998 119.201 229.049 119.201C229.115 120.252 229.115 121.237 229.115 122.287Z" fill="white"/>
<path d="M219.855 109.744C220.906 109.744 221.891 109.744 222.942 109.744C222.942 110.729 222.942 111.78 222.942 112.831C221.891 112.831 220.906 112.831 219.855 112.831C219.855 111.846 219.855 110.795 219.855 109.744Z" fill="white"/>
<path d="M160.686 84.8551C160.686 79.6672 160.686 74.5449 160.686 69.4226C165.874 69.4226 170.997 69.4226 176.184 69.4226C176.184 74.6106 176.184 79.7329 176.184 84.8551C171.062 84.8551 165.94 84.8551 160.686 84.8551ZM163.838 72.5091C163.838 75.5956 163.838 78.6821 163.838 81.703C166.925 81.703 170.011 81.703 173.098 81.703C173.098 78.6165 173.098 75.5956 173.098 72.5091C170.011 72.5091 166.925 72.5091 163.838 72.5091Z" fill="white"/>
<path d="M216.769 69.4226C221.891 69.4226 227.013 69.4226 232.201 69.4226C232.201 74.5449 232.201 79.6672 232.201 84.8551C227.079 84.8551 221.957 84.8551 216.769 84.8551C216.769 79.7329 216.769 74.6106 216.769 69.4226ZM229.115 72.5091C225.963 72.5091 222.942 72.5091 219.855 72.5091C219.855 75.5956 219.855 78.6165 219.855 81.703C222.942 81.703 226.028 81.703 229.115 81.703C229.115 78.6165 229.115 75.5956 229.115 72.5091Z" fill="white"/>
<path d="M160.752 125.439C165.94 125.439 171.062 125.439 176.25 125.439C176.25 130.627 176.25 135.75 176.25 140.872C171.062 140.872 165.94 140.872 160.752 140.872C160.752 135.75 160.752 130.627 160.752 125.439ZM163.838 137.785C166.991 137.785 170.011 137.785 173.098 137.785C173.098 134.699 173.098 131.678 173.098 128.592C170.011 128.592 166.925 128.592 163.838 128.592C163.838 131.678 163.838 134.699 163.838 137.785Z" fill="white"/>
<path d="M201.073 100.55C201.073 98.449 201.073 96.3475 201.073 94.2461C202.124 94.2461 203.109 94.2461 204.226 94.2461C204.226 96.3475 204.226 98.3833 204.226 100.55C203.175 100.55 202.124 100.55 201.073 100.55Z" fill="white"/>
<path d="M210.464 103.571C210.464 104.556 210.464 105.541 210.464 106.592C209.414 106.592 208.429 106.592 207.444 106.592C207.444 105.607 207.444 104.622 207.444 103.571C208.494 103.637 209.479 103.637 210.464 103.571Z" fill="white"/>
<path d="M210.464 100.55C209.479 100.55 208.494 100.55 207.444 100.55C207.444 99.434 207.444 98.4489 207.444 97.3982C208.429 97.3982 209.414 97.3982 210.464 97.3982C210.464 98.4489 210.464 99.5653 210.464 100.55Z" fill="white"/>
<path d="M226.028 137.785C226.028 136.8 226.028 135.815 226.028 134.83C227.079 134.83 228.13 134.83 229.18 134.83C229.18 135.815 229.18 136.8 229.18 137.785C228.064 137.72 227.013 137.72 226.028 137.785Z" fill="white"/>
<path d="M201.074 75.6615C200.089 75.6615 199.103 75.6615 198.118 75.6615C198.118 74.6107 198.118 73.6257 198.118 72.575C199.103 72.575 200.089 72.575 201.074 72.575C201.074 73.56 201.074 74.6107 201.074 75.6615Z" fill="white"/>
<path d="M179.402 94.1804C179.402 95.2311 179.402 96.2162 179.402 97.2669C178.352 97.2669 177.367 97.2669 176.316 97.2669C176.316 96.2819 176.316 95.2311 176.316 94.1804C177.367 94.2461 178.352 94.2461 179.402 94.1804Z" fill="white"/>
<path d="M216.703 122.353C216.703 123.404 216.703 124.323 216.703 125.374C215.718 125.374 214.667 125.374 213.682 125.374C213.682 124.389 213.682 123.404 213.682 122.353C214.667 122.353 215.652 122.353 216.703 122.353Z" fill="black"/>
<path d="M163.838 72.5093C166.925 72.5093 170.011 72.5093 173.098 72.5093C173.098 75.5958 173.098 78.6166 173.098 81.7031C170.011 81.7031 166.991 81.7031 163.838 81.7031C163.838 78.6823 163.838 75.6615 163.838 72.5093Z" fill="black"/>
<path d="M229.115 72.5093C229.115 75.5958 229.115 78.6166 229.115 81.7031C226.028 81.7031 223.007 81.7031 219.855 81.7031C219.855 78.6166 219.855 75.5958 219.855 72.5093C222.942 72.5093 226.028 72.5093 229.115 72.5093Z" fill="black"/>
<path d="M163.838 137.786C163.838 134.699 163.838 131.678 163.838 128.592C166.925 128.592 169.946 128.592 173.098 128.592C173.098 131.678 173.098 134.699 173.098 137.786C170.011 137.786 166.991 137.786 163.838 137.786Z" fill="black"/>
<g clip-path="url(#clip0_51_182)">
<rect x="215" y="97" width="186" height="411" rx="29" fill="white"/>
<path d="M275 117C275 113.686 277.686 111 281 111H334C337.314 111 340 113.686 340 117C340 120.314 337.314 123 334 123H281C277.686 123 275 120.314 275 117Z" fill="#D4D9EA"/>
<path d="M279.723 147L277.226 138.273H279.241L280.686 144.337H280.759L282.352 138.273H284.078L285.668 144.349H285.744L287.189 138.273H289.205L286.707 147H284.909L283.247 141.294H283.179L281.521 147H279.723ZM291.321 147.124C290.904 147.124 290.532 147.051 290.205 146.906C289.878 146.759 289.62 146.541 289.429 146.254C289.242 145.964 289.148 145.604 289.148 145.172C289.148 144.808 289.215 144.503 289.348 144.256C289.482 144.009 289.664 143.81 289.894 143.659C290.124 143.509 290.385 143.395 290.678 143.318C290.973 143.241 291.283 143.188 291.607 143.156C291.988 143.116 292.294 143.08 292.527 143.045C292.76 143.009 292.929 142.955 293.034 142.884C293.14 142.812 293.192 142.707 293.192 142.568V142.543C293.192 142.273 293.107 142.064 292.936 141.916C292.769 141.768 292.53 141.695 292.221 141.695C291.894 141.695 291.634 141.767 291.441 141.912C291.248 142.054 291.12 142.233 291.057 142.449L289.378 142.312C289.463 141.915 289.631 141.571 289.881 141.281C290.131 140.989 290.453 140.764 290.848 140.608C291.246 140.449 291.706 140.369 292.229 140.369C292.593 140.369 292.941 140.412 293.273 140.497C293.608 140.582 293.905 140.714 294.164 140.893C294.425 141.072 294.631 141.303 294.782 141.584C294.932 141.862 295.007 142.196 295.007 142.585V147H293.286V146.092H293.235C293.13 146.297 292.989 146.477 292.813 146.634C292.637 146.787 292.425 146.908 292.178 146.996C291.931 147.081 291.645 147.124 291.321 147.124ZM291.841 145.871C292.108 145.871 292.344 145.818 292.549 145.713C292.753 145.605 292.914 145.46 293.03 145.278C293.147 145.097 293.205 144.891 293.205 144.661V143.966C293.148 144.003 293.07 144.037 292.971 144.068C292.874 144.097 292.765 144.124 292.642 144.149C292.52 144.172 292.398 144.193 292.276 144.213C292.154 144.23 292.043 144.246 291.944 144.26C291.73 144.291 291.544 144.341 291.385 144.409C291.226 144.477 291.103 144.57 291.015 144.686C290.926 144.8 290.882 144.942 290.882 145.112C290.882 145.359 290.972 145.548 291.151 145.679C291.333 145.807 291.563 145.871 291.841 145.871ZM296.416 147V140.455H298.176V141.597H298.244C298.363 141.19 298.564 140.884 298.845 140.676C299.126 140.466 299.45 140.361 299.816 140.361C299.907 140.361 300.005 140.366 300.11 140.378C300.216 140.389 300.308 140.405 300.387 140.425V142.036C300.302 142.01 300.184 141.987 300.034 141.967C299.883 141.947 299.745 141.938 299.62 141.938C299.353 141.938 299.115 141.996 298.904 142.112C298.697 142.226 298.532 142.385 298.41 142.589C298.291 142.794 298.231 143.03 298.231 143.297V147H296.416ZM301.326 147V140.455H303.086V141.597H303.154C303.273 141.19 303.474 140.884 303.755 140.676C304.036 140.466 304.36 140.361 304.727 140.361C304.817 140.361 304.915 140.366 305.021 140.378C305.126 140.389 305.218 140.405 305.298 140.425V142.036C305.212 142.01 305.094 141.987 304.944 141.967C304.793 141.947 304.656 141.938 304.531 141.938C304.263 141.938 304.025 141.996 303.815 142.112C303.607 142.226 303.442 142.385 303.32 142.589C303.201 142.794 303.141 143.03 303.141 143.297V147H301.326ZM307.915 147.124C307.498 147.124 307.125 147.051 306.799 146.906C306.472 146.759 306.213 146.541 306.023 146.254C305.836 145.964 305.742 145.604 305.742 145.172C305.742 144.808 305.809 144.503 305.942 144.256C306.076 144.009 306.257 143.81 306.488 143.659C306.718 143.509 306.979 143.395 307.272 143.318C307.567 143.241 307.877 143.188 308.201 143.156C308.581 143.116 308.888 143.08 309.121 143.045C309.354 143.009 309.523 142.955 309.628 142.884C309.733 142.812 309.786 142.707 309.786 142.568V142.543C309.786 142.273 309.701 142.064 309.53 141.916C309.363 141.768 309.124 141.695 308.814 141.695C308.488 141.695 308.228 141.767 308.034 141.912C307.841 142.054 307.713 142.233 307.651 142.449L305.972 142.312C306.057 141.915 306.225 141.571 306.475 141.281C306.725 140.989 307.047 140.764 307.442 140.608C307.84 140.449 308.3 140.369 308.823 140.369C309.186 140.369 309.534 140.412 309.867 140.497C310.202 140.582 310.499 140.714 310.757 140.893C311.019 141.072 311.225 141.303 311.375 141.584C311.526 141.862 311.601 142.196 311.601 142.585V147H309.88V146.092H309.828C309.723 146.297 309.583 146.477 309.407 146.634C309.23 146.787 309.019 146.908 308.772 146.996C308.525 147.081 308.239 147.124 307.915 147.124ZM308.435 145.871C308.702 145.871 308.938 145.818 309.142 145.713C309.347 145.605 309.507 145.46 309.624 145.278C309.74 145.097 309.799 144.891 309.799 144.661V143.966C309.742 144.003 309.664 144.037 309.564 144.068C309.468 144.097 309.358 144.124 309.236 144.149C309.114 144.172 308.992 144.193 308.87 144.213C308.748 144.23 308.637 144.246 308.537 144.26C308.324 144.291 308.138 144.341 307.979 144.409C307.82 144.477 307.696 144.57 307.608 144.686C307.52 144.8 307.476 144.942 307.476 145.112C307.476 145.359 307.566 145.548 307.745 145.679C307.926 145.807 308.157 145.871 308.435 145.871ZM314.825 143.216V147H313.01V140.455H314.74V141.609H314.816C314.961 141.229 315.204 140.928 315.545 140.706C315.886 140.482 316.299 140.369 316.785 140.369C317.24 140.369 317.636 140.469 317.974 140.668C318.312 140.866 318.575 141.151 318.762 141.52C318.95 141.886 319.044 142.324 319.044 142.832V147H317.228V143.156C317.231 142.756 317.129 142.443 316.922 142.219C316.714 141.991 316.429 141.878 316.065 141.878C315.821 141.878 315.605 141.93 315.417 142.036C315.233 142.141 315.088 142.294 314.983 142.496C314.88 142.695 314.828 142.935 314.825 143.216ZM323.956 140.455V141.818H320.014V140.455H323.956ZM320.909 138.886H322.724V144.989C322.724 145.156 322.75 145.287 322.801 145.381C322.852 145.472 322.923 145.536 323.014 145.572C323.108 145.609 323.216 145.628 323.338 145.628C323.423 145.628 323.509 145.621 323.594 145.607C323.679 145.589 323.744 145.577 323.79 145.568L324.075 146.919C323.984 146.947 323.857 146.98 323.692 147.017C323.527 147.057 323.327 147.081 323.091 147.089C322.653 147.107 322.27 147.048 321.94 146.915C321.614 146.781 321.359 146.574 321.178 146.293C320.996 146.011 320.906 145.656 320.909 145.227V138.886ZM326.259 149.455C326.029 149.455 325.813 149.436 325.612 149.399C325.413 149.365 325.248 149.321 325.117 149.267L325.526 147.912C325.739 147.977 325.931 148.013 326.102 148.018C326.275 148.024 326.424 147.984 326.549 147.899C326.677 147.814 326.781 147.669 326.86 147.464L326.967 147.188L324.619 140.455H326.528L327.883 145.261H327.951L329.319 140.455H331.241L328.697 147.707C328.575 148.06 328.408 148.366 328.198 148.628C327.991 148.892 327.728 149.095 327.41 149.237C327.092 149.382 326.708 149.455 326.259 149.455ZM336.558 138.273L338.667 144.903H338.748L340.862 138.273H342.907L339.899 147H337.521L334.508 138.273H336.558ZM345.064 147.124C344.646 147.124 344.274 147.051 343.947 146.906C343.62 146.759 343.362 146.541 343.172 146.254C342.984 145.964 342.89 145.604 342.89 145.172C342.89 144.808 342.957 144.503 343.091 144.256C343.224 144.009 343.406 143.81 343.636 143.659C343.866 143.509 344.127 143.395 344.42 143.318C344.716 143.241 345.025 143.188 345.349 143.156C345.73 143.116 346.037 143.08 346.27 143.045C346.502 143.009 346.672 142.955 346.777 142.884C346.882 142.812 346.934 142.707 346.934 142.568V142.543C346.934 142.273 346.849 142.064 346.679 141.916C346.511 141.768 346.272 141.695 345.963 141.695C345.636 141.695 345.376 141.767 345.183 141.912C344.99 142.054 344.862 142.233 344.799 142.449L343.12 142.312C343.206 141.915 343.373 141.571 343.623 141.281C343.873 140.989 344.196 140.764 344.591 140.608C344.988 140.449 345.449 140.369 345.971 140.369C346.335 140.369 346.683 140.412 347.015 140.497C347.35 140.582 347.647 140.714 347.906 140.893C348.167 141.072 348.373 141.303 348.524 141.584C348.674 141.862 348.75 142.196 348.75 142.585V147H347.028V146.092H346.977C346.872 146.297 346.731 146.477 346.555 146.634C346.379 146.787 346.167 146.908 345.92 146.996C345.673 147.081 345.387 147.124 345.064 147.124ZM345.583 145.871C345.85 145.871 346.086 145.818 346.291 145.713C346.495 145.605 346.656 145.46 346.772 145.278C346.889 145.097 346.947 144.891 346.947 144.661V143.966C346.89 144.003 346.812 144.037 346.713 144.068C346.616 144.097 346.507 144.124 346.385 144.149C346.262 144.172 346.14 144.193 346.018 144.213C345.896 144.23 345.785 144.246 345.686 144.26C345.473 144.291 345.287 144.341 345.127 144.409C344.968 144.477 344.845 144.57 344.757 144.686C344.669 144.8 344.625 144.942 344.625 145.112C344.625 145.359 344.714 145.548 344.893 145.679C345.075 145.807 345.305 145.871 345.583 145.871ZM354.355 144.213V140.455H356.171V147H354.428V145.811H354.36C354.212 146.195 353.966 146.503 353.623 146.736C353.282 146.969 352.865 147.085 352.374 147.085C351.936 147.085 351.551 146.986 351.219 146.787C350.887 146.588 350.627 146.305 350.439 145.939C350.255 145.572 350.161 145.134 350.158 144.622V140.455H351.973V144.298C351.976 144.685 352.08 144.99 352.284 145.214C352.489 145.439 352.763 145.551 353.107 145.551C353.326 145.551 353.53 145.501 353.721 145.402C353.911 145.3 354.064 145.149 354.181 144.95C354.3 144.751 354.358 144.506 354.355 144.213ZM359.438 138.273V147H357.623V138.273H359.438ZM364.374 140.455V141.818H360.432V140.455H364.374ZM361.327 138.886H363.142V144.989C363.142 145.156 363.168 145.287 363.219 145.381C363.27 145.472 363.341 145.536 363.432 145.572C363.526 145.609 363.634 145.628 363.756 145.628C363.841 145.628 363.926 145.621 364.012 145.607C364.097 145.589 364.162 145.577 364.208 145.568L364.493 146.919C364.402 146.947 364.275 146.98 364.11 147.017C363.945 147.057 363.745 147.081 363.509 147.089C363.071 147.107 362.688 147.048 362.358 146.915C362.032 146.781 361.777 146.574 361.596 146.293C361.414 146.011 361.324 145.656 361.327 145.227V138.886Z" fill="black"/>
<path d="M261 133.234L252.547 138.109V147.891L261 152.766L266.516 149.594L265.141 148.031L261 150.422L254.578 146.703V139.297L261 135.578L265.109 137.953L266.594 136.469L261 133.234Z" fill="#3FA9F5"/>
<path d="M269.594 146.953V138.625H267.406V144.406L264.797 141.359L263.188 141.297L259.906 144.672V138.781H257.719V146.766L259.656 148.078L263.922 143.688L267.656 148.062L269.594 146.953Z" fill="#3FA9F5"/>
<path d="M236 207C236 204.239 238.239 202 241 202H375C377.761 202 380 204.239 380 207V225C380 227.761 377.761 230 375 230H241C238.239 230 236 227.761 236 225V207Z" fill="#F0F2F8"/>
<path d="M236 247C236 244.239 238.239 242 241 242H375C377.761 242 380 244.239 380 247V265C380 267.761 377.761 270 375 270H241C238.239 270 236 267.761 236 265V247Z" fill="#F0F2F8"/>
<path d="M295.493 175.783C295.459 175.439 295.313 175.172 295.054 174.982C294.795 174.791 294.445 174.696 294.001 174.696C293.7 174.696 293.446 174.739 293.239 174.824C293.031 174.906 292.872 175.021 292.761 175.169C292.653 175.317 292.599 175.484 292.599 175.672C292.594 175.828 292.626 175.964 292.697 176.081C292.771 176.197 292.872 176.298 293 176.384C293.128 176.466 293.276 176.538 293.443 176.601C293.611 176.661 293.79 176.712 293.98 176.754L294.764 176.942C295.145 177.027 295.494 177.141 295.812 177.283C296.131 177.425 296.406 177.599 296.639 177.807C296.872 178.014 297.053 178.259 297.18 178.54C297.311 178.821 297.378 179.143 297.381 179.507C297.378 180.041 297.241 180.504 296.972 180.896C296.705 181.286 296.318 181.588 295.812 181.804C295.31 182.017 294.703 182.124 293.993 182.124C293.288 182.124 292.675 182.016 292.152 181.8C291.632 181.584 291.226 181.264 290.933 180.841C290.643 180.415 290.491 179.888 290.477 179.26H292.263C292.283 179.553 292.366 179.797 292.514 179.993C292.665 180.186 292.865 180.332 293.115 180.432C293.368 180.528 293.653 180.577 293.972 180.577C294.284 180.577 294.555 180.531 294.786 180.44C295.018 180.349 295.199 180.223 295.327 180.061C295.455 179.899 295.518 179.713 295.518 179.503C295.518 179.307 295.46 179.142 295.344 179.009C295.23 178.875 295.063 178.761 294.841 178.668C294.622 178.574 294.354 178.489 294.036 178.412L293.085 178.173C292.349 177.994 291.768 177.714 291.342 177.334C290.916 176.953 290.705 176.44 290.707 175.795C290.705 175.267 290.845 174.805 291.129 174.411C291.416 174.016 291.81 173.707 292.31 173.486C292.81 173.264 293.378 173.153 294.014 173.153C294.662 173.153 295.227 173.264 295.71 173.486C296.196 173.707 296.574 174.016 296.844 174.411C297.114 174.805 297.253 175.263 297.261 175.783H295.493ZM301.571 182.128C300.897 182.128 300.318 181.991 299.832 181.719C299.349 181.443 298.977 181.054 298.716 180.551C298.454 180.045 298.324 179.447 298.324 178.757C298.324 178.084 298.454 177.493 298.716 176.984C298.977 176.476 299.345 176.08 299.819 175.795C300.297 175.511 300.856 175.369 301.498 175.369C301.93 175.369 302.332 175.439 302.704 175.578C303.079 175.714 303.406 175.92 303.684 176.196C303.966 176.472 304.184 176.818 304.341 177.236C304.497 177.651 304.575 178.136 304.575 178.693V179.192H299.048V178.067H302.866C302.866 177.805 302.809 177.574 302.696 177.372C302.582 177.17 302.424 177.013 302.223 176.899C302.024 176.783 301.792 176.724 301.528 176.724C301.252 176.724 301.008 176.788 300.795 176.916C300.585 177.041 300.42 177.21 300.301 177.423C300.181 177.634 300.12 177.868 300.118 178.126V179.196C300.118 179.52 300.177 179.8 300.297 180.036C300.419 180.271 300.591 180.453 300.812 180.581C301.034 180.709 301.297 180.773 301.6 180.773C301.802 180.773 301.987 180.744 302.154 180.688C302.322 180.631 302.466 180.545 302.585 180.432C302.704 180.318 302.795 180.179 302.858 180.014L304.537 180.125C304.451 180.528 304.277 180.881 304.012 181.182C303.751 181.48 303.413 181.713 302.998 181.881C302.586 182.045 302.11 182.128 301.571 182.128ZM309.241 175.455V176.818H305.299V175.455H309.241ZM306.194 173.886H308.01V179.989C308.01 180.156 308.035 180.287 308.086 180.381C308.137 180.472 308.208 180.536 308.299 180.572C308.393 180.609 308.501 180.628 308.623 180.628C308.708 180.628 308.794 180.621 308.879 180.607C308.964 180.589 309.029 180.577 309.075 180.568L309.36 181.919C309.27 181.947 309.142 181.98 308.977 182.017C308.812 182.057 308.612 182.081 308.376 182.089C307.939 182.107 307.555 182.048 307.225 181.915C306.899 181.781 306.645 181.574 306.463 181.293C306.281 181.011 306.191 180.656 306.194 180.227V173.886ZM314.621 179.213V175.455H316.436V182H314.694V180.811H314.625C314.478 181.195 314.232 181.503 313.888 181.736C313.547 181.969 313.131 182.085 312.64 182.085C312.202 182.085 311.817 181.986 311.485 181.787C311.152 181.588 310.892 181.305 310.705 180.939C310.52 180.572 310.426 180.134 310.424 179.622V175.455H312.239V179.298C312.242 179.685 312.346 179.99 312.55 180.214C312.755 180.439 313.029 180.551 313.373 180.551C313.591 180.551 313.796 180.501 313.986 180.402C314.176 180.3 314.33 180.149 314.446 179.95C314.566 179.751 314.624 179.506 314.621 179.213ZM317.888 184.455V175.455H319.678V176.554H319.759C319.839 176.378 319.954 176.199 320.104 176.017C320.258 175.832 320.457 175.679 320.701 175.557C320.948 175.432 321.255 175.369 321.621 175.369C322.099 175.369 322.539 175.494 322.942 175.744C323.346 175.991 323.668 176.365 323.91 176.865C324.151 177.362 324.272 177.986 324.272 178.736C324.272 179.466 324.154 180.082 323.918 180.585C323.685 181.085 323.367 181.464 322.964 181.723C322.563 181.979 322.114 182.107 321.617 182.107C321.265 182.107 320.965 182.048 320.718 181.932C320.474 181.815 320.273 181.669 320.117 181.493C319.961 181.314 319.842 181.134 319.759 180.952H319.704V184.455H317.888ZM319.665 178.727C319.665 179.116 319.719 179.456 319.827 179.746C319.935 180.036 320.092 180.261 320.296 180.423C320.501 180.582 320.749 180.662 321.042 180.662C321.337 180.662 321.587 180.581 321.792 180.419C321.996 180.254 322.151 180.027 322.256 179.737C322.364 179.445 322.418 179.108 322.418 178.727C322.418 178.349 322.366 178.017 322.261 177.73C322.156 177.443 322.001 177.219 321.796 177.057C321.592 176.895 321.34 176.814 321.042 176.814C320.746 176.814 320.496 176.892 320.292 177.048C320.09 177.205 319.935 177.426 319.827 177.713C319.719 178 319.665 178.338 319.665 178.727Z" fill="black"/>
<path d="M248.959 221V212.273H252.07C252.749 212.273 253.311 212.396 253.757 212.643C254.203 212.891 254.537 213.229 254.759 213.658C254.98 214.084 255.091 214.564 255.091 215.098C255.091 215.635 254.979 216.118 254.754 216.547C254.533 216.973 254.197 217.311 253.749 217.561C253.303 217.808 252.741 217.932 252.065 217.932H249.926V216.815H251.946C252.375 216.815 252.723 216.741 252.99 216.594C253.257 216.443 253.453 216.239 253.578 215.98C253.703 215.722 253.766 215.428 253.766 215.098C253.766 214.768 253.703 214.476 253.578 214.22C253.453 213.964 253.256 213.764 252.986 213.619C252.719 213.474 252.366 213.402 251.929 213.402H250.276V221H248.959ZM256.532 221V214.455H257.764V215.494H257.832C257.951 215.142 258.162 214.865 258.463 214.663C258.767 214.459 259.11 214.357 259.494 214.357C259.574 214.357 259.667 214.359 259.775 214.365C259.886 214.371 259.973 214.378 260.035 214.386V215.605C259.984 215.591 259.893 215.575 259.762 215.558C259.632 215.538 259.501 215.528 259.37 215.528C259.069 215.528 258.801 215.592 258.565 215.72C258.332 215.845 258.147 216.02 258.011 216.244C257.875 216.466 257.806 216.719 257.806 217.003V221H256.532ZM263.661 221.132C263.047 221.132 262.511 220.991 262.054 220.71C261.597 220.429 261.241 220.036 260.989 219.53C260.736 219.024 260.609 218.433 260.609 217.757C260.609 217.078 260.736 216.484 260.989 215.976C261.241 215.467 261.597 215.072 262.054 214.791C262.511 214.51 263.047 214.369 263.661 214.369C264.274 214.369 264.81 214.51 265.267 214.791C265.724 215.072 266.08 215.467 266.332 215.976C266.585 216.484 266.712 217.078 266.712 217.757C266.712 218.433 266.585 219.024 266.332 219.53C266.08 220.036 265.724 220.429 265.267 220.71C264.81 220.991 264.274 221.132 263.661 221.132ZM263.665 220.062C264.063 220.062 264.392 219.957 264.653 219.747C264.915 219.537 265.108 219.257 265.233 218.908C265.361 218.558 265.425 218.173 265.425 217.753C265.425 217.335 265.361 216.952 265.233 216.602C265.108 216.25 264.915 215.967 264.653 215.754C264.392 215.541 264.063 215.435 263.665 215.435C263.264 215.435 262.932 215.541 262.668 215.754C262.406 215.967 262.212 216.25 262.084 216.602C261.959 216.952 261.896 217.335 261.896 217.753C261.896 218.173 261.959 218.558 262.084 218.908C262.212 219.257 262.406 219.537 262.668 219.747C262.932 219.957 263.264 220.062 263.665 220.062ZM270.584 221.128C270.056 221.128 269.584 220.993 269.169 220.723C268.757 220.45 268.434 220.062 268.198 219.56C267.965 219.054 267.848 218.447 267.848 217.74C267.848 217.033 267.966 216.428 268.202 215.925C268.441 215.422 268.767 215.037 269.182 214.77C269.597 214.503 270.067 214.369 270.593 214.369C270.999 214.369 271.326 214.438 271.573 214.574C271.823 214.707 272.016 214.864 272.152 215.043C272.292 215.222 272.4 215.379 272.476 215.516H272.553V212.273H273.827V221H272.583V219.982H272.476C272.4 220.121 272.289 220.28 272.144 220.459C272.002 220.638 271.806 220.794 271.556 220.928C271.306 221.061 270.982 221.128 270.584 221.128ZM270.865 220.041C271.232 220.041 271.542 219.945 271.794 219.751C272.05 219.555 272.243 219.284 272.374 218.938C272.507 218.591 272.574 218.187 272.574 217.727C272.574 217.273 272.509 216.875 272.378 216.534C272.248 216.193 272.056 215.928 271.803 215.737C271.55 215.547 271.238 215.452 270.865 215.452C270.482 215.452 270.162 215.551 269.907 215.75C269.651 215.949 269.458 216.22 269.327 216.564C269.199 216.908 269.135 217.295 269.135 217.727C269.135 218.165 269.201 218.558 269.331 218.908C269.462 219.257 269.655 219.534 269.911 219.739C270.169 219.94 270.488 220.041 270.865 220.041ZM279.792 218.286V214.455H281.07V221H279.817V219.866H279.749C279.599 220.216 279.357 220.507 279.025 220.74C278.695 220.97 278.285 221.085 277.793 221.085C277.373 221.085 277.001 220.993 276.677 220.808C276.356 220.621 276.103 220.344 275.918 219.977C275.737 219.611 275.646 219.158 275.646 218.618V214.455H276.92V218.464C276.92 218.911 277.043 219.266 277.29 219.53C277.538 219.794 277.859 219.926 278.254 219.926C278.492 219.926 278.729 219.866 278.965 219.747C279.204 219.628 279.401 219.447 279.558 219.206C279.717 218.964 279.795 218.658 279.792 218.286ZM285.539 221.132C284.906 221.132 284.36 220.989 283.903 220.702C283.449 220.412 283.099 220.013 282.855 219.504C282.61 218.996 282.488 218.413 282.488 217.757C282.488 217.092 282.613 216.506 282.863 215.997C283.113 215.486 283.466 215.087 283.92 214.8C284.375 214.513 284.91 214.369 285.527 214.369C286.024 214.369 286.467 214.462 286.856 214.646C287.245 214.828 287.559 215.084 287.798 215.413C288.039 215.743 288.183 216.128 288.228 216.568H286.988C286.92 216.261 286.764 215.997 286.52 215.776C286.278 215.554 285.954 215.443 285.548 215.443C285.193 215.443 284.882 215.537 284.615 215.724C284.35 215.909 284.145 216.173 283.997 216.517C283.849 216.858 283.775 217.261 283.775 217.727C283.775 218.205 283.848 218.616 283.993 218.963C284.137 219.31 284.342 219.578 284.606 219.768C284.873 219.959 285.187 220.054 285.548 220.054C285.789 220.054 286.008 220.01 286.204 219.922C286.403 219.831 286.569 219.702 286.703 219.534C286.839 219.366 286.934 219.165 286.988 218.929H288.228C288.183 219.352 288.045 219.73 287.815 220.062C287.585 220.395 287.277 220.656 286.89 220.847C286.507 221.037 286.056 221.132 285.539 221.132ZM292.646 214.455V215.477H289.071V214.455H292.646ZM290.03 212.886H291.304V219.078C291.304 219.325 291.341 219.511 291.415 219.636C291.489 219.759 291.584 219.842 291.7 219.888C291.82 219.93 291.949 219.952 292.088 219.952C292.19 219.952 292.28 219.945 292.357 219.93C292.433 219.916 292.493 219.905 292.536 219.896L292.766 220.949C292.692 220.977 292.587 221.006 292.45 221.034C292.314 221.065 292.143 221.082 291.939 221.085C291.604 221.091 291.291 221.031 291.001 220.906C290.712 220.781 290.477 220.588 290.298 220.327C290.119 220.065 290.03 219.737 290.03 219.342V212.886Z" fill="black"/>
<path d="M248.959 260V251.273H250.276V258.866H254.23V260H248.959ZM258.387 260.132C257.773 260.132 257.238 259.991 256.781 259.71C256.323 259.429 255.968 259.036 255.715 258.53C255.462 258.024 255.336 257.433 255.336 256.757C255.336 256.078 255.462 255.484 255.715 254.976C255.968 254.467 256.323 254.072 256.781 253.791C257.238 253.51 257.773 253.369 258.387 253.369C259.001 253.369 259.536 253.51 259.994 253.791C260.451 254.072 260.806 254.467 261.059 254.976C261.312 255.484 261.438 256.078 261.438 256.757C261.438 257.433 261.312 258.024 261.059 258.53C260.806 259.036 260.451 259.429 259.994 259.71C259.536 259.991 259.001 260.132 258.387 260.132ZM258.391 259.062C258.789 259.062 259.119 258.957 259.38 258.747C259.641 258.537 259.835 258.257 259.96 257.908C260.087 257.558 260.151 257.173 260.151 256.753C260.151 256.335 260.087 255.952 259.96 255.602C259.835 255.25 259.641 254.967 259.38 254.754C259.119 254.541 258.789 254.435 258.391 254.435C257.991 254.435 257.658 254.541 257.394 254.754C257.133 254.967 256.938 255.25 256.81 255.602C256.685 255.952 256.623 256.335 256.623 256.753C256.623 257.173 256.685 257.558 256.81 257.908C256.938 258.257 257.133 258.537 257.394 258.747C257.658 258.957 257.991 259.062 258.391 259.062ZM265.618 260.132C264.984 260.132 264.439 259.989 263.981 259.702C263.527 259.412 263.177 259.013 262.933 258.504C262.689 257.996 262.566 257.413 262.566 256.757C262.566 256.092 262.691 255.506 262.941 254.997C263.191 254.486 263.544 254.087 263.998 253.8C264.453 253.513 264.988 253.369 265.605 253.369C266.102 253.369 266.545 253.462 266.934 253.646C267.324 253.828 267.637 254.084 267.876 254.413C268.118 254.743 268.261 255.128 268.306 255.568H267.066C266.998 255.261 266.842 254.997 266.598 254.776C266.356 254.554 266.032 254.443 265.626 254.443C265.271 254.443 264.96 254.537 264.693 254.724C264.429 254.909 264.223 255.173 264.075 255.517C263.927 255.858 263.853 256.261 263.853 256.727C263.853 257.205 263.926 257.616 264.071 257.963C264.216 258.31 264.42 258.578 264.684 258.768C264.951 258.959 265.265 259.054 265.626 259.054C265.868 259.054 266.086 259.01 266.282 258.922C266.481 258.831 266.647 258.702 266.781 258.534C266.917 258.366 267.012 258.165 267.066 257.929H268.306C268.261 258.352 268.123 258.73 267.893 259.062C267.663 259.395 267.355 259.656 266.968 259.847C266.585 260.037 266.135 260.132 265.618 260.132ZM271.574 260.145C271.159 260.145 270.784 260.068 270.449 259.915C270.114 259.759 269.848 259.533 269.652 259.237C269.459 258.942 269.362 258.58 269.362 258.151C269.362 257.781 269.433 257.477 269.575 257.239C269.717 257 269.909 256.811 270.151 256.672C270.392 256.533 270.662 256.428 270.96 256.357C271.259 256.286 271.563 256.232 271.872 256.195C272.264 256.149 272.582 256.112 272.827 256.084C273.071 256.053 273.249 256.003 273.359 255.935C273.47 255.866 273.526 255.756 273.526 255.602V255.572C273.526 255.2 273.42 254.912 273.21 254.707C273.003 254.503 272.693 254.401 272.281 254.401C271.852 254.401 271.514 254.496 271.267 254.686C271.023 254.874 270.854 255.082 270.76 255.312L269.562 255.04C269.705 254.642 269.912 254.321 270.185 254.077C270.46 253.83 270.777 253.651 271.135 253.54C271.493 253.426 271.869 253.369 272.264 253.369C272.526 253.369 272.803 253.401 273.095 253.463C273.391 253.523 273.666 253.634 273.922 253.795C274.18 253.957 274.392 254.189 274.557 254.49C274.722 254.788 274.804 255.176 274.804 255.653V260H273.56V259.105H273.509C273.426 259.27 273.303 259.432 273.138 259.591C272.973 259.75 272.761 259.882 272.503 259.987C272.244 260.092 271.935 260.145 271.574 260.145ZM271.851 259.122C272.203 259.122 272.504 259.053 272.754 258.913C273.007 258.774 273.199 258.592 273.33 258.368C273.463 258.141 273.53 257.898 273.53 257.639V256.795C273.484 256.841 273.396 256.884 273.266 256.923C273.138 256.96 272.991 256.993 272.827 257.021C272.662 257.047 272.501 257.071 272.345 257.094C272.189 257.114 272.058 257.131 271.953 257.145C271.706 257.176 271.48 257.229 271.276 257.303C271.074 257.376 270.912 257.483 270.79 257.622C270.67 257.759 270.611 257.94 270.611 258.168C270.611 258.483 270.727 258.722 270.96 258.884C271.193 259.043 271.49 259.122 271.851 259.122ZM279.556 253.455V254.477H275.981V253.455H279.556ZM276.94 251.886H278.214V258.078C278.214 258.325 278.251 258.511 278.325 258.636C278.399 258.759 278.494 258.842 278.61 258.888C278.73 258.93 278.859 258.952 278.998 258.952C279.1 258.952 279.19 258.945 279.267 258.93C279.343 258.916 279.403 258.905 279.446 258.896L279.676 259.949C279.602 259.977 279.497 260.006 279.36 260.034C279.224 260.065 279.054 260.082 278.849 260.085C278.514 260.091 278.201 260.031 277.912 259.906C277.622 259.781 277.387 259.588 277.208 259.327C277.029 259.065 276.94 258.737 276.94 258.342V251.886ZM280.966 260V253.455H282.24V260H280.966ZM281.609 252.445C281.388 252.445 281.197 252.371 281.038 252.223C280.882 252.072 280.804 251.893 280.804 251.686C280.804 251.476 280.882 251.297 281.038 251.149C281.197 250.999 281.388 250.923 281.609 250.923C281.831 250.923 282.02 250.999 282.176 251.149C282.335 251.297 282.415 251.476 282.415 251.686C282.415 251.893 282.335 252.072 282.176 252.223C282.02 252.371 281.831 252.445 281.609 252.445ZM286.711 260.132C286.098 260.132 285.562 259.991 285.105 259.71C284.647 259.429 284.292 259.036 284.039 258.53C283.787 258.024 283.66 257.433 283.66 256.757C283.66 256.078 283.787 255.484 284.039 254.976C284.292 254.467 284.647 254.072 285.105 253.791C285.562 253.51 286.098 253.369 286.711 253.369C287.325 253.369 287.86 253.51 288.318 253.791C288.775 254.072 289.13 254.467 289.383 254.976C289.636 255.484 289.762 256.078 289.762 256.757C289.762 257.433 289.636 258.024 289.383 258.53C289.13 259.036 288.775 259.429 288.318 259.71C287.86 259.991 287.325 260.132 286.711 260.132ZM286.716 259.062C287.113 259.062 287.443 258.957 287.704 258.747C287.966 258.537 288.159 258.257 288.284 257.908C288.412 257.558 288.475 257.173 288.475 256.753C288.475 256.335 288.412 255.952 288.284 255.602C288.159 255.25 287.966 254.967 287.704 254.754C287.443 254.541 287.113 254.435 286.716 254.435C286.315 254.435 285.983 254.541 285.718 254.754C285.457 254.967 285.262 255.25 285.135 255.602C285.01 255.952 284.947 256.335 284.947 256.753C284.947 257.173 285.01 257.558 285.135 257.908C285.262 258.257 285.457 258.537 285.718 258.747C285.983 258.957 286.315 259.062 286.716 259.062ZM292.459 256.114V260H291.185V253.455H292.408V254.52H292.489C292.639 254.173 292.875 253.895 293.196 253.685C293.52 253.474 293.928 253.369 294.419 253.369C294.865 253.369 295.256 253.463 295.591 253.651C295.926 253.835 296.186 254.111 296.371 254.477C296.555 254.844 296.648 255.297 296.648 255.837V260H295.374V255.99C295.374 255.516 295.25 255.145 295.003 254.878C294.756 254.608 294.416 254.473 293.984 254.473C293.689 254.473 293.426 254.537 293.196 254.665C292.969 254.793 292.788 254.98 292.655 255.227C292.524 255.472 292.459 255.767 292.459 256.114Z" fill="black"/>
<path d="M361.631 254.363L364.5 257.231L367.369 254.363L368.25 255.25L364.5 259L360.75 255.25L361.631 254.363Z" fill="#9399AF"/>
</g>
<rect x="215" y="97" width="186" height="411" rx="29" stroke="#D4D9EA" stroke-width="10"/>
<rect x="45" y="248" width="435" height="43" fill="url(#paint0_linear_51_182)"/>
</g>
<path d="M361.631 214.363L364.5 217.231L367.369 214.363L368.25 215.25L364.5 219L360.75 215.25L361.631 214.363Z" fill="#9399AF"/>
<defs>
<linearGradient id="paint0_linear_51_182" x1="262.5" y1="291" x2="262.5" y2="248" gradientUnits="userSpaceOnUse">
<stop stop-color="#F8F9FD"/>
<stop offset="1" stop-color="#F8F9FD" stop-opacity="0"/>
</linearGradient>
<clipPath id="clip0_51_182">
<rect x="215" y="97" width="186" height="411" rx="29" fill="white"/>
</clipPath>
</defs>
</svg>
