<svg width="40" height="40" viewBox="0 0 40 40" fill="none" xmlns="http://www.w3.org/2000/svg">
<path d="M20 2.5L23.9167 5.5L28.75 4.83333L30.5833 9.41667L35.1667 11.25L34.5 16.0833L37.5 20L34.5 23.9167L35.1667 28.75L30.5833 30.5833L28.75 35.1667L23.9167 34.5L20 37.5L16.0833 34.5L11.25 35.1667L9.41667 30.5833L4.83333 28.75L5.5 23.9167L2.5 20L5.5 16.0833L4.83333 11.25L9.41667 9.41667L11.25 4.83333L16.0833 5.5L20 2.5Z" fill="#3FA9F5"/>
<path d="M28.8333 12.1667L17.5 23.5L12.8333 18.8334L10.5 21.1667L17.5 28.1667L31.1667 14.5L28.8333 12.1667Z" fill="#EAF4FE"/>
</svg>
